<svg width="16" height="14" viewBox="0 0 16 14" fill="none" xmlns="http://www.w3.org/2000/svg">
<path d="M1.775 13.9667C1.30139 13.9667 0.888889 13.7986 0.5375 13.4625C0.201389 13.1111 0.0333334 12.6986 0.0333334 12.225C0.0333334 11.7361 0.201389 11.3236 0.5375 10.9875C0.888889 10.6514 1.30139 10.4833 1.775 10.4833C2.26389 10.4833 2.67639 10.659 3.0125 11.0104C3.34861 11.3465 3.51667 11.7514 3.51667 12.225C3.51667 12.6986 3.34097 13.1111 2.98958 13.4625C2.65347 13.7986 2.24861 13.9667 1.775 13.9667ZM1.775 8.74167C1.30139 8.74167 0.888889 8.57361 0.5375 8.2375C0.201389 7.88611 0.0333334 7.47361 0.0333334 7C0.0333334 6.51111 0.201389 6.09861 0.5375 5.7625C0.888889 5.42639 1.30139 5.25833 1.775 5.25833C2.26389 5.25833 2.67639 5.43403 3.0125 5.78542C3.34861 6.12153 3.51667 6.52639 3.51667 7C3.51667 7.47361 3.34097 7.88611 2.98958 8.2375C2.65347 8.57361 2.24861 8.74167 1.775 8.74167ZM1.775 3.51667C1.30139 3.51667 0.888889 3.34861 0.5375 3.0125C0.201389 2.66111 0.0333334 2.24861 0.0333334 1.775C0.0333334 1.28611 0.201389 0.87361 0.5375 0.537499C0.888889 0.201388 1.30139 0.0333321 1.775 0.0333321C2.26389 0.0333321 2.67639 0.209026 3.0125 0.560415C3.34861 0.896526 3.51667 1.30139 3.51667 1.775C3.51667 2.24861 3.34097 2.66111 2.98958 3.0125C2.65347 3.34861 2.24861 3.51667 1.775 3.51667ZM7 3.51667C6.52639 3.51667 6.11389 3.34861 5.7625 3.0125C5.42639 2.66111 5.25833 2.24861 5.25833 1.775C5.25833 1.28611 5.42639 0.87361 5.7625 0.537499C6.11389 0.201388 6.52639 0.0333321 7 0.0333321C7.48889 0.0333321 7.90139 0.209026 8.2375 0.560415C8.57361 0.896526 8.74167 1.30139 8.74167 1.775C8.74167 2.24861 8.56597 2.66111 8.21458 3.0125C7.87847 3.34861 7.47361 3.51667 7 3.51667ZM12.225 3.51667C11.7514 3.51667 11.3389 3.34861 10.9875 3.0125C10.6514 2.66111 10.4833 2.24861 10.4833 1.775C10.4833 1.28611 10.6514 0.87361 10.9875 0.537499C11.3389 0.201388 11.7514 0.0333321 12.225 0.0333321C12.7139 0.0333321 13.1264 0.209026 13.4625 0.560415C13.7986 0.896526 13.9667 1.30139 13.9667 1.775C13.9667 2.24861 13.791 2.66111 13.4396 3.0125C13.1035 3.34861 12.6986 3.51667 12.225 3.51667ZM7 8.74167C6.52639 8.74167 6.11389 8.57361 5.7625 8.2375C5.42639 7.88611 5.25833 7.47361 5.25833 7C5.25833 6.51111 5.42639 6.09861 5.7625 5.7625C6.11389 5.42639 6.52639 5.25833 7 5.25833C7.48889 5.25833 7.90139 5.43403 8.2375 5.78542C8.57361 6.12153 8.74167 6.52639 8.74167 7C8.74167 7.47361 8.56597 7.88611 8.21458 8.2375C7.87847 8.57361 7.47361 8.74167 7 8.74167ZM8.00833 13.0958V11.6292C8.00833 11.5069 8.03125 11.3924 8.07708 11.2854C8.12292 11.1785 8.19167 11.0792 8.28333 10.9875L12.9583 6.33542C13.0806 6.21319 13.2181 6.12917 13.3708 6.08333C13.5236 6.02222 13.6688 5.99167 13.8063 5.99167C13.9743 5.99167 14.1347 6.02222 14.2875 6.08333C14.4403 6.14444 14.5778 6.23611 14.7 6.35833L15.6396 7.29792C15.7465 7.42014 15.8306 7.55764 15.8917 7.71042C15.9528 7.86319 15.9833 8.01597 15.9833 8.16875C15.9833 8.32153 15.9528 8.47431 15.8917 8.62708C15.8458 8.77986 15.7618 8.91736 15.6396 9.03958L10.9875 13.6917C10.8958 13.7833 10.7965 13.8521 10.6896 13.8979C10.5826 13.9437 10.4681 13.9667 10.3458 13.9667H8.87917C8.63472 13.9667 8.42847 13.8826 8.26042 13.7146C8.09236 13.5465 8.00833 13.3403 8.00833 13.0958ZM14.7458 8.16875L13.8063 7.22917L14.7458 8.16875ZM9.24583 12.7292H10.2083L12.9125 10.0021L12.4542 9.52083L11.9729 9.0625L9.24583 11.7667V12.7292ZM12.4542 9.52083L11.9729 9.0625L12.9125 10.0021L12.4542 9.52083Z" fill="#D7702D"/>
</svg>
