<svg width="19" height="29" viewBox="0 0 19 29" fill="none" xmlns="http://www.w3.org/2000/svg">
<g filter="url(#filter0_d_3987_327)">
<path d="M6.825 10.5L14.7 18.375C14.8833 18.5583 14.975 18.7917 14.975 19.075C14.975 19.3417 14.8833 19.575 14.7 19.775C14.5 19.975 14.2583 20.075 13.975 20.075C13.7083 20.075 13.475 19.975 13.275 19.775L5.05 11.55C4.9 11.4 4.79167 11.2333 4.725 11.05C4.65833 10.8667 4.625 10.6833 4.625 10.5C4.625 10.3167 4.65833 10.1333 4.725 9.95C4.79167 9.76667 4.9 9.6 5.05 9.45L13.3 1.2C13.5 0.999999 13.7333 0.908332 14 0.924999C14.2667 0.924999 14.5 1.025 14.7 1.225C14.8833 1.425 14.975 1.65833 14.975 1.925C14.9917 2.19167 14.9 2.425 14.7 2.625L6.825 10.5Z" fill="#65558F"/>
</g>
<defs>
<filter id="filter0_d_3987_327" x="0.625" y="0.900024" width="18.375" height="27.1749" filterUnits="userSpaceOnUse" color-interpolation-filters="sRGB">
<feFlood flood-opacity="0" result="BackgroundImageFix"/>
<feColorMatrix in="SourceAlpha" type="matrix" values="0 0 0 0 0 0 0 0 0 0 0 0 0 0 0 0 0 0 127 0" result="hardAlpha"/>
<feOffset dy="4"/>
<feGaussianBlur stdDeviation="2"/>
<feComposite in2="hardAlpha" operator="out"/>
<feColorMatrix type="matrix" values="0 0 0 0 0 0 0 0 0 0 0 0 0 0 0 0 0 0 0.25 0"/>
<feBlend mode="normal" in2="BackgroundImageFix" result="effect1_dropShadow_3987_327"/>
<feBlend mode="normal" in="SourceGraphic" in2="effect1_dropShadow_3987_327" result="shape"/>
</filter>
</defs>
</svg>
