<svg width="19" height="29" viewBox="0 0 19 29" fill="none" xmlns="http://www.w3.org/2000/svg">
<g filter="url(#filter0_d_3987_333)">
<path d="M12.175 10.5L4.3 18.375C4.11667 18.5583 4.025 18.7917 4.025 19.075C4.025 19.3417 4.11667 19.575 4.3 19.775C4.5 19.975 4.74167 20.075 5.025 20.075C5.29167 20.075 5.525 19.975 5.725 19.775L13.95 11.55C14.1 11.4 14.2083 11.2333 14.275 11.05C14.3417 10.8667 14.375 10.6833 14.375 10.5C14.375 10.3167 14.3417 10.1333 14.275 9.95C14.2083 9.76667 14.1 9.6 13.95 9.45L5.7 1.2C5.5 0.999999 5.26667 0.908332 5 0.924999C4.73333 0.924999 4.5 1.025 4.3 1.225C4.11667 1.425 4.025 1.65833 4.025 1.925C4.00833 2.19167 4.1 2.425 4.3 2.625L12.175 10.5Z" fill="#65558F"/>
</g>
<defs>
<filter id="filter0_d_3987_333" x="0" y="0.900024" width="18.375" height="27.1749" filterUnits="userSpaceOnUse" color-interpolation-filters="sRGB">
<feFlood flood-opacity="0" result="BackgroundImageFix"/>
<feColorMatrix in="SourceAlpha" type="matrix" values="0 0 0 0 0 0 0 0 0 0 0 0 0 0 0 0 0 0 127 0" result="hardAlpha"/>
<feOffset dy="4"/>
<feGaussianBlur stdDeviation="2"/>
<feComposite in2="hardAlpha" operator="out"/>
<feColorMatrix type="matrix" values="0 0 0 0 0 0 0 0 0 0 0 0 0 0 0 0 0 0 0.25 0"/>
<feBlend mode="normal" in2="BackgroundImageFix" result="effect1_dropShadow_3987_333"/>
<feBlend mode="normal" in="SourceGraphic" in2="effect1_dropShadow_3987_333" result="shape"/>
</filter>
</defs>
</svg>
