<svg width="16" height="16" viewBox="0 0 16 16" fill="none" xmlns="http://www.w3.org/2000/svg">
<path d="M11.6208 6.12083C11.8653 6.12083 12.0715 6.03681 12.2396 5.86875C12.4076 5.70069 12.4917 5.49444 12.4917 5.25C12.4917 5.00555 12.4076 4.7993 12.2396 4.63125C12.0715 4.46319 11.8653 4.37917 11.6208 4.37917H8.87083C8.62639 4.37917 8.42014 4.46319 8.25208 4.63125C8.08403 4.7993 8 5.00555 8 5.25C8 5.49444 8.08403 5.70069 8.25208 5.86875C8.42014 6.03681 8.62639 6.12083 8.87083 6.12083H11.6208ZM11.6208 11.6208C11.8653 11.6208 12.0715 11.5368 12.2396 11.3687C12.4076 11.2007 12.4917 10.9944 12.4917 10.75C12.4917 10.5056 12.4076 10.2993 12.2396 10.1312C12.0715 9.96319 11.8653 9.87917 11.6208 9.87917H8.87083C8.62639 9.87917 8.42014 9.96319 8.25208 10.1312C8.08403 10.2993 8 10.5056 8 10.75C8 10.9944 8.08403 11.2007 8.25208 11.3687C8.42014 11.5368 8.62639 11.6208 8.87083 11.6208H11.6208ZM5.25 6.99167C5.73889 6.99167 6.15139 6.82361 6.4875 6.4875C6.82361 6.13611 6.99167 5.72361 6.99167 5.25C6.99167 4.76111 6.81597 4.34861 6.46458 4.0125C6.12847 3.67639 5.72361 3.50833 5.25 3.50833C4.77639 3.50833 4.36389 3.68403 4.0125 4.03542C3.67639 4.37153 3.50833 4.77639 3.50833 5.25C3.50833 5.72361 3.67639 6.13611 4.0125 6.4875C4.36389 6.82361 4.77639 6.99167 5.25 6.99167ZM5.25 12.4917C5.73889 12.4917 6.15139 12.3236 6.4875 11.9875C6.82361 11.6361 6.99167 11.2236 6.99167 10.75C6.99167 10.2611 6.81597 9.84861 6.46458 9.5125C6.12847 9.17639 5.72361 9.00833 5.25 9.00833C4.77639 9.00833 4.36389 9.18403 4.0125 9.53542C3.67639 9.87153 3.50833 10.2764 3.50833 10.75C3.50833 11.2236 3.67639 11.6361 4.0125 11.9875C4.36389 12.3236 4.77639 12.4917 5.25 12.4917ZM1.76667 15.975C1.29306 15.975 0.880556 15.8069 0.529167 15.4708C0.193056 15.1194 0.0250001 14.7069 0.0250001 14.2333V1.76667C0.0250001 1.29305 0.193056 0.888193 0.529167 0.552083C0.880556 0.200693 1.29306 0.0249984 1.76667 0.0249984H14.2333C14.7069 0.0249984 15.1118 0.200693 15.4479 0.552083C15.7993 0.888193 15.975 1.29305 15.975 1.76667V14.2333C15.975 14.7069 15.7993 15.1194 15.4479 15.4708C15.1118 15.8069 14.7069 15.975 14.2333 15.975H1.76667ZM1.76667 14.2333H14.2333V1.76667H1.76667V14.2333ZM1.76667 1.76667V14.2333V1.76667Z" fill="#D7702D"/>
</svg>
