<svg width="24" height="24" viewBox="0 0 24 24" fill="none" xmlns="http://www.w3.org/2000/svg">
<path d="M4.5 22C4.1 22 3.75 21.85 3.45 21.55C3.15 21.25 3 20.9 3 20.5V5C3 4.6 3.15 4.25 3.45 3.95C3.75 3.65 4.1 3.5 4.5 3.5H6.125V2.8C6.125 2.56667 6.2 2.375 6.35 2.225C6.5 2.075 6.69167 2 6.925 2C7.15833 2 7.35 2.075 7.5 2.225C7.66667 2.375 7.75 2.56667 7.75 2.8V3.5H16.25V2.8C16.25 2.56667 16.325 2.375 16.475 2.225C16.625 2.075 16.8167 2 17.05 2C17.2833 2 17.475 2.075 17.625 2.225C17.7917 2.375 17.875 2.56667 17.875 2.8V3.5H19.5C19.9 3.5 20.25 3.65 20.55 3.95C20.85 4.25 21 4.6 21 5V20.5C21 20.9 20.85 21.25 20.55 21.55C20.25 21.85 19.9 22 19.5 22H4.5ZM4.5 20.5H19.5V9.75H4.5V20.5ZM4.5 8.25H19.5V5H4.5V8.25ZM4.5 8.25V5V8.25ZM12 14C11.7167 14 11.475 13.9083 11.275 13.725C11.0917 13.525 11 13.2833 11 13C11 12.7167 11.0917 12.4833 11.275 12.3C11.475 12.1 11.7167 12 12 12C12.2833 12 12.5167 12.1 12.7 12.3C12.9 12.4833 13 12.7167 13 13C13 13.2833 12.9 13.525 12.7 13.725C12.5167 13.9083 12.2833 14 12 14ZM8 14C7.71667 14 7.475 13.9083 7.275 13.725C7.09167 13.525 7 13.2833 7 13C7 12.7167 7.09167 12.4833 7.275 12.3C7.475 12.1 7.71667 12 8 12C8.28333 12 8.51667 12.1 8.7 12.3C8.9 12.4833 9 12.7167 9 13C9 13.2833 8.9 13.525 8.7 13.725C8.51667 13.9083 8.28333 14 8 14ZM16 14C15.7167 14 15.475 13.9083 15.275 13.725C15.0917 13.525 15 13.2833 15 13C15 12.7167 15.0917 12.4833 15.275 12.3C15.475 12.1 15.7167 12 16 12C16.2833 12 16.5167 12.1 16.7 12.3C16.9 12.4833 17 12.7167 17 13C17 13.2833 16.9 13.525 16.7 13.725C16.5167 13.9083 16.2833 14 16 14ZM12 18C11.7167 18 11.475 17.9083 11.275 17.725C11.0917 17.525 11 17.2833 11 17C11 16.7167 11.0917 16.4833 11.275 16.3C11.475 16.1 11.7167 16 12 16C12.2833 16 12.5167 16.1 12.7 16.3C12.9 16.4833 13 16.7167 13 17C13 17.2833 12.9 17.525 12.7 17.725C12.5167 17.9083 12.2833 18 12 18ZM8 18C7.71667 18 7.475 17.9083 7.275 17.725C7.09167 17.525 7 17.2833 7 17C7 16.7167 7.09167 16.4833 7.275 16.3C7.475 16.1 7.71667 16 8 16C8.28333 16 8.51667 16.1 8.7 16.3C8.9 16.4833 9 16.7167 9 17C9 17.2833 8.9 17.525 8.7 17.725C8.51667 17.9083 8.28333 18 8 18ZM16 18C15.7167 18 15.475 17.9083 15.275 17.725C15.0917 17.525 15 17.2833 15 17C15 16.7167 15.0917 16.4833 15.275 16.3C15.475 16.1 15.7167 16 16 16C16.2833 16 16.5167 16.1 16.7 16.3C16.9 16.4833 17 16.7167 17 17C17 17.2833 16.9 17.525 16.7 17.725C16.5167 17.9083 16.2833 18 16 18Z" fill="#65558F"/>
</svg>
