<svg width="16" height="16" viewBox="0 0 16 16" fill="none" xmlns="http://www.w3.org/2000/svg">
<path d="M8 9.48958L2.66458 14.825C2.46597 15.0236 2.21319 15.1229 1.90625 15.1229C1.61736 15.1229 1.37361 15.0236 1.175 14.825C0.976389 14.6264 0.877084 14.3826 0.877084 14.0938C0.877084 13.7868 0.976389 13.534 1.175 13.3354L6.51042 8L1.175 2.66458C0.976389 2.46597 0.877084 2.22222 0.877084 1.93333C0.877084 1.62639 0.976389 1.37361 1.175 1.175C1.37361 0.976388 1.61736 0.877082 1.90625 0.877082C2.21319 0.877082 2.46597 0.976388 2.66458 1.175L8 6.51042L13.3354 1.175C13.534 0.976388 13.7778 0.877082 14.0667 0.877082C14.3736 0.877082 14.6264 0.976388 14.825 1.175C15.0236 1.37361 15.1229 1.62639 15.1229 1.93333C15.1229 2.22222 15.0236 2.46597 14.825 2.66458L9.48958 8L14.825 13.3354C15.0236 13.534 15.1229 13.7868 15.1229 14.0938C15.1229 14.3826 15.0236 14.6264 14.825 14.825C14.6264 15.0236 14.3736 15.1229 14.0667 15.1229C13.7778 15.1229 13.534 15.0236 13.3354 14.825L8 9.48958Z" fill="#817B7B"/>
</svg>
