<svg width="24" height="24" viewBox="0 0 24 24" fill="none" xmlns="http://www.w3.org/2000/svg">
<path d="M12.075 17C12.2917 17 12.4667 16.9333 12.6 16.8C12.75 16.65 12.825 16.4667 12.825 16.25V11.75C12.825 11.5333 12.75 11.3583 12.6 11.225C12.4667 11.075 12.2917 11 12.075 11C11.8583 11 11.675 11.075 11.525 11.225C11.3917 11.3583 11.325 11.5333 11.325 11.75V16.25C11.325 16.4667 11.3917 16.65 11.525 16.8C11.675 16.9333 11.8583 17 12.075 17ZM12 9.15C12.2333 9.15 12.425 9.075 12.575 8.925C12.7417 8.775 12.825 8.58333 12.825 8.35C12.825 8.11667 12.7417 7.91667 12.575 7.75C12.425 7.58333 12.2333 7.5 12 7.5C11.7667 7.5 11.5667 7.58333 11.4 7.75C11.25 7.91667 11.175 8.11667 11.175 8.35C11.175 8.58333 11.25 8.775 11.4 8.925C11.5667 9.075 11.7667 9.15 12 9.15ZM12 22C10.6333 22 9.34167 21.7417 8.125 21.225C6.90833 20.6917 5.84167 19.975 4.925 19.075C4.025 18.1583 3.30833 17.0917 2.775 15.875C2.25833 14.6583 2 13.3583 2 11.975C2 10.6083 2.25833 9.31667 2.775 8.1C3.30833 6.88333 4.025 5.825 4.925 4.925C5.84167 4.025 6.90833 3.31667 8.125 2.8C9.34167 2.26667 10.6417 2 12.025 2C13.3917 2 14.6833 2.26667 15.9 2.8C17.1167 3.31667 18.175 4.025 19.075 4.925C19.975 5.825 20.6833 6.88333 21.2 8.1C21.7333 9.31667 22 10.6167 22 12C22 13.3667 21.7333 14.6583 21.2 15.875C20.6833 17.0917 19.975 18.1583 19.075 19.075C18.175 19.975 17.1167 20.6917 15.9 21.225C14.6833 21.7417 13.3833 22 12 22ZM12 20.5C14.3667 20.5 16.375 19.675 18.025 18.025C19.675 16.3583 20.5 14.35 20.5 12C20.5 9.63333 19.675 7.625 18.025 5.975C16.375 4.325 14.3667 3.5 12 3.5C9.65 3.5 7.64167 4.325 5.975 5.975C4.325 7.625 3.5 9.63333 3.5 12C3.5 14.35 4.325 16.3583 5.975 18.025C7.64167 19.675 9.65 20.5 12 20.5Z" fill="url(#paint0_linear_3984_52497)"/>
<defs>
<linearGradient id="paint0_linear_3984_52497" x1="2.09714" y1="20.4277" x2="29.3271" y2="20.4277" gradientUnits="userSpaceOnUse">
<stop stop-color="#B9B2F4"/>
<stop offset="0.445" stop-color="#8A4ADA"/>
<stop offset="1" stop-color="#E168F8"/>
</linearGradient>
</defs>
</svg>
