<svg width="767" height="59" viewBox="0 0 767 59" fill="none" xmlns="http://www.w3.org/2000/svg">
<path d="M753.828 13.3582C757.462 13.3582 760.766 14.7943 763.151 17.1321C765.524 19.47 767 22.6873 767 26.272C767 31.2928 761.107 40.3882 757.008 46.7561C755.872 48.5262 754.862 50.0736 754.169 51.2648C754.056 51.4318 753.817 51.4986 753.647 51.4095C753.579 51.365 753.533 51.3205 753.499 51.2648C752.807 50.0736 751.796 48.5262 750.672 46.7561C746.55 40.3882 740.657 31.2928 740.657 26.272C740.657 22.6984 742.144 19.47 744.529 17.1321C746.902 14.7943 750.195 13.3582 753.828 13.3582ZM762.594 17.6665C760.346 15.4734 757.258 14.104 753.828 14.104C750.399 14.104 747.311 15.4622 745.062 17.6665C742.826 19.8708 741.429 22.91 741.429 26.272C741.429 31.0702 747.243 40.0654 751.296 46.3664C752.273 47.8694 753.147 49.2275 753.828 50.3297C754.51 49.2275 755.373 47.8694 756.361 46.3664C760.414 40.0654 766.228 31.0702 766.228 26.272C766.228 22.91 764.854 19.8596 762.594 17.6665Z" fill="#E168F8" fill-opacity="0.7"/>
<path d="M753.828 18.1787C756.009 18.1787 757.984 19.0471 759.404 20.4498C760.846 21.8414 761.72 23.7784 761.72 25.9159C761.72 28.0534 760.834 29.9904 759.404 31.382C757.984 32.7959 756.009 33.6531 753.828 33.6531C751.648 33.6531 749.672 32.7847 748.253 31.382C746.811 29.9904 745.937 28.0534 745.937 25.9159C745.937 23.7784 746.822 21.8414 748.253 20.4498C749.672 19.0359 751.648 18.1787 753.828 18.1787ZM758.87 20.9841C757.587 19.715 755.804 18.9357 753.828 18.9357C751.853 18.9357 750.081 19.715 748.787 20.9841C747.492 22.2533 746.697 23.99 746.697 25.927C746.697 27.8641 747.492 29.6119 748.787 30.8699C750.081 32.139 751.853 32.9183 753.828 32.9183C755.804 32.9183 757.587 32.139 758.87 30.8699C760.164 29.6119 760.959 27.8641 760.959 25.927C760.959 23.99 760.164 22.2533 758.87 20.9841Z" fill="#E168F8" fill-opacity="0.7"/>
<path d="M753.828 20.9619C753.624 20.9619 753.454 20.7949 753.454 20.5722C753.454 20.3718 753.624 20.2048 753.828 20.2048C755.441 20.2048 756.894 20.8505 757.95 21.8747C759.006 22.9101 759.653 24.335 759.653 25.9159C759.653 26.1163 759.483 26.2833 759.279 26.2833C759.063 26.2833 758.904 26.1163 758.904 25.9159C758.904 24.5354 758.336 23.2997 757.416 22.398C756.497 21.4962 755.236 20.9619 753.828 20.9619Z" fill="#E168F8" fill-opacity="0.7"/>
<path d="M659.344 13.6252C662.444 13.6252 665.272 14.8053 667.293 16.7313C669.337 18.6572 670.609 21.3068 670.609 24.2458C670.609 27.1848 669.337 29.8455 667.316 31.7715C665.272 33.6974 662.456 34.8775 659.344 34.8775C656.233 34.8775 653.429 33.6974 651.396 31.7715C649.352 29.8455 648.08 27.1737 648.08 24.2458C648.08 21.3179 649.352 18.6572 651.396 16.7313C653.417 14.8053 656.245 13.6252 659.344 13.6252ZM666.657 17.3324C664.783 15.5623 662.206 14.4713 659.344 14.4713C656.483 14.4713 653.905 15.5623 652.032 17.3324C650.158 19.1025 649 21.5406 649 24.2458C649 26.951 650.158 29.4113 652.032 31.1703C653.905 32.9404 656.483 34.0314 659.344 34.0314C662.206 34.0314 664.783 32.9404 666.657 31.1703C668.542 29.4002 669.7 26.951 669.7 24.2458C669.7 21.5406 668.542 19.1025 666.657 17.3324Z" fill="#E168F8" fill-opacity="0.7"/>
<path d="M658.902 14.9055C658.902 14.6717 659.106 14.4824 659.356 14.4824C659.606 14.4824 659.799 14.6717 659.799 14.9055V18.3121C659.799 18.5458 659.594 18.7351 659.356 18.7351C659.117 18.7351 658.902 18.5458 658.902 18.3121V14.9055Z" fill="#E168F8" fill-opacity="0.7"/>
<path d="M670.143 23.8228C670.381 23.8228 670.586 24.012 670.586 24.2458C670.586 24.4907 670.381 24.6688 670.143 24.6688H666.532C666.294 24.6688 666.078 24.4907 666.078 24.2458C666.078 24.012 666.282 23.8228 666.532 23.8228H670.143Z" fill="#E168F8" fill-opacity="0.7"/>
<path d="M659.799 34.4542C659.799 34.6992 659.594 34.8995 659.356 34.8995C659.117 34.8995 658.902 34.7103 658.902 34.4542V31.0588C658.902 30.8139 659.106 30.6357 659.356 30.6357C659.606 30.6357 659.799 30.8139 659.799 31.0588V34.4542Z" fill="#E168F8" fill-opacity="0.7"/>
<path d="M652.611 23.9786C652.373 23.9786 652.157 23.8005 652.157 23.5556C652.157 23.3218 652.361 23.1326 652.611 23.1326H656.222C656.46 23.1326 656.676 23.3218 656.676 23.5556C656.676 23.8005 656.472 23.9786 656.222 23.9786H652.611Z" fill="#E168F8" fill-opacity="0.7"/>
<path d="M655.586 18.312C655.473 18.1005 655.563 17.8333 655.79 17.7443C656.018 17.6329 656.279 17.722 656.392 17.9335L659.924 24.858L665.351 25.4814C665.612 25.5148 665.783 25.7264 665.76 25.9601C665.726 26.1939 665.499 26.3721 665.26 26.3275L659.594 25.6707C659.447 25.6484 659.31 25.5594 659.242 25.4369L655.597 18.3009L655.586 18.312Z" fill="#E168F8" fill-opacity="0.7"/>
<path d="M669.053 19.7595H689.446C689.685 19.7595 689.9 19.9488 689.9 20.2048V48.5931C689.9 48.838 689.696 49.0161 689.446 49.0161H664.045C663.807 49.0161 663.591 48.838 663.591 48.5931V48.5708C663.534 47.7247 663.137 46.9454 662.524 46.3777C661.888 45.8099 661.048 45.4537 660.094 45.4537C659.14 45.4537 658.323 45.8099 657.687 46.3777C657.074 46.9454 656.653 47.7359 656.619 48.6042C656.597 48.838 656.392 49.0161 656.165 49.0161H652.111C651.85 49.0161 651.646 48.838 651.646 48.5931V31.4377C651.941 31.7048 652.248 31.972 652.566 32.1947V48.17H655.768C655.915 47.2349 656.381 46.3888 657.073 45.7654C657.857 45.064 658.947 44.6187 660.105 44.6187C661.263 44.6187 662.354 45.064 663.16 45.7654C663.852 46.3888 664.318 47.2349 664.466 48.17H688.992V20.639H669.462C669.348 20.3384 669.223 20.0601 669.064 19.7707L669.053 19.7595Z" fill="#E168F8" fill-opacity="0.7"/>
<path d="M689.446 26.105H697.849C697.996 26.105 698.133 26.1718 698.223 26.2831L707.989 37.8722C708.068 37.9612 708.08 38.0503 708.08 38.1394V48.5818C708.08 48.8267 707.898 49.0048 707.637 49.0048H703.583C703.344 49.0048 703.129 48.8267 703.129 48.5818V48.5595C703.072 47.7134 702.675 46.9342 702.039 46.3664C701.426 45.7986 700.563 45.4424 699.62 45.4424C698.678 45.4424 697.837 45.7986 697.213 46.3664C696.6 46.9342 696.18 47.7246 696.146 48.5929C696.123 48.8267 695.918 49.0048 695.691 49.0048H689.446C689.185 49.0048 688.981 48.8267 688.981 48.5818V26.528C688.981 26.2942 689.185 26.105 689.446 26.105ZM697.622 26.9511H689.9V48.1588H695.283C695.419 47.2236 695.896 46.3775 696.588 45.7541C697.372 45.0527 698.439 44.6074 699.62 44.6074C700.801 44.6074 701.868 45.0527 702.675 45.7541C703.367 46.3775 703.833 47.2236 703.98 48.1588H707.182V38.2952L697.622 26.9511Z" fill="#E168F8" fill-opacity="0.7"/>
<path d="M669.779 26.9177H685.495C685.756 26.9177 685.949 27.107 685.949 27.363C685.949 27.5968 685.756 27.7861 685.495 27.7861H669.484C669.598 27.5078 669.689 27.2183 669.779 26.9177Z" fill="#E168F8" fill-opacity="0.7"/>
<path d="M652.111 34.8217C651.85 34.8217 651.646 34.6324 651.646 34.3986C651.646 34.1648 651.85 33.9756 652.111 33.9756H656.017C657.062 34.2984 658.186 34.4654 659.344 34.4654C660.503 34.4654 661.627 34.2873 662.671 33.9756H685.495C685.756 33.9756 685.949 34.1648 685.949 34.3986C685.949 34.6324 685.756 34.8217 685.495 34.8217H652.1H652.111Z" fill="#E168F8" fill-opacity="0.7"/>
<path d="M652.111 41.8576C651.85 41.8576 651.646 41.6794 651.646 41.4345C651.646 41.2007 651.85 41.0115 652.111 41.0115H685.506C685.767 41.0115 685.96 41.2007 685.96 41.4345C685.96 41.6794 685.767 41.8576 685.506 41.8576H652.111Z" fill="#E168F8" fill-opacity="0.7"/>
<path d="M689.446 38.6068C689.185 38.6068 688.981 38.4064 688.981 38.1838C688.981 37.9611 689.185 37.7607 689.446 37.7607H707.625C707.886 37.7607 708.068 37.9611 708.068 38.1838C708.068 38.4064 707.886 38.6068 707.625 38.6068H689.446Z" fill="#E168F8" fill-opacity="0.7"/>
<path d="M663.217 45.832C662.41 45.075 661.309 44.6074 660.094 44.6074C658.879 44.6074 657.812 45.0639 657.028 45.8097L656.994 45.832C656.211 46.5779 655.7 47.6132 655.7 48.7599C655.7 49.6616 656.017 50.4966 656.528 51.1645C656.722 50.953 656.983 50.7972 657.289 50.7081C656.869 50.1626 656.619 49.4947 656.619 48.7488C656.619 47.847 656.994 47.0121 657.63 46.4109L657.653 46.3886C658.288 45.8097 659.151 45.4312 660.105 45.4312C661.059 45.4312 661.956 45.7986 662.592 46.3998C663.205 47.0009 663.603 47.8359 663.603 48.7376C663.603 49.5058 663.319 50.196 662.876 50.7526C663.171 50.8751 663.398 51.0644 663.569 51.2981C664.159 50.5968 664.534 49.7173 664.534 48.7376C664.534 47.591 664.034 46.5445 663.239 45.8097L663.217 45.832Z" fill="#E168F8" fill-opacity="0.7"/>
<path d="M697.145 46.4333L697.168 46.411C697.803 45.8321 698.666 45.4536 699.62 45.4536C700.574 45.4536 701.471 45.821 702.084 46.4221C702.72 47.0233 703.118 47.8583 703.118 48.76C703.118 49.5838 702.8 50.3186 702.277 50.8863C702.663 50.8418 703.049 50.8084 703.447 50.7973C703.799 50.1961 704.015 49.5059 704.015 48.7711C704.015 47.6245 703.526 46.578 702.743 45.8432C701.937 45.0862 700.835 44.6187 699.62 44.6187C698.405 44.6187 697.338 45.0751 696.532 45.821L696.509 45.8432C695.726 46.5891 695.215 47.6245 695.215 48.7711C695.215 49.4725 695.408 50.1293 695.737 50.7082C695.987 50.5858 696.271 50.5078 696.611 50.5078C696.623 50.5078 696.634 50.5078 696.645 50.5078C696.305 50.0069 696.1 49.4168 696.1 48.7711C696.1 47.8694 696.498 47.0344 697.134 46.4333H697.145Z" fill="#E168F8" fill-opacity="0.7"/>
<path d="M691.07 29.1775H697.031C697.27 29.1775 697.485 29.3779 697.485 29.6005V36.0463C697.485 36.2912 697.281 36.4916 697.031 36.4916H691.07C690.831 36.4916 690.616 36.3024 690.616 36.0463V29.6005C690.616 29.3667 690.82 29.1775 691.07 29.1775ZM696.588 30.0236H691.535V35.6233H696.588V30.0236Z" fill="#E168F8" fill-opacity="0.7"/>
<path d="M342.407 50.4406V43.0708C342.407 42.8593 342.498 42.6589 342.646 42.5142C342.793 42.3695 342.998 42.2804 343.202 42.2804H385.022C385.238 42.2804 385.442 42.3695 385.59 42.5142C385.737 42.6589 385.828 42.8593 385.828 43.0708V51.2867C386.135 51.3201 386.441 51.2645 386.748 51.2978V43.0708C386.748 42.6033 386.544 42.1913 386.248 41.8796H386.226C385.908 41.5679 385.488 41.3787 385.011 41.3787H343.191C342.725 41.3787 342.305 41.579 341.998 41.8685L341.976 41.8908C341.68 42.2025 341.476 42.6144 341.476 43.082V50.4518" fill="#E168F8" fill-opacity="0.7"/>
<path d="M350.571 6.76733H354.761C355.022 6.76733 355.204 6.96772 355.204 7.20151V23.0321H358.679C358.917 23.0321 359.122 23.2325 359.122 23.4663C359.122 23.5554 359.099 23.6444 359.053 23.7001L353.058 33.8642C352.944 34.0757 352.672 34.1536 352.456 34.0312C352.399 33.9978 352.343 33.9421 352.309 33.8642L346.302 23.6778C346.177 23.4663 346.245 23.2102 346.472 23.0878C346.54 23.0544 346.62 23.0321 346.688 23.0321H350.14V7.20151C350.14 6.96772 350.344 6.76733 350.583 6.76733H350.571ZM354.318 7.63568H351.026V23.4663C351.026 23.7001 350.821 23.9005 350.56 23.9005H347.437L352.661 32.7843L357.895 23.9005H354.75C354.511 23.9005 354.307 23.7001 354.307 23.4663V7.62455L354.318 7.63568Z" fill="#E168F8" fill-opacity="0.7"/>
<path d="M373.917 33.2074H377.21V17.399C377.21 17.143 377.414 16.9537 377.653 16.9537H380.798L375.563 8.06985L370.34 16.9537H373.485C373.724 16.9537 373.928 17.1541 373.928 17.399V33.2074H373.917ZM377.653 34.0869H373.474C373.213 34.0869 373.02 33.8865 373.02 33.6415V17.8332H369.568C369.489 17.8332 369.42 17.8109 369.352 17.7664C369.148 17.6551 369.08 17.3879 369.182 17.1875L375.189 6.98999C375.223 6.92319 375.28 6.86753 375.336 6.823C375.552 6.71167 375.836 6.76733 375.938 6.98999L381.933 17.1541C381.933 17.1541 382.002 17.2988 382.002 17.4101C382.002 17.6439 381.797 17.8443 381.559 17.8443H378.107V33.6527C378.107 33.9087 377.902 34.098 377.653 34.098V34.0869Z" fill="#E168F8" fill-opacity="0.7"/>
<path d="M464.608 31.9161V18.0003C464.608 17.7443 464.427 17.5662 464.165 17.5662C464.131 17.5662 464.075 17.5662 464.041 17.5884L446.611 21.752C446.406 21.8077 446.259 21.9858 446.259 22.1639L447.144 22.5091L463.723 18.5458V28.1867C463.723 28.2646 463.643 32.2279 463.723 32.4282" fill="#E168F8" fill-opacity="0.7"/>
<path d="M447.145 22.5091V22.1639C447.145 21.9858 447.02 21.8077 446.815 21.752L429.386 17.5884C429.386 17.5884 429.295 17.5662 429.238 17.5662C429 17.5662 428.795 17.7443 428.795 18.0003V50.8194C429.022 50.5856 429.306 51.1979 429.681 51.1088V18.5458L446.259 22.5091H447.145Z" fill="#E168F8" fill-opacity="0.7"/>
<path d="M429.136 17.4547L446.599 13.8478C446.668 13.8255 446.724 13.8255 446.781 13.8478L464.245 17.4547C464.483 17.5104 464.654 17.7442 464.597 17.978C464.563 18.145 464.415 18.2674 464.245 18.3008L446.804 22.4867C446.736 22.509 446.656 22.509 446.599 22.4867L429.113 18.3008C428.897 18.2451 428.75 18.0114 428.795 17.7776C428.829 17.6106 428.965 17.4881 429.124 17.4547H429.136ZM446.69 14.7161L431.225 17.9112L446.69 21.6295L462.167 17.9112L446.69 14.7161Z" fill="#E168F8" fill-opacity="0.7"/>
<path d="M474.737 35.3448C472.273 32.929 468.878 31.4373 465.119 31.4373C464.62 31.4373 464.211 31.4707 463.723 31.5263C463.723 31.6042 463.859 31.671 463.791 31.7044C463.87 31.916 463.791 32.1943 463.791 32.4169C464.234 32.3724 464.665 32.339 465.119 32.339C468.617 32.339 471.796 33.7417 474.067 36.0016C476.361 38.2393 477.78 41.3564 477.78 44.7742C477.78 47.1454 477.099 49.3497 475.929 51.2311C476.122 51.2422 476.292 51.2756 476.451 51.3313C476.485 51.3313 476.52 51.3313 476.554 51.3313C476.69 51.3313 476.803 51.3424 476.928 51.3647C478.064 49.4165 478.722 47.1788 478.722 44.7742C478.722 41.1004 477.201 37.7606 474.737 35.3448Z" fill="#E168F8" fill-opacity="0.7"/>
<path d="M456.308 44.8744C456.194 44.6629 456.274 44.3846 456.49 44.2621C456.705 44.1397 456.989 44.2064 457.114 44.4291L460.623 50.3962L473.159 38.1058C473.34 37.9276 473.635 37.9276 473.817 38.1058C473.999 38.2839 473.999 38.5733 473.817 38.7403L460.838 51.4649L460.748 51.5429C460.532 51.6653 460.248 51.5985 460.123 51.3759L456.297 44.8855L456.308 44.8744Z" fill="#E168F8" fill-opacity="0.7"/>
<path d="M532.59 50.6858L534.827 29.8344L547.317 25.6151C551.995 24.0343 554.3 20.7167 553.755 19.1916C553.21 17.6775 549.282 16.4529 544.603 18.0338L532.113 22.253L516.682 7.62474C516.421 7.37982 516.057 7.3019 515.705 7.41322L513.457 8.17024C512.889 8.3595 512.651 9.01632 512.957 9.50616L522.745 25.4036L517.306 27.2405C513.911 28.3871 511.038 29.6896 508.767 30.9699L504.384 26.8174C504.237 26.6727 504.021 26.6282 503.828 26.695L501.58 27.452C501.251 27.5633 501.103 27.9418 501.285 28.2313L504.68 33.7419C503.431 34.8329 502.852 35.7569 503.045 36.3024C503.238 36.8479 504.271 37.2153 505.963 37.3266L506.803 43.6945C506.848 44.0285 507.2 44.24 507.53 44.1287L509.778 43.3717C509.971 43.3049 510.119 43.1379 510.141 42.9375L510.936 37.0483H510.925C513.514 36.681 516.602 35.9796 519.997 34.8329L525.436 32.996L527.378 50.9196" stroke="#E168F8" stroke-opacity="0.7" stroke-miterlimit="10"/>
<path d="M605.352 14.7719C603.058 13.948 599.913 13.5361 595.996 13.5361C592.078 13.5361 588.887 13.948 586.503 14.7719C585.004 15.284 583.857 16.8314 583.596 18.6126H607.816C607.759 16.8314 606.783 15.2951 605.352 14.7719Z" stroke="#E168F8" stroke-opacity="0.7" stroke-miterlimit="10"/>
<path d="M606.76 51.0976L602.116 42.0802H602.332C605.363 42.0802 607.827 39.5531 607.827 36.447V18.6125H583.607V36.447C583.607 39.5531 586.071 42.0802 589.103 42.0802H589.319L585.004 50.9306M596.586 22.8096C596.586 22.1973 597.097 21.7074 597.71 21.7074H604.989C605.613 21.7074 606.113 22.1973 606.113 22.8096V29.2999C606.113 29.9122 605.602 30.402 604.989 30.402H597.71C597.086 30.402 596.586 29.9122 596.586 29.2999V22.8096ZM585.333 29.2999V22.8096C585.333 22.1973 585.833 21.7074 586.458 21.7074H593.736C594.361 21.7074 594.86 22.1973 594.86 22.8096V29.2999C594.86 29.9122 594.349 30.402 593.736 30.402H586.458C585.833 30.402 585.333 29.9122 585.333 29.2999ZM589.103 38.5734C587.9 38.5734 586.923 37.616 586.923 36.4359C586.923 35.2559 587.9 34.2984 589.103 34.2984C590.307 34.2984 591.283 35.2559 591.283 36.4359C591.283 37.616 590.307 38.5734 589.103 38.5734ZM590.704 44.1954L591.59 42.4587H599.845L600.731 44.1954H590.704ZM600.152 36.4248C600.152 35.2447 601.128 34.2873 602.332 34.2873C603.535 34.2873 604.512 35.2447 604.512 36.4248C604.512 37.6048 603.535 38.5622 602.332 38.5622C601.128 38.5622 600.152 37.6048 600.152 36.4248Z" stroke="#E168F8" stroke-opacity="0.7" stroke-miterlimit="10"/>
<path d="M114.117 50.7191L114.151 27.6523C114.151 27.5187 114.06 27.374 113.936 27.3072C113.754 27.207 113.493 27.2738 113.391 27.4742C111.665 30.6024 109.575 33.842 107.838 36.525C106.975 37.8498 106.214 39.0298 105.601 40.0318C104.988 39.0298 104.227 37.8609 103.364 36.525C99.6852 30.8251 94.4166 22.6871 94.4166 18.3342C94.4166 17.555 94.496 16.8091 94.655 16.0743C94.8253 15.3284 95.0638 14.6159 95.3704 13.9146C95.4044 13.8701 95.4158 13.8033 95.4158 13.7476C95.4158 13.5138 95.2341 13.3357 95.007 13.3357H72.8764C72.6606 13.3357 72.4676 13.5138 72.4676 13.7476V50.6301C72.4676 50.8193 72.5925 50.964 72.7628 51.0086C72.9559 50.7303 73.0126 51.3425 73.2624 51.0976L73.2851 50.2293V14.1484H94.4052C94.1895 14.7161 93.9964 15.295 93.8602 15.9073C93.6899 16.6866 93.6104 17.4993 93.6104 18.3342C93.6104 22.8986 98.9472 31.1813 102.672 36.9592C103.705 38.5511 104.625 39.965 105.249 41.0337C105.363 41.2118 105.624 41.2786 105.806 41.1784C105.874 41.1339 105.942 41.0782 105.976 41.0115C106.6 39.9538 107.497 38.54 108.531 36.9592C110.018 34.6324 111.79 31.9272 113.345 29.1997V50.2293C114.106 50.2293 113.254 50.1847 114.06 50.7303" fill="#E168F8" fill-opacity="0.7"/>
<path d="M72.7628 27.9307L94.5982 22.1863L94.814 22.9544L72.9672 28.6989L72.7628 27.9307Z" fill="#E168F8" fill-opacity="0.7"/>
<path d="M114.049 50.7305L91.8617 34.1428L92.3727 33.5305L114.56 50.1738L114.049 50.7305Z" fill="#E168F8" fill-opacity="0.7"/>
<path d="M97.63 28.1868C97.7776 28.0421 98.0501 28.0421 98.2091 28.1979C98.3567 28.3649 98.3454 28.6098 98.1864 28.7657L73.2057 51.3538L72.6493 50.7749L97.63 28.1868Z" fill="#E168F8" fill-opacity="0.7"/>
<path d="M90.4424 20.3048L80.7339 14.0817L81.1768 13.4026L95.325 22.4868L94.8821 23.1548L90.4424 20.3048Z" fill="#E168F8" fill-opacity="0.7"/>
<path d="M105.59 6.56714C108.917 6.56714 111.914 7.89192 114.083 10.0183C116.252 12.1446 117.592 15.0836 117.592 18.3232C117.592 22.8876 112.255 31.1703 108.531 36.9481C107.497 38.5401 106.578 39.9539 105.953 41.0227C105.84 41.2008 105.578 41.2676 105.397 41.1674C105.329 41.1229 105.283 41.0672 105.249 41.0227C104.625 39.9539 103.705 38.5512 102.672 36.9481V36.9147C98.9244 31.1369 93.6104 22.8876 93.6104 18.3232C93.6104 15.0836 94.9502 12.1446 97.119 10.0183C99.2878 7.89192 102.308 6.56714 105.612 6.56714H105.59ZM113.504 10.586C111.472 8.60441 108.678 7.37982 105.59 7.37982C102.501 7.37982 99.7079 8.60441 97.6981 10.586C95.6656 12.5676 94.4052 15.3063 94.4052 18.3232C94.4052 22.6649 99.6625 30.8029 103.33 36.5028L103.353 36.5251C104.216 37.8499 104.977 39.0299 105.59 40.0319C106.203 39.0299 106.964 37.861 107.827 36.5251C111.506 30.8252 116.774 22.6872 116.774 18.3343C116.774 15.3063 115.525 12.5676 113.504 10.5972V10.586Z" fill="#E168F8" fill-opacity="0.7"/>
<path d="M105.59 10.9424C107.588 10.9424 109.382 11.7439 110.688 13.0242C111.994 14.3044 112.811 16.0857 112.811 18.0227C112.811 19.9598 111.994 21.7411 110.688 23.0213C109.382 24.3016 107.588 25.1031 105.59 25.1031C103.591 25.1031 101.797 24.3016 100.491 23.0213C99.1856 21.7411 98.368 19.9821 98.368 18.0227C98.368 16.0634 99.1856 14.3044 100.491 13.0242C101.797 11.7439 103.591 10.9424 105.59 10.9424ZM110.12 13.5808C108.974 12.4564 107.361 11.7551 105.59 11.7551C103.818 11.7551 102.217 12.4564 101.071 13.5808C99.9237 14.7275 99.1856 16.2861 99.1856 18.0116C99.1856 19.7372 99.9123 21.318 101.071 22.4424C102.217 23.5891 103.83 24.2904 105.59 24.2904C107.35 24.2904 108.962 23.5891 110.12 22.4424C111.267 21.318 112.005 19.7483 112.005 18.0116C112.005 16.2749 111.279 14.7164 110.12 13.5808Z" fill="#E168F8" fill-opacity="0.7"/>
<path d="M105.59 13.5806C105.374 13.5806 105.181 13.4136 105.181 13.1798C105.181 12.9683 105.363 12.7791 105.59 12.7791C107.066 12.7791 108.406 13.358 109.371 14.3042C110.336 15.2728 110.927 16.5642 110.927 18.0114C110.927 18.2452 110.745 18.4122 110.518 18.4122C110.291 18.4122 110.109 18.2452 110.109 18.0114C110.109 16.7979 109.598 15.6847 108.792 14.8831C107.974 14.0704 106.839 13.5695 105.59 13.5695V13.5806Z" fill="#E168F8" fill-opacity="0.7"/>
<path d="M195.407 51.1534V30.3465C195.407 30.2352 195.373 30.1461 195.293 30.0793C195.146 29.9234 194.896 29.9234 194.76 30.0793L184.37 40.2657L181.009 36.9704L195.293 22.9544C195.361 22.8876 195.407 22.7985 195.407 22.6872V16.0744C195.407 15.3731 195.123 14.7496 194.657 14.3043C194.203 13.859 193.545 13.5696 192.852 13.5696H165.68C164.964 13.5696 164.329 13.8479 163.874 14.3043C163.42 14.7496 163.125 15.3953 163.125 16.0744V49.272V50.7638H163.886V16.0744C163.886 15.5957 164.09 15.1615 164.408 14.8276C164.737 14.5159 165.18 14.3155 165.68 14.3155H192.852C193.34 14.3155 193.783 14.5159 194.124 14.8276C194.442 15.1504 194.646 15.5846 194.646 16.0744V22.5314L180.191 36.7032C180.044 36.8479 180.044 37.0706 180.191 37.2265L184.109 41.045C184.256 41.1897 184.484 41.1897 184.642 41.045L194.646 31.2371V51.1423H195.407V51.1534Z" fill="#E168F8" fill-opacity="0.7"/>
<path d="M168.7 21.4737C168.473 21.4737 168.326 21.3067 168.326 21.0841C168.326 20.8837 168.484 20.7056 168.7 20.7056H189.82C190.047 20.7056 190.195 20.8726 190.195 21.0841C190.195 21.3067 190.036 21.4737 189.82 21.4737H168.7Z" fill="#E168F8" fill-opacity="0.7"/>
<path d="M168.7 29.1886C168.473 29.1886 168.326 29.0216 168.326 28.8212C168.326 28.6208 168.484 28.4539 168.7 28.4539H187.413C187.617 28.4539 187.788 28.6208 187.788 28.8212C187.788 29.0216 187.617 29.1886 187.413 29.1886H168.7Z" fill="#E168F8" fill-opacity="0.7"/>
<path d="M168.7 36.926C168.473 36.926 168.326 36.759 168.326 36.5363C168.326 36.3359 168.484 36.1689 168.7 36.1689H180.907C181.111 36.1689 181.281 36.3359 181.281 36.5363C181.281 36.759 181.111 36.926 180.907 36.926H168.7Z" fill="#E168F8" fill-opacity="0.7"/>
<path d="M168.7 44.6408C168.473 44.6408 168.326 44.4738 168.326 44.2734C168.326 44.073 168.484 43.906 168.7 43.906H175.649C175.854 43.906 176.024 44.073 176.024 44.2734C176.024 44.4738 175.854 44.6408 175.649 44.6408H168.7Z" fill="#E168F8" fill-opacity="0.7"/>
<path d="M200.88 24.0788L197.519 20.7835L180.998 36.9815L184.359 40.2768L200.88 24.0788ZM197.791 19.982L201.686 23.8116C201.834 23.9563 201.834 24.1901 201.686 24.3348L184.631 41.0561C184.631 41.0561 184.518 41.134 184.461 41.1451L181.599 42.058L178.738 42.9375C178.534 43.0043 178.329 42.893 178.261 42.7037C178.227 42.6258 178.25 42.5479 178.261 42.4699C178.863 40.5885 179.476 38.7294 180.101 36.8702C180.112 36.8034 180.146 36.7477 180.191 36.7032L197.258 19.9708C197.405 19.8261 197.632 19.8261 197.791 19.9708V19.982ZM179.885 39.9205L179.203 42.0358L181.372 41.3678L183.632 40.633C182.621 39.6534 181.622 38.6737 180.623 37.6829L179.873 39.9205H179.885Z" fill="#E168F8" fill-opacity="0.7"/>
<path d="M260.629 26.528C260.686 26.2386 260.754 25.9491 260.856 25.6597H253.317C253.317 25.6597 253.226 25.6819 253.192 25.6819C252.953 25.7487 252.828 26.0048 252.897 26.2274L260.402 50.5077C260.629 50.3185 260.993 50.5077 261.265 50.3519L253.907 26.5391H260.641L260.629 26.528Z" fill="#E168F8" fill-opacity="0.7"/>
<path d="M297.612 25.6597H277.775C277.809 25.9491 277.821 26.2386 277.809 26.528H297.01L289.63 50.1515L289.743 50.864C290.004 51.12 289.914 50.7081 290.107 51.0087C290.266 50.9864 290.424 50.8974 290.47 50.7193L298.021 26.2608C298.021 26.2608 298.055 26.1495 298.055 26.0938C298.055 25.8601 297.851 25.6597 297.612 25.6597Z" fill="#E168F8" fill-opacity="0.7"/>
<path d="M274.21 3.18291C273.971 3.12725 273.846 2.8712 273.914 2.63741C273.983 2.42589 274.232 2.2923 274.471 2.37023C276.367 2.94913 276.481 2.8712 276.64 2.771L276.73 2.71534C276.73 2.71534 276.799 2.59288 276.878 2.45929C277.026 2.16984 277.207 1.86926 277.503 1.7802C277.866 1.65774 278.207 1.83586 278.445 2.55948C278.57 2.96026 278.888 3.37217 279.251 3.67275C279.456 3.85087 279.671 3.98446 279.876 4.02899C280.023 4.06239 280.171 4.06239 280.262 3.99559C280.341 3.9622 280.387 3.88427 280.444 3.78407C280.75 3.14951 280.886 2.73761 280.943 2.53722V2.51495C281.023 2.2589 281.068 2.13644 281.295 2.05851H281.318C281.738 1.93606 281.795 2.13644 281.92 2.51495C281.976 2.71534 281.886 2.91573 281.715 3.00479C281.647 3.27197 281.5 3.65048 281.25 4.14032C281.102 4.4075 280.932 4.60789 280.716 4.73035C280.387 4.93074 280.012 4.96414 279.637 4.85281C279.308 4.76375 278.979 4.56336 278.684 4.32957C278.218 3.95106 277.843 3.42783 277.639 2.9046C277.514 3.11612 277.4 3.3165 277.219 3.4501L277.105 3.50576C276.742 3.73954 276.481 3.88427 274.221 3.18291H274.21ZM277.752 2.60401C277.752 2.60401 277.73 2.60401 277.73 2.62628C277.786 2.60401 277.821 2.59288 277.752 2.60401Z" fill="#E168F8" fill-opacity="0.7"/>
<path d="M278.752 1.45731C278.513 1.37939 278.388 1.1456 278.456 0.911814C278.525 0.700294 278.786 0.566702 279.013 0.622366C280.909 1.2124 281.023 1.1456 281.182 1.03427L281.272 0.97861C281.272 0.97861 281.341 0.856151 281.42 0.722559C281.59 0.433111 281.749 0.132529 282.045 0.043468L282.067 0.0212027C282.431 -0.0678585 282.749 0.110264 282.987 0.811621C283.112 1.2124 283.43 1.6243 283.793 1.92489C283.998 2.09188 284.213 2.21433 284.418 2.28113C284.565 2.31453 284.713 2.31453 284.804 2.24773C284.872 2.21433 284.929 2.13641 284.985 2.01395C285.303 1.40165 285.428 0.989743 285.485 0.789355V0.755957C285.553 0.522172 285.61 0.399713 285.837 0.321784H285.86C286.28 0.210458 286.359 0.38858 286.462 0.76709C286.518 0.967478 286.428 1.16787 286.257 1.25693C286.189 1.52411 286.041 1.90262 285.803 2.39246C285.678 2.65964 285.485 2.86003 285.269 2.98249C284.951 3.18287 284.565 3.21627 284.179 3.10495C283.85 3.01588 283.521 2.8155 283.225 2.58171C282.76 2.2032 282.385 1.67997 282.181 1.15673C282.067 1.36825 281.942 1.56864 281.761 1.70223L281.67 1.7579C281.284 1.96942 281.023 2.13641 278.763 1.43505L278.752 1.45731ZM282.294 0.878416C282.294 0.878416 282.272 0.878417 282.272 0.900682C282.328 0.878417 282.362 0.867284 282.306 0.867284L282.283 0.889549L282.294 0.878416Z" fill="#E168F8" fill-opacity="0.7"/>
<path d="M260.856 26.528V13.3024H265.557V6.76758H271.008V13.3024H275.674V26.0939H278.116" stroke="#E168F8" stroke-opacity="0.7" stroke-width="0.75" stroke-miterlimit="10"/>
<path d="M113.992 50.3184H163.125" stroke="#E168F8" stroke-opacity="0.7" stroke-width="0.75" stroke-miterlimit="10"/>
<path d="M197.667 50.7527H261.254" stroke="#E168F8" stroke-opacity="0.7" stroke-width="0.75" stroke-miterlimit="10"/>
<path d="M289.743 50.7527H342.407" stroke="#E168F8" stroke-opacity="0.7" stroke-width="0.75" stroke-miterlimit="10"/>
<path d="M385.839 51.0088H429.669" stroke="#E168F8" stroke-opacity="0.7" stroke-width="0.75" stroke-miterlimit="10"/>
<path d="M476.872 50.9084C493.961 50.8082 510.993 50.8082 528.003 50.7637" stroke="#E168F8" stroke-opacity="0.7" stroke-width="0.75" stroke-miterlimit="10"/>
<path d="M531.966 50.9863C549.055 50.8861 568.403 50.8861 585.413 50.8416" stroke="#E168F8" stroke-opacity="0.7" stroke-width="0.75" stroke-miterlimit="10"/>
<path d="M606.192 50.9863C623.281 50.8861 640.166 50.8861 657.176 50.8416" stroke="#E168F8" stroke-opacity="0.7" stroke-width="0.75" stroke-miterlimit="10"/>
<path d="M662.898 50.9863C679.988 50.8861 679.647 50.8861 696.645 50.8416" stroke="#E168F8" stroke-opacity="0.7" stroke-width="0.75" stroke-miterlimit="10"/>
<path d="M702.527 50.9863C719.616 50.8861 737.466 50.8861 754.476 50.8416" stroke="#E168F8" stroke-opacity="0.7" stroke-width="0.75" stroke-miterlimit="10"/>
<path d="M9.30054 50.7305H73.0241" stroke="#E168F8" stroke-opacity="0.7" stroke-width="0.75" stroke-miterlimit="10"/>
<path d="M4.30432 27.8973H23.1421C24.1754 27.8973 24.7658 26.7284 24.1299 25.9268L19.8946 20.5831C19.5085 20.0933 19.5539 19.4031 19.9968 18.9689L23.4941 15.5401C24.2776 14.7719 23.7212 13.4583 22.6084 13.4583H5.55336C4.86071 13.4583 4.30432 14.0038 4.30432 14.6828V46.4109" stroke="#E168F8" stroke-opacity="0.7" stroke-width="0.75" stroke-miterlimit="10"/>
<path d="M4.94014 54.404C7.11622 54.404 8.88028 52.6745 8.88028 50.541C8.88028 48.4075 7.11622 46.678 4.94014 46.678C2.76406 46.678 1 48.4075 1 50.541C1 52.6745 2.76406 54.404 4.94014 54.404Z" stroke="#E168F8" stroke-opacity="0.7" stroke-width="0.75" stroke-miterlimit="10"/>
<path d="M27.9679 44.3069L36.0639 49.4947C36.9496 50.0625 36.995 51.3205 36.1434 51.9439L27.9565 58" stroke="#E168F8" stroke-opacity="0.7" stroke-width="0.75" stroke-miterlimit="10" stroke-linecap="round"/>
</svg>
