<svg width="99" height="54" viewBox="0 0 99 54" fill="none" xmlns="http://www.w3.org/2000/svg">
<g clip-path="url(#clip0_55014_2586)">
<path d="M59 22.8882H55.874V35.5338H59V22.8882Z" fill="white"/>
<path d="M44.4956 32.3338H25.4881C24.1814 32.3338 23.116 31.2432 23.116 29.9055V22.8882H20V30.5023C20 31.9737 20.8644 35.6676 26.4229 35.5544H44.5459L44.5057 32.3338H44.4956Z" fill="white"/>
<path d="M50.7376 32.4779C49.0088 32.4779 47.6116 31.0477 47.6116 29.2779C47.6116 27.5081 49.0088 26.0779 50.7376 26.0779H54.0144V22.8882H50.7376C47.2799 22.8882 44.4956 25.7486 44.4956 29.2779C44.4956 32.6117 46.9784 35.3281 50.1446 35.6264L49.3505 37.0773L52.2554 38.8882L54.0245 35.6676V32.4676H50.7477L50.7376 32.4779Z" fill="#D7702D"/>
<path d="M26.1717 26.3969C27.1165 26.3969 27.8804 25.6149 27.8804 24.6477C27.8804 23.6805 27.1064 22.9088 26.1717 22.9088C25.2369 22.9088 24.4629 23.6907 24.4629 24.6579C24.4629 25.6252 25.2268 26.4071 26.1717 26.4071V26.3969Z" fill="white"/>
<path d="M29.9812 26.3969C30.926 26.3969 31.6899 25.6149 31.6899 24.6477C31.6899 23.6805 30.916 22.9088 29.9812 22.9088C29.0464 22.9088 28.2724 23.6907 28.2724 24.6579C28.2724 25.6252 29.0363 26.4071 29.9812 26.4071V26.3969Z" fill="white"/>
</g>
<path d="M67.6601 19.2373C67.6601 19.2373 67.8275 17.0237 69.3349 15.3189C69.8613 14.7337 70.5312 14.3012 71.249 14.0213C73.9048 13.0036 74.7182 12.3166 75.6274 11.3751C76.5845 10.3828 76.7041 10.0775 77.1826 8.5C77.1826 10.9935 76.2256 12.9527 76.2256 12.9527C76.2256 12.9527 74.6225 16.0059 73.9526 16.5148C73.3305 16.6675 69.7416 17.2781 67.6601 19.2373Z" fill="#FEF7FF"/>
<path d="M70.1244 38.4478C70.1244 38.4478 72.8042 33.8679 70.4594 31.5016C70.1962 31.7815 68.3779 32.1886 67.0858 31.2472C65.8895 30.3567 65.6264 28.5502 66.4877 27.278C66.8466 26.7437 67.373 26.4383 67.8754 26.2602C69.1674 25.8022 70.603 26.1585 71.5839 27.1762C72.3496 27.965 73.1391 29.288 73.3545 31.4762C73.4741 32.7484 73.3545 34.0715 72.8999 35.2673C71.9189 37.9389 70.1244 38.4478 70.1244 38.4478Z" fill="#D7702D"/>
<path d="M65.3871 29.3389C65.3871 29.3389 64.3822 25.3951 70.6987 24.1993C71.249 24.0975 71.7993 23.9703 72.3496 23.7667C81.7046 20.2809 83.1881 10.994 83.1881 10.994C83.1881 10.994 79.982 16.3626 75.8428 16.8715C71.7036 17.3803 67.7558 18.6271 66.5834 22.3928C65.9852 21.1206 66.6552 17.6093 67.3251 16.388C68.33 14.607 67.8515 10.9431 64.9086 10.994C63.784 11.1721 62.9466 10.1289 62.8748 10.2306C62.8031 10.3324 65.8178 12.2661 63.9515 16.1336C62.0853 20.0011 57.6829 24.0466 65.3871 29.3389Z" fill="white"/>
<path d="M77.0391 45.0373C77.0391 45.0373 74.5747 43.0272 77.0391 38.7781C79.5034 34.529 77.5176 31.7047 77.0391 30.5089C77.4458 32.8243 75.0293 36.7172 74.0005 38.3456C73.3784 39.3124 73.2348 40.5846 73.7133 41.6533C74.5986 43.6633 77.0391 45.0373 77.0391 45.0373Z" fill="#FEF7FF"/>
<path d="M74.7422 23.4355C74.3594 23.7154 72.3974 24.6568 68.5453 25.3692C72.3974 24.7331 74.144 28.7787 74.2158 30.8142C74.2876 32.8497 74.144 35.445 72.3496 37.8367C70.603 40.5846 73.5698 42.7982 73.5698 42.7982C73.5698 42.7982 72.0385 40.7627 72.9477 38.8545C73.8569 36.9462 75.2446 35.3432 75.8428 33.1805C76.082 32.29 76.2017 31.2722 76.2495 30.3817C76.3213 29.1349 76.1777 27.8882 75.8906 26.6923C75.7231 26.0053 75.6035 25.2675 74.7422 23.4355Z" fill="#FEF7FF"/>
<defs>
<clipPath id="clip0_55014_2586">
<rect width="39" height="16" fill="white" transform="translate(20 22.8882)"/>
</clipPath>
</defs>
</svg>
