<svg width="45" height="60" viewBox="0 0 45 60" fill="none" xmlns="http://www.w3.org/2000/svg">
<path d="M23 0.5H22C10.1259 0.5 0.5 10.1259 0.5 22C0.5 33.8741 10.1259 43.5 22 43.5H23C34.8741 43.5 44.5 33.8741 44.5 22C44.5 10.1259 34.8741 0.5 23 0.5Z" stroke="#6E2C95" stroke-opacity="0.5"/>
<path d="M28.0566 18.3121C27.7262 16.651 26.9024 15.1101 25.6717 13.8956C24.0405 12.2859 21.828 11.3815 19.521 11.3815C17.214 11.3815 15.0015 12.2859 13.3703 13.8956C11.739 15.5054 10.8225 17.6887 10.8225 19.9653C10.8225 26.6416 19.521 32.3642 19.521 32.3642C19.521 32.3642 20.9925 31.3332 22.5 30" stroke="#6E2C95" stroke-width="0.5" stroke-linecap="round" stroke-linejoin="round"/>
<path d="M19.5212 22.8266C17.9198 22.8266 16.6217 21.5456 16.6217 19.9653C16.6217 18.3851 17.9198 17.104 19.5212 17.104C21.1225 17.104 22.4207 18.3851 22.4207 19.9653C22.4207 21.5456 21.1225 22.8266 19.5212 22.8266Z" stroke="#6E2C95" stroke-width="0.5" stroke-linecap="round" stroke-linejoin="round"/>
<path d="M34.5 32.7457L9.5 32.7457" stroke="#6E2C95" stroke-width="0.5" stroke-linecap="round"/>
<path d="M33.0825 11L26.3285 21.4067C25.9597 21.975 25.3283 22.3179 24.6508 22.3179H24C22.8954 22.3179 22 23.2133 22 24.3179V28.5838C22 29.6884 22.8954 30.5838 24 30.5838H26.2526M34.5 30.5838H31.9227" stroke="#6E2C95" stroke-width="0.5" stroke-linecap="round"/>
<path d="M26.768 20.7919H30.1804C31.285 20.7919 32.1804 19.8965 32.1804 18.7919V12.3988" stroke="#6E2C95" stroke-width="0.5"/>
<path d="M29.0876 27.146C27.5146 27.146 26.245 28.4034 26.2449 29.9477C26.2449 31.4921 27.5145 32.7504 29.0876 32.7504C30.6608 32.7504 31.9304 31.4921 31.9304 29.9477C31.9303 28.4034 30.6607 27.146 29.0876 27.146Z" stroke="#6E2C95" stroke-width="0.5"/>
<line opacity="0.5" x1="23" y1="44" x2="23" y2="60" stroke="#6E2C95"/>
</svg>
