<svg width="68" height="164" viewBox="0 0 68 164" fill="none" xmlns="http://www.w3.org/2000/svg">
<path d="M34 0L34 68" stroke="url(#paint0_linear_54987_255)" stroke-width="2"/>
<g filter="url(#filter0_i_54987_255)">
<mask id="path-2-inside-1_54987_255" fill="white">
<path d="M68 102C68 83.2223 52.7777 68 34 68C15.2223 68 0 83.2223 0 102C0 120.778 15.2223 136 34 136C52.7777 136 68 120.778 68 102Z"/>
</mask>
<path d="M68 102C68 83.2223 52.7777 68 34 68C15.2223 68 0 83.2223 0 102C0 120.778 15.2223 136 34 136C52.7777 136 68 120.778 68 102Z" fill="#A8A2E6" fill-opacity="0.2"/>
<path d="M34 134C51.6731 134 66 119.673 66 102H70C70 121.882 53.8823 138 34 138V134ZM2 102C2 119.673 16.3269 134 34 134V138C14.1177 138 -2 121.882 -2 102H2ZM34 70C16.3269 70 2 84.3269 2 102H-2C-2 82.1177 14.1177 66 34 66V70ZM34 66C53.8823 66 70 82.1177 70 102H66C66 84.3269 51.6731 70 34 70V66Z" fill="#D06026" mask="url(#path-2-inside-1_54987_255)"/>
<path d="M42.2373 96.9711C41.788 94.7059 40.6676 92.6047 38.9938 90.9486C36.7753 88.7535 33.7663 87.5202 30.6288 87.5202C27.4913 87.5202 24.4824 88.7535 22.2638 90.9486C20.0453 93.1438 18.7989 96.121 18.7989 99.2254C18.7989 108.329 30.6288 116.133 30.6288 116.133C30.6288 116.133 32.6301 114.727 34.6803 112.909" stroke="#D7702D" stroke-linecap="round" stroke-linejoin="round"/>
<path d="M30.6285 103.127C28.4507 103.127 26.6852 101.38 26.6852 99.2254C26.6852 97.0706 28.4507 95.3237 30.6285 95.3237C32.8063 95.3237 34.5718 97.0706 34.5718 99.2254C34.5718 101.38 32.8063 103.127 30.6285 103.127Z" stroke="#D7702D" stroke-linecap="round" stroke-linejoin="round"/>
<path d="M51 116.653L17 116.653" stroke="white" stroke-linecap="round"/>
<path d="M49.0722 87L39.6736 101.52C39.305 102.09 38.6729 102.434 37.9946 102.434H36C34.8954 102.434 34 103.329 34 104.434V111.705C34 112.81 34.8954 113.705 36 113.705H39.7835M51 113.705H47.4948" stroke="white" stroke-linecap="round"/>
<path d="M40.4844 100.353H45.8452C46.9498 100.353 47.8452 99.4572 47.8452 98.3526V88.9075" stroke="white"/>
<path d="M43.6392 109.176C41.5873 109.176 39.9331 110.821 39.9331 112.838C39.9332 114.856 41.5874 116.5 43.6392 116.5C45.6909 116.499 47.3451 114.856 47.3452 112.838C47.3452 110.821 45.691 109.176 43.6392 109.176Z" stroke="white"/>
</g>
<path d="M34 136L34 150L34 164" stroke="url(#paint1_linear_54987_255)" stroke-width="2"/>
<defs>
<filter id="filter0_i_54987_255" x="0" y="68" width="69" height="68" filterUnits="userSpaceOnUse" color-interpolation-filters="sRGB">
<feFlood flood-opacity="0" result="BackgroundImageFix"/>
<feBlend mode="normal" in="SourceGraphic" in2="BackgroundImageFix" result="shape"/>
<feColorMatrix in="SourceAlpha" type="matrix" values="0 0 0 0 0 0 0 0 0 0 0 0 0 0 0 0 0 0 127 0" result="hardAlpha"/>
<feOffset dx="1"/>
<feGaussianBlur stdDeviation="2"/>
<feComposite in2="hardAlpha" operator="arithmetic" k2="-1" k3="1"/>
<feColorMatrix type="matrix" values="0 0 0 0 0.270588 0 0 0 0 0.0941176 0 0 0 0 0.490196 0 0 0 0.2 0"/>
<feBlend mode="normal" in2="shape" result="effect1_innerShadow_54987_255"/>
</filter>
<linearGradient id="paint0_linear_54987_255" x1="33" y1="64.6" x2="30.0965" y2="0.130767" gradientUnits="userSpaceOnUse">
<stop stop-color="#D7702D"/>
<stop offset="0.383055" stop-color="#EEA575"/>
<stop offset="0.702605" stop-color="#45187D" stop-opacity="0.44"/>
</linearGradient>
<linearGradient id="paint1_linear_54987_255" x1="34" y1="168.667" x2="33.3944" y2="136.011" gradientUnits="userSpaceOnUse">
<stop offset="0.292271" stop-color="#D7702D" stop-opacity="0"/>
<stop offset="0.717294" stop-color="#EEA575"/>
<stop offset="1" stop-color="#D7702D"/>
</linearGradient>
</defs>
</svg>
