<svg width="45" height="60" viewBox="0 0 45 60" fill="none" xmlns="http://www.w3.org/2000/svg">
<path d="M23 0.5H22C10.1259 0.5 0.5 10.1259 0.5 22C0.5 33.8741 10.1259 43.5 22 43.5H23C34.8741 43.5 44.5 33.8741 44.5 22C44.5 10.1259 34.8741 0.5 23 0.5Z" stroke="#6E2C95" stroke-opacity="0.5"/>
<path d="M19.7254 30.0004H25.2721M15.8442 10H29.1533C30.7072 10 31.483 10 32.0753 10.2908C32.5958 10.5458 33.0221 10.9534 33.2873 11.4564C33.5896 12.026 33.5896 12.7745 33.5896 14.2666V21.7342C33.5896 23.2287 33.5896 23.9748 33.2873 24.5444C33.0221 25.045 32.5983 25.455 32.0753 25.71C31.483 26.0008 30.7048 26.0008 29.1533 26.0008H15.8442C14.2903 26.0008 13.5145 26.0008 12.9222 25.71C12.3993 25.455 11.9755 25.0474 11.7103 24.5444C11.4079 23.9748 11.4079 23.2263 11.4079 21.7342V14.2666C11.4079 12.7721 11.4079 12.026 11.7103 11.4564C11.9755 10.9534 12.3993 10.5458 12.9222 10.2908C13.5145 10 14.2928 10 15.8442 10ZM12.2233 34H32.7718C33.9614 34 34.5537 34 34.9131 33.7593C35.2254 33.5495 35.4336 33.2253 35.4906 32.8607C35.555 32.4459 35.2873 31.9335 34.757 30.9109L34.0432 29.5356C33.3765 28.2509 33.0419 27.6097 32.5437 27.1401C32.1026 26.7254 31.5722 26.4108 30.9898 26.2177C30.3305 25.9984 29.5845 25.9984 28.0925 25.9984H16.9075C15.4155 25.9984 14.667 25.9984 14.0102 26.2177C13.4278 26.4108 12.8974 26.7254 12.4563 27.1401C11.9581 27.6097 11.6235 28.2509 10.9568 29.5356L10.243 30.9109C9.71267 31.9335 9.445 32.4435 9.50944 32.8607C9.56397 33.223 9.77463 33.5471 10.0869 33.7593C10.4438 34 11.0386 34 12.2283 34H12.2233Z" stroke="#6E2C95" stroke-width="0.5" stroke-linecap="round" stroke-linejoin="round"/>
<path d="M29.4201 22.2483C29.0074 22.205 28.6124 22.0839 28.2656 21.8978L29.8226 17.9055C29.9264 17.6415 29.696 17.3667 29.3669 17.3667H25.0527V16.9577C25.0527 16.2805 24.4071 15.7287 23.6147 15.7287H23.1362V13.6817C23.1362 13.4545 22.9209 13.2727 22.6576 13.2727H20.7411C20.4752 13.2727 20.2626 13.4567 20.2626 13.6817V14.0907H18.8245C18.5587 14.0907 18.346 14.2746 18.346 14.4996V15.7287H17.8675C17.075 15.7287 16.4294 16.2805 16.4294 16.9577V19.0047H15.6319C15.3053 19.0047 15.0749 19.2795 15.1762 19.5435L16.2117 22.1964C16.1003 22.2202 15.9838 22.2375 15.8699 22.2505C15.6066 22.2764 15.4193 22.4798 15.4496 22.7049C15.48 22.9299 15.718 23.09 15.9813 23.0641C16.3282 23.0294 16.6649 22.9537 16.9839 22.839C17.0016 22.8347 17.0168 22.8282 17.032 22.8217C17.3257 22.7135 17.6042 22.5729 17.8599 22.4019C19.2448 23.3194 21.2626 23.3194 22.65 22.4019C24.0501 23.3389 26.0781 23.3021 27.4427 22.4019C27.9795 22.7611 28.6301 22.9927 29.3087 23.0619C29.572 23.0879 29.8099 22.9277 29.8429 22.7049C29.8732 22.4798 29.6859 22.2764 29.4251 22.2483H29.4201ZM21.2196 14.4996V14.0907H22.1791V15.7287H21.2196V14.4996ZM19.303 14.9086H20.2626V15.7287H19.303V14.9086ZM17.3865 16.9577C17.3865 16.7327 17.6017 16.5488 17.865 16.5488H23.6147C23.878 16.5488 24.0932 16.7327 24.0932 16.9577V17.7021L23.521 19.0047H17.3839V16.9577H17.3865ZM27.4301 21.4477C27.3111 21.4477 27.1921 21.4888 27.1009 21.5667C26.0047 22.5036 24.083 22.5036 22.9868 21.5667C22.7994 21.4066 22.4956 21.4066 22.3083 21.5667C21.212 22.5036 19.2904 22.5036 18.1941 21.5667C18.0067 21.4066 17.7029 21.4066 17.5156 21.5667C17.3839 21.6792 17.2421 21.7788 17.0902 21.8653L16.2953 19.8248H23.8577C24.0552 19.8248 24.2349 19.721 24.3058 19.5587L24.9084 18.1868H28.7036L27.4326 21.4477H27.4301Z" fill="#6E2C95"/>
<line opacity="0.5" x1="23" y1="44" x2="23" y2="60" stroke="#6E2C95"/>
</svg>
