<svg width="68" height="164" viewBox="0 0 68 164" fill="none" xmlns="http://www.w3.org/2000/svg">
<path d="M34 0L34 68" stroke="url(#paint0_linear_54987_751)" stroke-width="2"/>
<g filter="url(#filter0_i_54987_751)">
<mask id="path-2-inside-1_54987_751" fill="white">
<path d="M68 102C68 83.2223 52.7777 68 34 68C15.2223 68 0 83.2223 0 102C0 120.778 15.2223 136 34 136C52.7777 136 68 120.778 68 102Z"/>
</mask>
<path d="M68 102C68 83.2223 52.7777 68 34 68C15.2223 68 0 83.2223 0 102C0 120.778 15.2223 136 34 136C52.7777 136 68 120.778 68 102Z" fill="#A8A2E6" fill-opacity="0.2"/>
<path d="M34 134C51.6731 134 66 119.673 66 102H70C70 121.882 53.8823 138 34 138V134ZM2 102C2 119.673 16.3269 134 34 134V138C14.1177 138 -2 121.882 -2 102H2ZM34 70C16.3269 70 2 84.3269 2 102H-2C-2 82.1177 14.1177 66 34 66V70ZM34 66C53.8823 66 70 82.1177 70 102H66C66 84.3269 51.6731 70 34 70V66Z" fill="#D06026" mask="url(#path-2-inside-1_54987_751)"/>
<path d="M30.1583 113.001H37.8383M24.7843 85.5H43.2122C45.3639 85.5 46.438 85.5 47.2581 85.8998C47.9788 86.2505 48.569 86.811 48.9362 87.5025C49.3549 88.2858 49.3549 89.3149 49.3549 91.3665V101.635C49.3549 103.689 49.3549 104.715 48.9362 105.499C48.569 106.187 47.9822 106.751 47.2581 107.101C46.438 107.501 45.3604 107.501 43.2122 107.501H24.7843C22.6327 107.501 21.5586 107.501 20.7384 107.101C20.0144 106.751 19.4276 106.19 19.0604 105.499C18.6417 104.715 18.6417 103.686 18.6417 101.635V91.3665C18.6417 89.3116 18.6417 88.2858 19.0604 87.5025C19.4276 86.811 20.0144 86.2505 20.7384 85.8998C21.5586 85.5 22.6361 85.5 24.7843 85.5ZM19.7707 118.5H48.2224C49.8696 118.5 50.6898 118.5 51.1874 118.169C51.6197 117.881 51.908 117.435 51.9869 116.933C52.0761 116.363 51.7055 115.659 50.9712 114.253L49.9829 112.361C49.0597 110.595 48.5965 109.713 47.9067 109.068C47.2959 108.497 46.5615 108.065 45.7551 107.799C44.8423 107.498 43.8093 107.498 41.7435 107.498H26.2565C24.1907 107.498 23.1543 107.498 22.2449 107.799C21.4385 108.065 20.7041 108.497 20.0933 109.068C19.4035 109.713 18.9403 110.595 18.0171 112.361L17.0288 114.253C16.2945 115.659 15.9239 116.36 16.0131 116.933C16.0886 117.432 16.3803 117.877 16.8126 118.169C17.3068 118.5 18.1304 118.5 19.7776 118.5H19.7707Z" stroke="white" stroke-linecap="round" stroke-linejoin="round"/>
<path d="M43.5818 102.341C43.0104 102.282 42.4635 102.115 41.9833 101.859L44.1392 96.37C44.2829 96.0071 43.9639 95.6292 43.5082 95.6292H37.5347V95.0669C37.5347 94.1356 36.6408 93.3769 35.5436 93.3769H34.881V90.5623C34.881 90.2499 34.583 90 34.2185 90H31.5648C31.1967 90 30.9022 90.2529 30.9022 90.5623V91.1247H28.9111C28.543 91.1247 28.2485 91.3775 28.2485 91.687V93.3769H27.586C26.4887 93.3769 25.5948 94.1356 25.5948 95.0669V97.8815H24.4906C24.0383 97.8815 23.7193 98.2593 23.8595 98.6223L25.2933 102.27C25.1391 102.303 24.9778 102.327 24.8201 102.344C24.4555 102.38 24.1961 102.66 24.2381 102.969C24.2802 103.279 24.6097 103.499 24.9743 103.463C25.4546 103.415 25.9208 103.311 26.3625 103.154C26.3871 103.148 26.4081 103.139 26.4291 103.13C26.8358 102.981 27.2214 102.788 27.5754 102.553C29.493 103.814 32.2869 103.814 34.2079 102.553C36.1465 103.841 38.9545 103.79 40.844 102.553C41.5871 103.047 42.4881 103.365 43.4276 103.46C43.7921 103.496 44.1217 103.276 44.1672 102.969C44.2093 102.66 43.9499 102.38 43.5888 102.341H43.5818ZM32.2273 91.687V91.1247H33.5559V93.3769H32.2273V91.687ZM29.5736 92.2493H30.9022V93.3769H29.5736V92.2493ZM26.9199 95.0669C26.9199 94.7575 27.2179 94.5046 27.5824 94.5046H35.5436C35.9081 94.5046 36.2061 94.7575 36.2061 95.0669V96.0904L35.4139 97.8815H26.9164V95.0669H26.9199ZM40.8264 101.241C40.6617 101.241 40.4969 101.297 40.3707 101.404C38.8528 102.692 36.1921 102.692 34.6742 101.404C34.4148 101.184 33.9941 101.184 33.7347 101.404C32.2168 102.692 29.5561 102.692 28.0382 101.404C27.7788 101.184 27.3581 101.184 27.0987 101.404C26.9164 101.559 26.7201 101.696 26.5097 101.815L25.409 99.0091H35.8801C36.1535 99.0091 36.4024 98.8663 36.5006 98.6432L37.3349 96.7568H42.5897L40.8299 101.241H40.8264Z" fill="#D7702D"/>
</g>
<path d="M34 136L34 150L34 164" stroke="url(#paint1_linear_54987_751)" stroke-width="2"/>
<defs>
<filter id="filter0_i_54987_751" x="0" y="68" width="69" height="68" filterUnits="userSpaceOnUse" color-interpolation-filters="sRGB">
<feFlood flood-opacity="0" result="BackgroundImageFix"/>
<feBlend mode="normal" in="SourceGraphic" in2="BackgroundImageFix" result="shape"/>
<feColorMatrix in="SourceAlpha" type="matrix" values="0 0 0 0 0 0 0 0 0 0 0 0 0 0 0 0 0 0 127 0" result="hardAlpha"/>
<feOffset dx="1"/>
<feGaussianBlur stdDeviation="2"/>
<feComposite in2="hardAlpha" operator="arithmetic" k2="-1" k3="1"/>
<feColorMatrix type="matrix" values="0 0 0 0 0.270588 0 0 0 0 0.0941176 0 0 0 0 0.490196 0 0 0 0.2 0"/>
<feBlend mode="normal" in2="shape" result="effect1_innerShadow_54987_751"/>
</filter>
<linearGradient id="paint0_linear_54987_751" x1="33" y1="64.6" x2="30.0965" y2="0.130767" gradientUnits="userSpaceOnUse">
<stop stop-color="#D7702D"/>
<stop offset="0.383055" stop-color="#EEA575"/>
<stop offset="0.702605" stop-color="#45187D" stop-opacity="0.44"/>
</linearGradient>
<linearGradient id="paint1_linear_54987_751" x1="34" y1="168.667" x2="33.3944" y2="136.011" gradientUnits="userSpaceOnUse">
<stop offset="0.292271" stop-color="#D7702D" stop-opacity="0"/>
<stop offset="0.717294" stop-color="#EEA575"/>
<stop offset="1" stop-color="#D7702D"/>
</linearGradient>
</defs>
</svg>
