<svg xmlns="http://www.w3.org/2000/svg" width="45" height="60" viewBox="0 0 45 60" fill="none">
<path d="M23 0.5H22C10.1259 0.5 0.5 10.1259 0.5 22C0.5 33.8741 10.1259 43.5 22 43.5H23C34.8741 43.5 44.5 33.8741 44.5 22C44.5 10.1259 34.8741 0.5 23 0.5Z" stroke="#6E2C95" stroke-opacity="0.5"/>
<path d="M27.4942 14.2441L19.1998 16.1796V27.512L21.5655 26.951C21.507 26.7546 21.4778 26.5302 21.4486 26.3339C21.4194 26.0534 21.3902 25.7729 21.3902 25.4643C21.3902 23.7532 22.0912 22.1824 23.201 21.0323C24.2816 19.9103 25.8003 19.1529 27.465 18.9846V14.2441H27.4942ZM18.937 15.8149L27.6694 13.7672C27.6986 13.7672 27.7278 13.7672 27.7278 13.7672C27.8447 13.7672 27.9615 13.8514 27.9615 13.9916V19.181C27.9615 19.2932 27.8739 19.3773 27.7571 19.4054C26.0923 19.5176 24.6321 20.2469 23.5514 21.3409C22.5 22.4348 21.8575 23.8935 21.8575 25.4924C21.8575 25.7729 21.8867 26.0534 21.9159 26.3058C21.9451 26.5863 22.0035 26.8388 22.0912 27.0912C22.1204 27.2034 22.0327 27.3156 21.9159 27.3437L19.083 28.0169C19.0538 28.0169 19.0246 28.045 18.9954 28.045C18.8785 28.045 18.7617 27.9608 18.7617 27.8206V16.0393C18.7617 15.9271 18.8201 15.843 18.937 15.8149Z" fill="#6E2C95"/>
<path d="M10.3213 13.7672L19.0245 15.8149C19.1122 15.8429 19.1998 15.9271 19.1998 16.0112V27.7925C19.1998 27.9047 19.1122 28.0169 18.9661 28.0169C18.9369 28.0169 18.9077 28.0169 18.9077 27.9888L10.1752 25.9411C10.0876 25.9131 10 25.8289 10 25.7448V13.9635C10 13.8513 10.0876 13.7391 10.2336 13.7391C10.2629 13.7672 10.2921 13.7672 10.3213 13.7672ZM18.7617 16.1795L10.4673 14.244V25.5765L18.7617 27.512V16.1795Z" fill="#6E2C95"/>
<path d="M10.2044 13.7672L18.9369 12C18.9661 12 18.9953 12 19.0245 12L27.757 13.7672C27.8738 13.7952 27.9614 13.9074 27.9322 14.0196C27.903 14.1038 27.8446 14.1599 27.757 14.1879L19.0245 16.2356C18.9953 16.2356 18.9369 16.2356 18.9369 16.2356L10.1752 14.1879C10.0584 14.1599 9.99997 14.0477 10.0292 13.9355C10.0584 13.8233 10.1168 13.7672 10.2044 13.7672ZM18.9661 12.4208L11.2266 13.9916L18.9661 15.8149L26.7056 13.9916L18.9661 12.4208Z" fill="#6E2C95"/>
<path d="M12.1904 24.3983C12.1904 24.5105 12.1028 24.6227 11.9568 24.6227C11.84 24.6227 11.7231 24.5386 11.7231 24.3983V15.8709C11.7231 15.7587 11.8108 15.6465 11.9568 15.6465C12.0736 15.6465 12.1904 15.7307 12.1904 15.8709V24.3983Z" fill="#6E2C95"/>
<path d="M13.9136 23.0239C13.9136 23.1361 13.826 23.2483 13.6799 23.2483C13.5631 23.2483 13.4463 23.1641 13.4463 23.0239V17.2174C13.4463 17.1052 13.5339 16.993 13.6799 16.993C13.7968 16.993 13.9136 17.0771 13.9136 17.2174V23.0239Z" fill="#6E2C95"/>
<path d="M28.195 18.9284C30.0642 18.9284 31.7873 19.6577 33.014 20.8358C34.2406 22.014 35 23.6409 35 25.4642C35 27.2875 34.2406 28.9144 33.014 30.0925C31.7873 31.2707 30.0934 32 28.195 32C26.2967 32 24.6028 31.2707 23.3761 30.0925C22.1495 28.9144 21.3901 27.2875 21.3901 25.4642C21.3901 23.669 22.1495 22.014 23.3761 20.8358C24.6028 19.6577 26.3259 18.9284 28.195 18.9284ZM32.6635 21.1444C31.5245 20.0504 29.9182 19.3492 28.195 19.3492C26.4427 19.3492 24.8656 20.0504 23.6974 21.1444C22.5584 22.2384 21.8282 23.7812 21.8282 25.4642C21.8282 27.1472 22.5292 28.662 23.6974 29.784C24.8364 30.878 26.4427 31.5792 28.195 31.5792C29.9474 31.5792 31.5245 30.906 32.6635 29.784C33.8025 28.69 34.5327 27.1472 34.5327 25.4642C34.5327 23.7812 33.8317 22.2384 32.6635 21.1444Z" fill="#6E2C95"/>
<path d="M23.7851 25.5203C23.7267 25.4081 23.7559 25.2959 23.8727 25.2118C23.9895 25.1557 24.1355 25.1837 24.1939 25.2959L25.9463 28.2132L32.2255 22.1823C32.3131 22.0982 32.4591 22.0982 32.5468 22.1823C32.6344 22.2665 32.6344 22.4067 32.5468 22.4909L26.0631 28.7181L26.0047 28.7742C25.8879 28.8303 25.7418 28.8023 25.6834 28.6901L23.7851 25.5203Z" fill="#6E2C95"/>
<line opacity="0.5" x1="23" y1="44" x2="23" y2="60" stroke="#6E2C95"/>
</svg>