<svg width="68" height="164" viewBox="0 0 68 164" fill="none" xmlns="http://www.w3.org/2000/svg">
<path d="M34 0L34 68" stroke="url(#paint0_linear_54987_735)" stroke-width="2"/>
<g filter="url(#filter0_i_54987_735)">
<mask id="path-2-inside-1_54987_735" fill="white">
<path d="M68 102C68 83.2223 52.7777 68 34 68C15.2223 68 0 83.2223 0 102C0 120.778 15.2223 136 34 136C52.7777 136 68 120.778 68 102Z"/>
</mask>
<path d="M68 102C68 83.2223 52.7777 68 34 68C15.2223 68 0 83.2223 0 102C0 120.778 15.2223 136 34 136C52.7777 136 68 120.778 68 102Z" fill="white" fill-opacity="0.2"/>
<path d="M34 136V134C51.6731 134 66 119.673 66 102H68H70C70 121.882 53.8823 138 34 138V136ZM0 102H2C2 119.673 16.3269 134 34 134V136V138C14.1177 138 -2 121.882 -2 102H0ZM34 68V70C16.3269 70 2 84.3269 2 102H0H-2C-2 82.1177 14.1177 66 34 66V68ZM34 68V66C53.8823 66 70 82.1177 70 102H68H66C66 84.3269 51.6731 70 34 70V68Z" fill="#D06026" mask="url(#path-2-inside-1_54987_735)"/>
<path d="M40.9918 91.1417L29.3797 93.8514V109.717L32.6916 108.931C32.6098 108.656 32.5689 108.342 32.528 108.067C32.4872 107.675 32.4463 107.282 32.4463 106.85C32.4463 104.454 33.4276 102.255 34.9813 100.645C36.4942 99.0744 38.6203 98.0141 40.9509 97.7784V91.1417H40.9918ZM29.0117 93.3408L41.2372 90.4741C41.278 90.4741 41.3189 90.4741 41.3189 90.4741C41.4825 90.4741 41.646 90.5919 41.646 90.7882V98.0533C41.646 98.2104 41.5234 98.3282 41.3598 98.3675C39.0292 98.5246 36.9848 99.5456 35.472 101.077C34 102.609 33.1005 104.651 33.1005 106.889C33.1005 107.282 33.1414 107.675 33.1822 108.028C33.2231 108.421 33.3049 108.774 33.4276 109.128C33.4685 109.285 33.3458 109.442 33.1822 109.481L29.2161 110.424C29.1752 110.424 29.1343 110.463 29.0935 110.463C28.9299 110.463 28.7664 110.345 28.7664 110.149V93.655C28.7664 93.4979 28.8481 93.3801 29.0117 93.3408Z" fill="#7335A3" stroke="#7335A3" stroke-width="0.5"/>
<path d="M16.9498 90.4741L29.1344 93.3408C29.257 93.3801 29.3797 93.4979 29.3797 93.6157V110.109C29.3797 110.267 29.257 110.424 29.0526 110.424C29.0117 110.424 28.9708 110.424 28.9708 110.384L16.7453 107.518C16.6227 107.478 16.5 107.361 16.5 107.243V90.749C16.5 90.5919 16.6227 90.4348 16.8271 90.4348C16.868 90.4741 16.9089 90.4741 16.9498 90.4741ZM28.7664 93.8514L17.1542 91.1417V107.007L28.7664 109.717V93.8514Z" fill="#7335A3" stroke="#7335A3" stroke-width="0.5"/>
<path d="M16.7863 90.4741L29.0117 88C29.0526 88 29.0935 88 29.1344 88L41.3599 90.4741C41.5234 90.5133 41.6461 90.6704 41.6052 90.8275C41.5643 90.9453 41.4825 91.0239 41.3599 91.0631L29.1344 93.9299C29.0935 93.9299 29.0117 93.9299 29.0117 93.9299L16.7454 91.0631C16.5818 91.0239 16.5 90.8668 16.5409 90.7097C16.5818 90.5526 16.6636 90.4741 16.7863 90.4741ZM29.0526 88.5891L18.2173 90.7882L29.0526 93.3408L39.8879 90.7882L29.0526 88.5891Z" fill="#7335A3" stroke="#7335A3" stroke-width="0.5"/>
<path d="M19.5666 105.358C19.5666 105.515 19.4439 105.672 19.2395 105.672C19.0759 105.672 18.9124 105.554 18.9124 105.358V93.4193C18.9124 93.2622 19.035 93.1052 19.2395 93.1052C19.403 93.1052 19.5666 93.223 19.5666 93.4193V105.358Z" fill="#7335A3"/>
<path d="M21.9789 103.433C21.9789 103.59 21.8562 103.748 21.6518 103.748C21.4883 103.748 21.3247 103.63 21.3247 103.433V95.3043C21.3247 95.1473 21.4474 94.9902 21.6518 94.9902C21.8154 94.9902 21.9789 95.108 21.9789 95.3043V103.433Z" fill="#7335A3"/>
<path d="M41.9732 97.6998C44.59 97.6998 47.0024 98.7208 48.7197 100.37C50.437 102.02 51.5 104.297 51.5 106.85C51.5 109.402 50.437 111.68 48.7197 113.33C47.0024 114.979 44.6309 116 41.9732 116C39.3155 116 36.944 114.979 35.2267 113.33C33.5094 111.68 32.4463 109.402 32.4463 106.85C32.4463 104.337 33.5094 102.02 35.2267 100.37C36.944 98.7208 39.3563 97.6998 41.9732 97.6998ZM48.229 100.802C46.6344 99.2706 44.3855 98.2889 41.9732 98.2889C39.5199 98.2889 37.3119 99.2706 35.6764 100.802C34.0818 102.334 33.0596 104.494 33.0596 106.85C33.0596 109.206 34.0409 111.327 35.6764 112.898C37.2711 114.429 39.5199 115.411 41.9732 115.411C44.4264 115.411 46.6344 114.468 48.229 112.898C49.8236 111.366 50.8458 109.206 50.8458 106.85C50.8458 104.494 49.8645 102.334 48.229 100.802Z" fill="#7335A3" stroke="#7335A3" stroke-width="0.5"/>
<path d="M35.7989 106.928C35.7172 106.771 35.7581 106.614 35.9216 106.496C36.0852 106.418 36.2896 106.457 36.3714 106.614L38.8246 110.698L47.6155 102.255C47.7382 102.137 47.9426 102.137 48.0653 102.255C48.188 102.373 48.188 102.569 48.0653 102.687L38.9882 111.405L38.9064 111.484C38.7429 111.562 38.5384 111.523 38.4567 111.366L35.7989 106.928Z" fill="#D06026" stroke="#D06026" stroke-width="0.5"/>
</g>
<path d="M34 136L34 150L34 164" stroke="url(#paint1_linear_54987_735)" stroke-width="2"/>
<defs>
<filter id="filter0_i_54987_735" x="0" y="68" width="69" height="68" filterUnits="userSpaceOnUse" color-interpolation-filters="sRGB">
<feFlood flood-opacity="0" result="BackgroundImageFix"/>
<feBlend mode="normal" in="SourceGraphic" in2="BackgroundImageFix" result="shape"/>
<feColorMatrix in="SourceAlpha" type="matrix" values="0 0 0 0 0 0 0 0 0 0 0 0 0 0 0 0 0 0 127 0" result="hardAlpha"/>
<feOffset dx="1"/>
<feGaussianBlur stdDeviation="2"/>
<feComposite in2="hardAlpha" operator="arithmetic" k2="-1" k3="1"/>
<feColorMatrix type="matrix" values="0 0 0 0 0.270588 0 0 0 0 0.0941176 0 0 0 0 0.490196 0 0 0 0.2 0"/>
<feBlend mode="normal" in2="shape" result="effect1_innerShadow_54987_735"/>
</filter>
<linearGradient id="paint0_linear_54987_735" x1="33" y1="64.6" x2="30.0965" y2="0.130767" gradientUnits="userSpaceOnUse">
<stop stop-color="#D7702D"/>
<stop offset="0.383055" stop-color="#EEA575"/>
<stop offset="0.702605" stop-color="#45187D" stop-opacity="0.44"/>
</linearGradient>
<linearGradient id="paint1_linear_54987_735" x1="34" y1="168.667" x2="33.3944" y2="136.011" gradientUnits="userSpaceOnUse">
<stop offset="0.292271" stop-color="#D7702D" stop-opacity="0"/>
<stop offset="0.717294" stop-color="#EEA575"/>
<stop offset="1" stop-color="#D7702D"/>
</linearGradient>
</defs>
</svg>
