<svg width="45" height="60" viewBox="0 0 45 60" fill="none" xmlns="http://www.w3.org/2000/svg">
<path d="M23 0.5H22C10.1259 0.5 0.5 10.1259 0.5 22C0.5 33.8741 10.1259 43.5 22 43.5H23C34.8741 43.5 44.5 33.8741 44.5 22C44.5 10.1259 34.8741 0.5 23 0.5Z" stroke="#6E2C95" stroke-opacity="0.5"/>
<path d="M35.3114 17.1581L22.7346 8.62103C22.5931 8.52419 22.4045 8.52419 22.263 8.62103L9.68371 17.1581C9.56703 17.2376 9.5 17.3667 9.5 17.5058V35.0294C9.5 35.2629 9.68868 35.4516 9.92204 35.4516H35.078C35.3114 35.4516 35.5001 35.2629 35.5001 35.0294V17.5058C35.5001 17.3667 35.4306 17.2351 35.3164 17.1581H35.3114ZM19.3832 34.6073H14.8351V30.0582H15.7884V32.3327C15.7884 32.5662 15.9771 32.7549 16.2104 32.7549H18.0078C18.2412 32.7549 18.4298 32.5662 18.4298 32.3327V30.0582H19.3832V34.6073ZM13.9364 19.3334V18.3799H31.0612V19.3334H13.9364ZM16.63 31.9131V30.0606H17.5833V31.9131H16.63ZM19.3832 29.2164H14.8351V24.6672H15.7884V26.9418C15.7884 27.1752 15.9771 27.3639 16.2104 27.3639H18.0078C18.2412 27.3639 18.4298 27.1752 18.4298 26.9418V24.6672H19.3832V29.2164ZM16.63 26.5221V24.6697H17.5833V26.5221H16.63ZM24.7728 34.6073H20.2248V30.0582H21.1781V32.3327C21.1781 32.5662 21.3667 32.7549 21.6001 32.7549H23.3975C23.6309 32.7549 23.8195 32.5662 23.8195 32.3327V30.0582H24.7728V34.6073ZM22.0221 31.9131V30.0606H22.9755V31.9131H22.0221ZM34.656 34.6073H31.0066V23.4499C31.0066 23.2165 30.8179 23.0278 30.5846 23.0278C30.3512 23.0278 30.1625 23.2165 30.1625 23.4499V34.6073H25.6144V29.636C25.6144 29.4026 25.4258 29.2139 25.1924 29.2139H20.2223V24.2426C20.2223 24.0092 20.0336 23.8205 19.8002 23.8205H14.8301V20.1702H30.16V23.7931C30.16 24.0266 30.3487 24.2153 30.5821 24.2153C30.8154 24.2153 31.0041 24.0266 31.0041 23.7931V20.1702H31.4808C31.7141 20.1702 31.9028 19.9815 31.9028 19.7481V17.9503C31.9028 17.7169 31.7141 17.5281 31.4808 17.5281H13.5143C13.281 17.5281 13.0923 17.7169 13.0923 17.9503V19.7481C13.0923 19.9815 13.281 20.1702 13.5143 20.1702H13.991V34.6048H10.3416V17.7293L22.4988 9.48021L34.656 17.7317V34.6098V34.6073Z" fill="#6E2C95"/>
<path d="M24.2959 12.1448H20.7011C20.4677 12.1448 20.2791 12.3335 20.2791 12.5669C20.2791 12.8003 20.4677 12.989 20.7011 12.989H24.2959C24.5292 12.989 24.7179 12.8003 24.7179 12.5669C24.7179 12.3335 24.5292 12.1448 24.2959 12.1448Z" fill="#6E2C95"/>
<path d="M24.2959 13.9399H20.7011C20.4677 13.9399 20.2791 14.1287 20.2791 14.3621C20.2791 14.5955 20.4677 14.7842 20.7011 14.7842H24.2959C24.5292 14.7842 24.7179 14.5955 24.7179 14.3621C24.7179 14.1287 24.5292 13.9399 24.2959 13.9399Z" fill="#6E2C95"/>
<path d="M24.2959 15.738H20.7011C20.4677 15.738 20.2791 15.9267 20.2791 16.1601C20.2791 16.3935 20.4677 16.5823 20.7011 16.5823H24.2959C24.5292 16.5823 24.7179 16.3935 24.7179 16.1601C24.7179 15.9267 24.5292 15.738 24.2959 15.738Z" fill="#6E2C95"/>
<line opacity="0.5" x1="23" y1="44" x2="23" y2="60" stroke="#6E2C95"/>
</svg>
