<svg width="71" height="164" viewBox="0 0 71 164" fill="none" xmlns="http://www.w3.org/2000/svg">
<path d="M37 0L37 68" stroke="url(#paint0_linear_54987_1008)" stroke-width="2"/>
<g filter="url(#filter0_i_54987_1008)">
<mask id="path-2-inside-1_54987_1008" fill="white">
<path d="M71 102C71 83.2223 55.7777 68 37 68C18.2223 68 3 83.2223 3 102C3 120.778 18.2223 136 37 136C55.7777 136 71 120.778 71 102Z"/>
</mask>
<path d="M71 102C71 83.2223 55.7777 68 37 68C18.2223 68 3 83.2223 3 102C3 120.778 18.2223 136 37 136C55.7777 136 71 120.778 71 102Z" fill="#A8A2E6" fill-opacity="0.2"/>
<path d="M37 134C54.6731 134 69 119.673 69 102H73C73 121.882 56.8823 138 37 138V134ZM5 102C5 119.673 19.3269 134 37 134V138C17.1177 138 1 121.882 1 102H5ZM37 70C19.3269 70 5 84.3269 5 102H1C1 82.1177 17.1177 66 37 66V70ZM37 66C56.8823 66 73 82.1177 73 102H69C69 84.3269 54.6731 70 37 70V66Z" fill="#D06026" mask="url(#path-2-inside-1_54987_1008)"/>
<path d="M52.7677 96.0408L37.2887 85.5337C37.1145 85.4145 36.8823 85.4145 36.7082 85.5337L21.2261 96.0408C21.0825 96.1386 21 96.2975 21 96.4687V118.036C21 118.323 21.2322 118.556 21.5194 118.556H52.4805C52.7677 118.556 52.9999 118.323 52.9999 118.036V96.4687C52.9999 96.2975 52.9144 96.1356 52.7738 96.0408H52.7677ZM33.1638 117.517H27.5662V111.918H28.7395V114.717C28.7395 115.004 28.9717 115.237 29.2589 115.237H31.4711C31.7583 115.237 31.9905 115.004 31.9905 114.717V111.918H33.1638V117.517ZM26.4601 98.718V97.5445H47.5367V98.718H26.4601ZM29.7753 114.201V111.921H30.9486V114.201H29.7753ZM33.1638 110.882H27.5662V105.283H28.7395V108.082C28.7395 108.369 28.9717 108.602 29.2589 108.602H31.4711C31.7583 108.602 31.9905 108.369 31.9905 108.082V105.283H33.1638V110.882ZM29.7753 107.566V105.286H30.9486V107.566H29.7753ZM39.7972 117.517H34.1996V111.918H35.3729V114.717C35.3729 115.004 35.6051 115.237 35.8924 115.237H38.1045C38.3917 115.237 38.6239 115.004 38.6239 114.717V111.918H39.7972V117.517ZM36.4118 114.201V111.921H37.5851V114.201H36.4118ZM51.9611 117.517H47.4695V103.785C47.4695 103.497 47.2373 103.265 46.9501 103.265C46.6629 103.265 46.4307 103.497 46.4307 103.785V117.517H40.833V111.398C40.833 111.111 40.6008 110.879 40.3136 110.879H34.1966V104.76C34.1966 104.473 33.9644 104.241 33.6771 104.241H27.5601V99.748H46.4276V104.207C46.4276 104.494 46.6598 104.726 46.947 104.726C47.2343 104.726 47.4665 104.494 47.4665 104.207V99.748H48.0531C48.3403 99.748 48.5725 99.5157 48.5725 99.2284V97.0157C48.5725 96.7285 48.3403 96.4962 48.0531 96.4962H25.9407C25.6535 96.4962 25.4213 96.7285 25.4213 97.0157V99.2284C25.4213 99.5157 25.6535 99.748 25.9407 99.748H26.5273V117.514H22.0358V96.7437L36.9984 86.5911L51.9611 96.7468V117.52V117.517Z" fill="white" stroke="#190737" stroke-width="0.5" stroke-miterlimit="10"/>
<path d="M39.2094 89.8705H34.7851C34.4978 89.8705 34.2656 90.1028 34.2656 90.3901C34.2656 90.6774 34.4978 90.9096 34.7851 90.9096H39.2094C39.4966 90.9096 39.7288 90.6774 39.7288 90.3901C39.7288 90.1028 39.4966 89.8705 39.2094 89.8705Z" fill="#D7702D" stroke="#190737" stroke-width="0.5" stroke-miterlimit="10"/>
<path d="M39.2094 92.08H34.7851C34.4978 92.08 34.2656 92.3123 34.2656 92.5996C34.2656 92.8868 34.4978 93.1191 34.7851 93.1191H39.2094C39.4966 93.1191 39.7288 92.8868 39.7288 92.5996C39.7288 92.3123 39.4966 92.08 39.2094 92.08Z" fill="#D7702D" stroke="#190737" stroke-width="0.5" stroke-miterlimit="10"/>
<path d="M39.2094 94.2929H34.7851C34.4978 94.2929 34.2656 94.5252 34.2656 94.8125C34.2656 95.0997 34.4978 95.332 34.7851 95.332H39.2094C39.4966 95.332 39.7288 95.0997 39.7288 94.8125C39.7288 94.5252 39.4966 94.2929 39.2094 94.2929Z" fill="#D7702D" stroke="#190737" stroke-width="0.5" stroke-miterlimit="10"/>
</g>
<path d="M37 136L37 150L37 164" stroke="url(#paint1_linear_54987_1008)" stroke-width="2"/>
<defs>
<filter id="filter0_i_54987_1008" x="3" y="68" width="69" height="68" filterUnits="userSpaceOnUse" color-interpolation-filters="sRGB">
<feFlood flood-opacity="0" result="BackgroundImageFix"/>
<feBlend mode="normal" in="SourceGraphic" in2="BackgroundImageFix" result="shape"/>
<feColorMatrix in="SourceAlpha" type="matrix" values="0 0 0 0 0 0 0 0 0 0 0 0 0 0 0 0 0 0 127 0" result="hardAlpha"/>
<feOffset dx="1"/>
<feGaussianBlur stdDeviation="2"/>
<feComposite in2="hardAlpha" operator="arithmetic" k2="-1" k3="1"/>
<feColorMatrix type="matrix" values="0 0 0 0 0.270588 0 0 0 0 0.0941176 0 0 0 0 0.490196 0 0 0 0.2 0"/>
<feBlend mode="normal" in2="shape" result="effect1_innerShadow_54987_1008"/>
</filter>
<linearGradient id="paint0_linear_54987_1008" x1="36" y1="64.6" x2="33.0965" y2="0.130767" gradientUnits="userSpaceOnUse">
<stop stop-color="#D7702D"/>
<stop offset="0.383055" stop-color="#EEA575"/>
<stop offset="0.702605" stop-color="#45187D" stop-opacity="0.44"/>
</linearGradient>
<linearGradient id="paint1_linear_54987_1008" x1="37" y1="168.667" x2="36.3944" y2="136.011" gradientUnits="userSpaceOnUse">
<stop offset="0.292271" stop-color="#D7702D" stop-opacity="0"/>
<stop offset="0.717294" stop-color="#EEA575"/>
<stop offset="1" stop-color="#D7702D"/>
</linearGradient>
</defs>
</svg>
