<svg width="68" height="164" viewBox="0 0 68 164" fill="none" xmlns="http://www.w3.org/2000/svg">
<path d="M34 0L34 68" stroke="url(#paint0_linear_54987_185)" stroke-width="2"/>
<g filter="url(#filter0_i_54987_185)">
<mask id="path-2-inside-1_54987_185" fill="white">
<path d="M68 102C68 83.2223 52.7777 68 34 68C15.2223 68 0 83.2223 0 102C0 120.778 15.2223 136 34 136C52.7777 136 68 120.778 68 102Z"/>
</mask>
<path d="M68 102C68 83.2223 52.7777 68 34 68C15.2223 68 0 83.2223 0 102C0 120.778 15.2223 136 34 136C52.7777 136 68 120.778 68 102Z" fill="#A8A2E6" fill-opacity="0.2"/>
<path d="M34 134C51.6731 134 66 119.673 66 102H70C70 121.882 53.8823 138 34 138V134ZM2 102C2 119.673 16.3269 134 34 134V138C14.1177 138 -2 121.882 -2 102H2ZM34 70C16.3269 70 2 84.3269 2 102H-2C-2 82.1177 14.1177 66 34 66V70ZM34 66C53.8823 66 70 82.1177 70 102H66C66 84.3269 51.6731 70 34 70V66Z" fill="#D06026" mask="url(#path-2-inside-1_54987_185)"/>
<path d="M25.8454 93.1746H23.1455V108.279H23.6624" stroke="white" stroke-miterlimit="10"/>
<path d="M44.1008 108.279H44.6177V93.1746H41.6963" stroke="white" stroke-miterlimit="10"/>
<path d="M30.4302 91.7552H29.1571C27.3847 92.0194 25.2432 92.9921 24.8651 94.7864L23.6628 108.288C22.5079 108.279 21.6571 108.848 21.1077 109.992V115.3H20V118.9H22.4576L22.3602 121.249C22.3602 121.74 26.986 121.74 26.986 121.249V118.946H40.6743V121.249C42.1926 121.737 43.7346 121.74 45.3001 121.249V118.711H48V115.207H46.5053V109.617C45.8821 108.726 45.0579 108.328 44.0949 108.291L43.1674 95.0245C42.7952 93.3783 40.3317 92.3446 38.7454 91.7552H37.5609" stroke="white" stroke-miterlimit="10"/>
<path d="M41.1752 99.0487H26.5859V103.976H41.1752V99.0487Z" stroke="white" stroke-miterlimit="10"/>
<path d="M37.6288 106.235H29.9841C28.0265 106.235 26.4395 107.795 26.4395 109.719V110.837C26.4395 112.761 28.0265 114.321 29.9841 114.321H37.6288C39.5865 114.321 41.1735 112.761 41.1735 110.837V109.719C41.1735 107.795 39.5865 106.235 37.6288 106.235Z" stroke="white" stroke-miterlimit="10"/>
<path d="M23.4219 112.033V113.958C23.4219 114.393 23.7803 114.745 24.2224 114.745H24.4203C24.8624 114.745 25.2208 114.393 25.2208 113.958V112.033C25.2208 111.599 24.8624 111.246 24.4203 111.246H24.2224C23.7803 111.246 23.4219 111.599 23.4219 112.033Z" stroke="#D7702D" stroke-miterlimit="10"/>
<path d="M42.4082 112.033V113.958C42.4082 114.393 42.7666 114.745 43.2087 114.745H43.4066C43.8487 114.745 44.2071 114.393 44.2071 113.958V112.033C44.2071 111.599 43.8487 111.246 43.4066 111.246H43.2087C42.7666 111.246 42.4082 111.599 42.4082 112.033Z" stroke="#D7702D" stroke-miterlimit="10"/>
<mask id="path-11-inside-2_54987_185" fill="white">
<path d="M34.1102 82.3831C31.2893 82.3831 29 84.6304 29 87.4062C29 88.5937 29.5317 89.639 30.1225 90.5448L33.7617 95.5998C33.8414 95.7101 33.9714 95.7769 34.1102 95.7769C34.2491 95.7769 34.379 95.7101 34.4588 95.5998L38.098 90.5448C38.6622 89.7986 39.2205 88.5937 39.2205 87.4062C39.2205 84.6333 36.9342 82.3831 34.1102 82.3831ZM30.6394 90.4752C30.1225 89.7319 29.4283 88.5821 29.4283 87.4062C29.4283 84.8627 31.5256 82.8041 34.1102 82.8041C36.6949 82.8041 38.7922 84.8656 38.7922 87.4062C38.7922 88.6198 38.0005 89.8712 37.5338 90.5448L34.1102 95.1469L30.6867 90.5448C30.6719 90.5216 30.6542 90.4984 30.6394 90.4752Z"/>
</mask>
<path d="M34.1102 82.3831C31.2893 82.3831 29 84.6304 29 87.4062C29 88.5937 29.5317 89.639 30.1225 90.5448L33.7617 95.5998C33.8414 95.7101 33.9714 95.7769 34.1102 95.7769C34.2491 95.7769 34.379 95.7101 34.4588 95.5998L38.098 90.5448C38.6622 89.7986 39.2205 88.5937 39.2205 87.4062C39.2205 84.6333 36.9342 82.3831 34.1102 82.3831ZM30.6394 90.4752C30.1225 89.7319 29.4283 88.5821 29.4283 87.4062C29.4283 84.8627 31.5256 82.8041 34.1102 82.8041C36.6949 82.8041 38.7922 84.8656 38.7922 87.4062C38.7922 88.6198 38.0005 89.8712 37.5338 90.5448L34.1102 95.1469L30.6867 90.5448C30.6719 90.5216 30.6542 90.4984 30.6394 90.4752Z" fill="#706EB8" fill-opacity="0.3"/>
<path d="M30.1225 90.5448L29.2849 91.0911L29.2975 91.1104L29.3109 91.1291L30.1225 90.5448ZM33.7617 95.5998L32.9501 96.1841L32.9513 96.1856L33.7617 95.5998ZM34.4588 95.5998L35.2692 96.1856L35.2704 96.1841L34.4588 95.5998ZM38.098 90.5448L37.3003 89.9417L37.2933 89.9511L37.2864 89.9606L38.098 90.5448ZM30.6394 90.4752L31.4833 89.9386L31.4722 89.9212L31.4604 89.9042L30.6394 90.4752ZM37.5338 90.5448L38.3361 91.1417L38.3462 91.1282L38.3558 91.1144L37.5338 90.5448ZM34.1102 95.1469L33.3079 95.7437L34.1102 96.8223L34.9126 95.7437L34.1102 95.1469ZM30.6867 90.5448L29.8428 91.0814L29.8625 91.1123L29.8843 91.1417L30.6867 90.5448ZM34.1102 81.3831C30.7537 81.3831 28 84.0616 28 87.4062H30C30 85.1992 31.8249 83.3831 34.1102 83.3831V81.3831ZM28 87.4062C28 88.8914 28.6644 90.1396 29.2849 91.0911L30.9601 89.9986C30.399 89.1383 30 88.296 30 87.4062H28ZM29.3109 91.1291L32.9501 96.1841L34.5732 95.0156L30.934 89.9606L29.3109 91.1291ZM32.9513 96.1856C33.22 96.5574 33.6521 96.7769 34.1102 96.7769V94.7769C34.2907 94.7769 34.4629 94.8629 34.5721 95.014L32.9513 96.1856ZM34.1102 96.7769C34.5684 96.7769 35.0005 96.5574 35.2692 96.1856L33.6484 95.014C33.7576 94.8629 33.9298 94.7769 34.1102 94.7769V96.7769ZM35.2704 96.1841L38.9096 91.1291L37.2864 89.9606L33.6472 95.0156L35.2704 96.1841ZM38.8957 91.1479C39.55 90.2826 40.2205 88.871 40.2205 87.4062H38.2205C38.2205 88.3164 37.7744 89.3147 37.3003 89.9417L38.8957 91.1479ZM40.2205 87.4062C40.2205 84.0653 37.4705 81.3831 34.1102 81.3831V83.3831C36.3978 83.3831 38.2205 85.2014 38.2205 87.4062H40.2205ZM31.4604 89.9042C30.9458 89.1643 30.4283 88.2424 30.4283 87.4062H28.4283C28.4283 88.9218 29.2992 90.2994 29.8184 91.0461L31.4604 89.9042ZM30.4283 87.4062C30.4283 85.4316 32.0612 83.8041 34.1102 83.8041V81.8041C30.99 81.8041 28.4283 84.2939 28.4283 87.4062H30.4283ZM34.1102 83.8041C36.1589 83.8041 37.7922 85.4341 37.7922 87.4062H39.7922C39.7922 84.2972 37.2309 81.8041 34.1102 81.8041V83.8041ZM37.7922 87.4062C37.7922 87.8082 37.6571 88.2727 37.4319 88.7549C37.2108 89.2285 36.933 89.6562 36.7118 89.9753L38.3558 91.1144C38.6014 90.7599 38.9527 90.2251 39.2441 89.6011C39.5314 88.9859 39.7922 88.2178 39.7922 87.4062H37.7922ZM36.7315 89.948L33.3079 94.55L34.9126 95.7437L38.3361 91.1417L36.7315 89.948ZM34.9126 94.55L31.489 89.948L29.8843 91.1417L33.3079 95.7437L34.9126 94.55ZM31.5305 90.0083C31.519 89.9901 31.5085 89.9745 31.5007 89.9631C31.4932 89.9521 31.486 89.9419 31.4825 89.9368C31.4803 89.9338 31.4791 89.932 31.4779 89.9303C31.4769 89.9288 31.4765 89.9283 31.4765 89.9283C31.4765 89.9283 31.4772 89.9293 31.4783 89.9309C31.4794 89.9326 31.4811 89.9352 31.4833 89.9386L29.7956 91.0117C29.8071 91.0299 29.8176 91.0455 29.8254 91.0569C29.8329 91.0679 29.8401 91.0781 29.8436 91.0832C29.8458 91.0862 29.847 91.088 29.8481 91.0897C29.8492 91.0912 29.8496 91.0917 29.8496 91.0917C29.8496 91.0917 29.8489 91.0907 29.8478 91.0891C29.8467 91.0875 29.845 91.0848 29.8428 91.0814L31.5305 90.0083Z" fill="#D7702D" mask="url(#path-11-inside-2_54987_185)"/>
<mask id="path-13-inside-3_54987_185" fill="white">
<path d="M34.1102 85.3128C32.9346 85.3128 31.9805 86.2506 31.9805 87.4062C31.9805 88.5618 32.9346 89.4997 34.1102 89.4997C35.2859 89.4997 36.24 88.5618 36.24 87.4062C36.24 86.2506 35.2859 85.3128 34.1102 85.3128ZM34.1102 89.0786C33.1709 89.0786 32.4058 88.3295 32.4058 87.4033C32.4058 86.4771 33.1679 85.728 34.1102 85.728C35.0525 85.728 35.8146 86.4771 35.8146 87.4033C35.8146 88.3295 35.0525 89.0786 34.1102 89.0786Z"/>
</mask>
<path d="M34.1102 85.3128C32.9346 85.3128 31.9805 86.2506 31.9805 87.4062C31.9805 88.5618 32.9346 89.4997 34.1102 89.4997C35.2859 89.4997 36.24 88.5618 36.24 87.4062C36.24 86.2506 35.2859 85.3128 34.1102 85.3128ZM34.1102 89.0786C33.1709 89.0786 32.4058 88.3295 32.4058 87.4033C32.4058 86.4771 33.1679 85.728 34.1102 85.728C35.0525 85.728 35.8146 86.4771 35.8146 87.4033C35.8146 88.3295 35.0525 89.0786 34.1102 89.0786Z" fill="#706EB8" fill-opacity="0.3"/>
<path d="M34.1102 84.3128C32.3986 84.3128 30.9805 85.6822 30.9805 87.4062H32.9805C32.9805 86.8191 33.4706 86.3128 34.1102 86.3128V84.3128ZM30.9805 87.4062C30.9805 89.1303 32.3986 90.4997 34.1102 90.4997V88.4997C33.4706 88.4997 32.9805 87.9934 32.9805 87.4062H30.9805ZM34.1102 90.4997C35.8219 90.4997 37.24 89.1303 37.24 87.4062H35.24C35.24 87.9934 34.7499 88.4997 34.1102 88.4997V90.4997ZM37.24 87.4062C37.24 85.6822 35.8219 84.3128 34.1102 84.3128V86.3128C34.7499 86.3128 35.24 86.8191 35.24 87.4062H37.24ZM34.1102 88.0786C33.7057 88.0786 33.4058 87.76 33.4058 87.4033H31.4058C31.4058 88.8991 32.636 90.0786 34.1102 90.0786V88.0786ZM33.4058 87.4033C33.4058 87.0456 33.7039 86.728 34.1102 86.728V84.728C32.6319 84.728 31.4058 85.9087 31.4058 87.4033H33.4058ZM34.1102 86.728C34.5165 86.728 34.8146 87.0456 34.8146 87.4033H36.8146C36.8146 85.9087 35.5885 84.728 34.1102 84.728V86.728ZM34.8146 87.4033C34.8146 87.7611 34.5165 88.0786 34.1102 88.0786V90.0786C35.5885 90.0786 36.8146 88.898 36.8146 87.4033H34.8146Z" fill="#D7702D" mask="url(#path-13-inside-3_54987_185)"/>
<mask id="path-15-inside-4_54987_185" fill="white">
<path d="M34.1094 84.4764C32.4641 84.4764 31.1289 85.7888 31.1289 87.406C31.1289 89.0233 32.4641 90.3356 34.1094 90.3356C35.7547 90.3356 37.0899 89.0233 37.0899 87.406C37.0899 85.7888 35.7547 84.4764 34.1094 84.4764ZM34.1094 89.9146C32.6974 89.9146 31.5543 88.791 31.5543 87.4031C31.5543 86.0152 32.6974 84.8916 34.1094 84.8916C35.5214 84.8916 36.6645 86.0152 36.6645 87.4031C36.6645 88.791 35.5214 89.9146 34.1094 89.9146Z"/>
</mask>
<path d="M34.1094 84.4764C32.4641 84.4764 31.1289 85.7888 31.1289 87.406C31.1289 89.0233 32.4641 90.3356 34.1094 90.3356C35.7547 90.3356 37.0899 89.0233 37.0899 87.406C37.0899 85.7888 35.7547 84.4764 34.1094 84.4764ZM34.1094 89.9146C32.6974 89.9146 31.5543 88.791 31.5543 87.4031C31.5543 86.0152 32.6974 84.8916 34.1094 84.8916C35.5214 84.8916 36.6645 86.0152 36.6645 87.4031C36.6645 88.791 35.5214 89.9146 34.1094 89.9146Z" fill="#706EB8" fill-opacity="0.3"/>
<path d="M34.1094 83.4764C31.9281 83.4764 30.1289 85.2203 30.1289 87.406H32.1289C32.1289 86.3572 33.0001 85.4764 34.1094 85.4764V83.4764ZM30.1289 87.406C30.1289 89.5917 31.9281 91.3356 34.1094 91.3356V89.3356C33.0001 89.3356 32.1289 88.4548 32.1289 87.406H30.1289ZM34.1094 91.3356C36.2907 91.3356 38.0899 89.5917 38.0899 87.406H36.0899C36.0899 88.4548 35.2187 89.3356 34.1094 89.3356V91.3356ZM38.0899 87.406C38.0899 85.2203 36.2907 83.4764 34.1094 83.4764V85.4764C35.2187 85.4764 36.0899 86.3572 36.0899 87.406H38.0899ZM34.1094 88.9146C33.2334 88.9146 32.5543 88.2225 32.5543 87.4031H30.5543C30.5543 89.3594 32.1614 90.9146 34.1094 90.9146V88.9146ZM32.5543 87.4031C32.5543 86.5837 33.2334 85.8916 34.1094 85.8916V83.8916C32.1614 83.8916 30.5543 85.4468 30.5543 87.4031H32.5543ZM34.1094 85.8916C34.9854 85.8916 35.6645 86.5837 35.6645 87.4031H37.6645C37.6645 85.4468 36.0573 83.8916 34.1094 83.8916V85.8916ZM35.6645 87.4031C35.6645 88.2225 34.9854 88.9146 34.1094 88.9146V90.9146C36.0573 90.9146 37.6645 89.3594 37.6645 87.4031H35.6645Z" fill="#D7702D" mask="url(#path-15-inside-4_54987_185)"/>
</g>
<path d="M34 136L34 150L34 164" stroke="url(#paint1_linear_54987_185)" stroke-width="2"/>
<defs>
<filter id="filter0_i_54987_185" x="0" y="68" width="69" height="68" filterUnits="userSpaceOnUse" color-interpolation-filters="sRGB">
<feFlood flood-opacity="0" result="BackgroundImageFix"/>
<feBlend mode="normal" in="SourceGraphic" in2="BackgroundImageFix" result="shape"/>
<feColorMatrix in="SourceAlpha" type="matrix" values="0 0 0 0 0 0 0 0 0 0 0 0 0 0 0 0 0 0 127 0" result="hardAlpha"/>
<feOffset dx="1"/>
<feGaussianBlur stdDeviation="2"/>
<feComposite in2="hardAlpha" operator="arithmetic" k2="-1" k3="1"/>
<feColorMatrix type="matrix" values="0 0 0 0 0.270588 0 0 0 0 0.0941176 0 0 0 0 0.490196 0 0 0 0.2 0"/>
<feBlend mode="normal" in2="shape" result="effect1_innerShadow_54987_185"/>
</filter>
<linearGradient id="paint0_linear_54987_185" x1="33" y1="64.6" x2="30.0965" y2="0.130767" gradientUnits="userSpaceOnUse">
<stop stop-color="#D7702D"/>
<stop offset="0.383055" stop-color="#EEA575"/>
<stop offset="0.702605" stop-color="#45187D" stop-opacity="0.44"/>
</linearGradient>
<linearGradient id="paint1_linear_54987_185" x1="34" y1="168.667" x2="33.3944" y2="136.011" gradientUnits="userSpaceOnUse">
<stop offset="0.292271" stop-color="#D7702D" stop-opacity="0"/>
<stop offset="0.717294" stop-color="#EEA575"/>
<stop offset="1" stop-color="#D7702D"/>
</linearGradient>
</defs>
</svg>
