<svg width="45" height="60" viewBox="0 0 45 60" fill="none" xmlns="http://www.w3.org/2000/svg">
<path d="M23 0.5H22C10.1259 0.5 0.5 10.1259 0.5 22C0.5 33.8741 10.1259 43.5 22 43.5H23C34.8741 43.5 44.5 33.8741 44.5 22C44.5 10.1259 34.8741 0.5 23 0.5Z" stroke="#6E2C95" stroke-opacity="0.431373"/>
<path d="M16.3096 14.9085H14.26V26.3746H14.6524" stroke="#6E2C95" stroke-width="0.5" stroke-miterlimit="10"/>
<path d="M30.1674 26.3746H30.5598V14.9085H28.342" stroke="#6E2C95" stroke-width="0.5" stroke-miterlimit="10"/>
<path d="M19.7899 13.8307H18.8234C17.4779 14.0313 15.8521 14.7697 15.5651 16.1318L14.6524 26.3812C13.7757 26.3746 13.1298 26.8066 12.7127 27.6751V31.7043H11.8718V34.4374H13.7375L13.6635 36.2206C13.6635 36.5931 17.1752 36.5931 17.1752 36.2206V34.4727H27.5666V36.2206C28.7192 36.5909 29.8898 36.5931 31.0783 36.2206V34.2942H33.1279V31.6337H31.9932V27.3907C31.52 26.714 30.8944 26.4121 30.1634 26.3834L29.4592 16.3126C29.1767 15.0628 27.3065 14.2781 26.1023 13.8307H25.2031" stroke="#6E2C95" stroke-width="0.5" stroke-miterlimit="10"/>
<path d="M27.9472 19.3674H16.8718V23.1079H27.9472V19.3674Z" stroke="#6E2C95" stroke-width="0.5" stroke-miterlimit="10"/>
<path d="M25.2546 24.8227H19.4512C17.965 24.8227 16.7603 26.0069 16.7603 27.4677V28.3163C16.7603 29.7771 17.965 30.9613 19.4512 30.9613H25.2546C26.7407 30.9613 27.9455 29.7771 27.9455 28.3163V27.4677C27.9455 26.0069 26.7407 24.8227 25.2546 24.8227Z" stroke="#6E2C95" stroke-width="0.5" stroke-miterlimit="10"/>
<path d="M14.4692 29.2244V30.6858C14.4692 31.0157 14.7413 31.2831 15.0769 31.2831H15.2272C15.5628 31.2831 15.8349 31.0157 15.8349 30.6858V29.2244C15.8349 28.8946 15.5628 28.6271 15.2272 28.6271H15.0769C14.7413 28.6271 14.4692 28.8946 14.4692 29.2244Z" stroke="#6E2C95" stroke-width="0.5" stroke-miterlimit="10"/>
<path d="M28.8828 29.2244V30.6858C28.8828 31.0157 29.1549 31.2831 29.4905 31.2831H29.6408C29.9764 31.2831 30.2485 31.0157 30.2485 30.6858V29.2244C30.2485 28.8946 29.9764 28.6271 29.6408 28.6271H29.4905C29.1549 28.6271 28.8828 28.8946 28.8828 29.2244Z" stroke="#6E2C95" stroke-width="0.5" stroke-miterlimit="10"/>
<mask id="path-10-inside-1_3984_49028" fill="white">
<path d="M22.5 7.50001C20.3585 7.50001 18.6206 9.20603 18.6206 11.3132C18.6206 12.2147 19.0242 13.0082 19.4727 13.6959L22.2354 17.5334C22.296 17.6171 22.3946 17.6678 22.5 17.6678C22.6054 17.6678 22.7041 17.6171 22.7646 17.5334L25.5273 13.6959C25.9556 13.1294 26.3794 12.2147 26.3794 11.3132C26.3794 9.20824 24.6438 7.50001 22.5 7.50001ZM19.8652 13.643C19.4727 13.0788 18.9458 12.2059 18.9458 11.3132C18.9458 9.38236 20.5379 7.81961 22.5 7.81961C24.4621 7.81961 26.0543 9.38457 26.0543 11.3132C26.0543 12.2346 25.4533 13.1846 25.099 13.6959L22.5 17.1895L19.901 13.6959C19.8898 13.6783 19.8764 13.6607 19.8652 13.643Z"/>
</mask>
<path d="M22.5 7.50001C20.3585 7.50001 18.6206 9.20603 18.6206 11.3132C18.6206 12.2147 19.0242 13.0082 19.4727 13.6959L22.2354 17.5334C22.296 17.6171 22.3946 17.6678 22.5 17.6678C22.6054 17.6678 22.7041 17.6171 22.7646 17.5334L25.5273 13.6959C25.9556 13.1294 26.3794 12.2147 26.3794 11.3132C26.3794 9.20824 24.6438 7.50001 22.5 7.50001ZM19.8652 13.643C19.4727 13.0788 18.9458 12.2059 18.9458 11.3132C18.9458 9.38236 20.5379 7.81961 22.5 7.81961C24.4621 7.81961 26.0543 9.38457 26.0543 11.3132C26.0543 12.2346 25.4533 13.1846 25.099 13.6959L22.5 17.1895L19.901 13.6959C19.8898 13.6783 19.8764 13.6607 19.8652 13.643Z" fill="#6E2C95" fill-opacity="0.3"/>
<path d="M19.4727 13.6959L19.0539 13.969L19.0602 13.9787L19.0669 13.988L19.4727 13.6959ZM22.2354 17.5334L21.8296 17.8255L21.8302 17.8263L22.2354 17.5334ZM22.7646 17.5334L23.1698 17.8263L23.1704 17.8255L22.7646 17.5334ZM25.5273 13.6959L25.1284 13.3943L25.1215 13.4038L25.5273 13.6959ZM19.8652 13.643L20.2871 13.3747L20.2815 13.366L20.2756 13.3575L19.8652 13.643ZM25.099 13.6959L25.5002 13.9944L25.5052 13.9876L25.51 13.9807L25.099 13.6959ZM22.5 17.1895L22.0988 17.488L22.5 18.0272L22.9012 17.488L22.5 17.1895ZM19.901 13.6959L19.4791 13.9642L19.4889 13.9797L19.4999 13.9944L19.901 13.6959ZM22.5 7.50001V7.00001C20.0907 7.00001 18.1206 8.92162 18.1206 11.3132H18.6206H19.1206C19.1206 9.49044 20.6263 8.00001 22.5 8.00001V7.50001ZM18.6206 11.3132H18.1206C18.1206 12.3636 18.5906 13.2586 19.0539 13.969L19.4727 13.6959L19.8915 13.4228C19.4579 12.7579 19.1206 12.0659 19.1206 11.3132H18.6206ZM19.4727 13.6959L19.0669 13.988L21.8296 17.8255L22.2354 17.5334L22.6412 17.2412L19.8785 13.4038L19.4727 13.6959ZM22.2354 17.5334L21.8302 17.8263C21.9852 18.0408 22.235 18.1678 22.5 18.1678V17.6678V17.1678C22.5543 17.1678 22.6067 17.1935 22.6406 17.2405L22.2354 17.5334ZM22.5 17.6678V18.1678C22.7651 18.1678 23.0148 18.0408 23.1698 17.8263L22.7646 17.5334L22.3594 17.2405C22.3934 17.1935 22.4457 17.1678 22.5 17.1678V17.6678ZM22.7646 17.5334L23.1704 17.8255L25.9331 13.988L25.5273 13.6959L25.1215 13.4038L22.3588 17.2412L22.7646 17.5334ZM25.5273 13.6959L25.9261 13.9975C26.3995 13.3714 26.8794 12.3534 26.8794 11.3132H26.3794H25.8794C25.8794 12.076 25.5117 12.8875 25.1285 13.3944L25.5273 13.6959ZM26.3794 11.3132H26.8794C26.8794 8.9242 24.912 7.00001 22.5 7.00001V7.50001V8.00001C24.3756 8.00001 25.8794 9.49227 25.8794 11.3132H26.3794ZM19.8652 13.643L20.2756 13.3575C19.8844 12.795 19.4458 12.0361 19.4458 11.3132H18.9458H18.4458C18.4458 12.3757 19.0611 13.3625 19.4547 13.9285L19.8652 13.643ZM18.9458 11.3132H19.4458C19.4458 9.66679 20.8057 8.31961 22.5 8.31961V7.81961V7.31961C20.2701 7.31961 18.4458 9.09794 18.4458 11.3132H18.9458ZM22.5 7.81961V8.31961C24.1941 8.31961 25.5543 9.66879 25.5543 11.3132H26.0543H26.5543C26.5543 9.10035 24.7301 7.31961 22.5 7.31961V7.81961ZM26.0543 11.3132H25.5543C25.5543 11.6715 25.4355 12.0634 25.2565 12.4468C25.0795 12.8258 24.859 13.1643 24.688 13.4112L25.099 13.6959L25.51 13.9807C25.6933 13.7162 25.9505 13.324 26.1625 12.8699C26.3726 12.42 26.5543 11.8763 26.5543 11.3132H26.0543ZM25.099 13.6959L24.6978 13.3975L22.0988 16.8911L22.5 17.1895L22.9012 17.488L25.5002 13.9944L25.099 13.6959ZM22.5 17.1895L22.9012 16.8911L20.3022 13.3975L19.901 13.6959L19.4999 13.9944L22.0988 17.488L22.5 17.1895ZM19.901 13.6959L20.323 13.4276C20.3104 13.4079 20.2978 13.39 20.2928 13.3829C20.2855 13.3724 20.2858 13.3727 20.2871 13.3747L19.8652 13.643L19.4432 13.9113C19.4558 13.931 19.4684 13.9489 19.4734 13.956C19.4807 13.9666 19.4804 13.9663 19.4791 13.9642L19.901 13.6959Z" fill="#6E2C95" mask="url(#path-10-inside-1_3984_49028)"/>
<mask id="path-12-inside-2_3984_49028" fill="white">
<path d="M22.5001 9.72388C21.6076 9.72388 20.8833 10.4358 20.8833 11.3131C20.8833 12.1903 21.6076 12.9023 22.5001 12.9023C23.3926 12.9023 24.1169 12.1903 24.1169 11.3131C24.1169 10.4358 23.3926 9.72388 22.5001 9.72388ZM22.5001 12.5827C21.787 12.5827 21.2062 12.014 21.2062 11.3109C21.2062 10.6078 21.7848 10.0391 22.5001 10.0391C23.2154 10.0391 23.794 10.6078 23.794 11.3109C23.794 12.014 23.2154 12.5827 22.5001 12.5827Z"/>
</mask>
<path d="M22.5001 9.72388C21.6076 9.72388 20.8833 10.4358 20.8833 11.3131C20.8833 12.1903 21.6076 12.9023 22.5001 12.9023C23.3926 12.9023 24.1169 12.1903 24.1169 11.3131C24.1169 10.4358 23.3926 9.72388 22.5001 9.72388ZM22.5001 12.5827C21.787 12.5827 21.2062 12.014 21.2062 11.3109C21.2062 10.6078 21.7848 10.0391 22.5001 10.0391C23.2154 10.0391 23.794 10.6078 23.794 11.3109C23.794 12.014 23.2154 12.5827 22.5001 12.5827Z" fill="#6E2C95" fill-opacity="0.3"/>
<path d="M22.5001 9.72388V9.22388C21.3396 9.22388 20.3833 10.1516 20.3833 11.3131H20.8833H21.3833C21.3833 10.7201 21.8756 10.2239 22.5001 10.2239V9.72388ZM20.8833 11.3131H20.3833C20.3833 12.4746 21.3396 13.4023 22.5001 13.4023V12.9023V12.4023C21.8756 12.4023 21.3833 11.9061 21.3833 11.3131H20.8833ZM22.5001 12.9023V13.4023C23.6606 13.4023 24.6169 12.4746 24.6169 11.3131H24.1169H23.6169C23.6169 11.9061 23.1246 12.4023 22.5001 12.4023V12.9023ZM24.1169 11.3131H24.6169C24.6169 10.1516 23.6606 9.22388 22.5001 9.22388V9.72388V10.2239C23.1246 10.2239 23.6169 10.7201 23.6169 11.3131H24.1169ZM22.5001 12.5827V12.0827C22.0544 12.0827 21.7062 11.7292 21.7062 11.3109H21.2062H20.7062C20.7062 12.2988 21.5196 13.0827 22.5001 13.0827V12.5827ZM21.2062 11.3109H21.7062C21.7062 10.892 22.0528 10.5391 22.5001 10.5391V10.0391V9.53908C21.5168 9.53908 20.7062 10.3235 20.7062 11.3109H21.2062ZM22.5001 10.0391V10.5391C22.9474 10.5391 23.294 10.892 23.294 11.3109H23.794H24.294C24.294 10.3235 23.4834 9.53908 22.5001 9.53908V10.0391ZM23.794 11.3109H23.294C23.294 11.7298 22.9474 12.0827 22.5001 12.0827V12.5827V13.0827C23.4834 13.0827 24.294 12.2982 24.294 11.3109H23.794Z" fill="#6E2C95" mask="url(#path-12-inside-2_3984_49028)"/>
<mask id="path-14-inside-3_3984_49028" fill="white">
<path d="M22.4999 9.08918C21.2509 9.08918 20.2373 10.0855 20.2373 11.3132C20.2373 12.5409 21.2509 13.5372 22.4999 13.5372C23.749 13.5372 24.7625 12.5409 24.7625 11.3132C24.7625 10.0855 23.749 9.08918 22.4999 9.08918ZM22.4999 13.2176C21.428 13.2176 20.5602 12.3646 20.5602 11.311C20.5602 10.2574 21.428 9.40438 22.4999 9.40438C23.5718 9.40438 24.4396 10.2574 24.4396 11.311C24.4396 12.3646 23.5718 13.2176 22.4999 13.2176Z"/>
</mask>
<path d="M22.4999 9.08918C21.2509 9.08918 20.2373 10.0855 20.2373 11.3132C20.2373 12.5409 21.2509 13.5372 22.4999 13.5372C23.749 13.5372 24.7625 12.5409 24.7625 11.3132C24.7625 10.0855 23.749 9.08918 22.4999 9.08918ZM22.4999 13.2176C21.428 13.2176 20.5602 12.3646 20.5602 11.311C20.5602 10.2574 21.428 9.40438 22.4999 9.40438C23.5718 9.40438 24.4396 10.2574 24.4396 11.311C24.4396 12.3646 23.5718 13.2176 22.4999 13.2176Z" fill="#6E2C95" fill-opacity="0.3"/>
<path d="M22.4999 9.08918V8.58918C20.9829 8.58918 19.7373 9.80124 19.7373 11.3132H20.2373H20.7373C20.7373 10.3697 21.5189 9.58918 22.4999 9.58918V9.08918ZM20.2373 11.3132H19.7373C19.7373 12.8251 20.9829 14.0372 22.4999 14.0372V13.5372V13.0372C21.5189 13.0372 20.7373 12.2567 20.7373 11.3132H20.2373ZM22.4999 13.5372V14.0372C24.0169 14.0372 25.2625 12.8251 25.2625 11.3132H24.7625H24.2625C24.2625 12.2567 23.481 13.0372 22.4999 13.0372V13.5372ZM24.7625 11.3132H25.2625C25.2625 9.80124 24.0169 8.58918 22.4999 8.58918V9.08918V9.58918C23.481 9.58918 24.2625 10.3697 24.2625 11.3132H24.7625ZM22.4999 13.2176V12.7176C21.696 12.7176 21.0602 12.0804 21.0602 11.311H20.5602H20.0602C20.0602 12.6488 21.16 13.7176 22.4999 13.7176V13.2176ZM20.5602 11.311H21.0602C21.0602 10.5416 21.696 9.90438 22.4999 9.90438V9.40438V8.90438C21.16 8.90438 20.0602 9.97317 20.0602 11.311H20.5602ZM22.4999 9.40438V9.90438C23.3038 9.90438 23.9396 10.5416 23.9396 11.311H24.4396H24.9396C24.9396 9.97317 23.8398 8.90438 22.4999 8.90438V9.40438ZM24.4396 11.311H23.9396C23.9396 12.0804 23.3038 12.7176 22.4999 12.7176V13.2176V13.7176C23.8398 13.7176 24.9396 12.6488 24.9396 11.311H24.4396Z" fill="#6E2C95" mask="url(#path-14-inside-3_3984_49028)"/>
<line opacity="0.5" x1="23" y1="44" x2="23" y2="60" stroke="#6E2C95"/>
</svg>
