<svg width="68" height="164" viewBox="0 0 68 164" fill="none" xmlns="http://www.w3.org/2000/svg">
<path d="M34 0L34 68" stroke="url(#paint0_linear_54987_895)" stroke-width="2"/>
<g filter="url(#filter0_i_54987_895)">
<mask id="path-2-inside-1_54987_895" fill="white">
<path d="M68 102C68 83.2223 52.7777 68 34 68C15.2223 68 0 83.2223 0 102C0 120.778 15.2223 136 34 136C52.7777 136 68 120.778 68 102Z"/>
</mask>
<path d="M68 102C68 83.2223 52.7777 68 34 68C15.2223 68 0 83.2223 0 102C0 120.778 15.2223 136 34 136C52.7777 136 68 120.778 68 102Z" fill="#A8A2E6" fill-opacity="0.2"/>
<path d="M34 134C51.6731 134 66 119.673 66 102H70C70 121.882 53.8823 138 34 138V134ZM2 102C2 119.673 16.3269 134 34 134V138C14.1177 138 -2 121.882 -2 102H2ZM34 70C16.3269 70 2 84.3269 2 102H-2C-2 82.1177 14.1177 66 34 66V70ZM34 66C53.8823 66 70 82.1177 70 102H66C66 84.3269 51.6731 70 34 70V66Z" fill="#D06026" mask="url(#path-2-inside-1_54987_895)"/>
<path d="M34.0005 93.8032C30.6708 93.8032 27.9688 96.5538 27.9688 99.9512C27.9688 101.405 28.5963 102.684 29.2936 103.793L33.5891 109.98C33.6832 110.115 33.8367 110.197 34.0005 110.197C34.1644 110.197 34.3178 110.115 34.4119 109.98L38.7074 103.793C39.3733 102.88 40.0323 101.405 40.0323 99.9512C40.0323 96.5574 37.3337 93.8032 34.0005 93.8032ZM29.9003 103.708C29.2902 102.798 28.4708 101.39 28.4708 99.9512C28.4708 96.8381 30.9463 94.3185 33.997 94.3185C37.0478 94.3185 39.5233 96.8417 39.5233 99.9512C39.5233 101.437 38.5889 102.968 38.038 103.793L33.997 109.426L29.9561 103.793C29.9387 103.764 29.9177 103.736 29.9003 103.708Z" fill="#D7702D" stroke="#D7702D" stroke-width="0.5" stroke-miterlimit="10"/>
<mask id="path-5-inside-2_54987_895" fill="white">
<path d="M34.0021 97.3891C32.6144 97.3891 31.4883 98.537 31.4883 99.9514C31.4883 101.366 32.6144 102.514 34.0021 102.514C35.3898 102.514 36.5159 101.366 36.5159 99.9514C36.5159 98.537 35.3898 97.3891 34.0021 97.3891ZM34.0021 101.998C32.8934 101.998 31.9903 101.081 31.9903 99.9479C31.9903 98.8142 32.8899 97.8973 34.0021 97.8973C35.1143 97.8973 36.0139 98.8142 36.0139 99.9479C36.0139 101.081 35.1143 101.998 34.0021 101.998Z"/>
</mask>
<path d="M34.0021 97.3891C32.6144 97.3891 31.4883 98.537 31.4883 99.9514C31.4883 101.366 32.6144 102.514 34.0021 102.514C35.3898 102.514 36.5159 101.366 36.5159 99.9514C36.5159 98.537 35.3898 97.3891 34.0021 97.3891ZM34.0021 101.998C32.8934 101.998 31.9903 101.081 31.9903 99.9479C31.9903 98.8142 32.8899 97.8973 34.0021 97.8973C35.1143 97.8973 36.0139 98.8142 36.0139 99.9479C36.0139 101.081 35.1143 101.998 34.0021 101.998Z" fill="#A8A2E6" fill-opacity="0.3"/>
<path d="M34.0021 96.3891C32.0443 96.3891 30.4883 98.0028 30.4883 99.9514H32.4883C32.4883 99.0712 33.1846 98.3891 34.0021 98.3891V96.3891ZM30.4883 99.9514C30.4883 101.9 32.0443 103.514 34.0021 103.514V101.514C33.1846 101.514 32.4883 100.832 32.4883 99.9514H30.4883ZM34.0021 103.514C35.9599 103.514 37.5159 101.9 37.5159 99.9514H35.5159C35.5159 100.832 34.8196 101.514 34.0021 101.514V103.514ZM37.5159 99.9514C37.5159 98.0028 35.9599 96.3891 34.0021 96.3891V98.3891C34.8196 98.3891 35.5159 99.0712 35.5159 99.9514H37.5159ZM34.0021 100.998C33.4624 100.998 32.9903 100.546 32.9903 99.9479H30.9903C30.9903 101.617 32.3243 102.998 34.0021 102.998V100.998ZM32.9903 99.9479C32.9903 99.3484 33.4601 98.8973 34.0021 98.8973V96.8973C32.3197 96.8973 30.9903 98.28 30.9903 99.9479H32.9903ZM34.0021 98.8973C34.5441 98.8973 35.0139 99.3484 35.0139 99.9479H37.0139C37.0139 98.28 35.6845 96.8973 34.0021 96.8973V98.8973ZM35.0139 99.9479C35.0139 100.547 34.5441 100.998 34.0021 100.998V102.998C35.6845 102.998 37.0139 101.616 37.0139 99.9479H35.0139Z" fill="#D7702D" mask="url(#path-5-inside-2_54987_895)"/>
<mask id="path-7-inside-3_54987_895" fill="white">
<path d="M34.0004 96.3657C32.0584 96.3657 30.4824 97.972 30.4824 99.9514C30.4824 101.931 32.0584 103.537 34.0004 103.537C35.9424 103.537 37.5183 101.931 37.5183 99.9514C37.5183 97.972 35.9424 96.3657 34.0004 96.3657ZM34.0004 103.022C32.3338 103.022 30.9845 101.647 30.9845 99.9479C30.9845 98.2492 32.3338 96.8739 34.0004 96.8739C35.667 96.8739 37.0163 98.2492 37.0163 99.9479C37.0163 101.647 35.667 103.022 34.0004 103.022Z"/>
</mask>
<path d="M34.0004 96.3657C32.0584 96.3657 30.4824 97.972 30.4824 99.9514C30.4824 101.931 32.0584 103.537 34.0004 103.537C35.9424 103.537 37.5183 101.931 37.5183 99.9514C37.5183 97.972 35.9424 96.3657 34.0004 96.3657ZM34.0004 103.022C32.3338 103.022 30.9845 101.647 30.9845 99.9479C30.9845 98.2492 32.3338 96.8739 34.0004 96.8739C35.667 96.8739 37.0163 98.2492 37.0163 99.9479C37.0163 101.647 35.667 103.022 34.0004 103.022Z" fill="#A8A2E6" fill-opacity="0.3"/>
<path d="M34.0004 95.3657C31.4882 95.3657 29.4824 97.4378 29.4824 99.9514H31.4824C31.4824 98.5062 32.6285 97.3657 34.0004 97.3657V95.3657ZM29.4824 99.9514C29.4824 102.465 31.4882 104.537 34.0004 104.537V102.537C32.6285 102.537 31.4824 101.397 31.4824 99.9514H29.4824ZM34.0004 104.537C36.5126 104.537 38.5183 102.465 38.5183 99.9514H36.5183C36.5183 101.397 35.3722 102.537 34.0004 102.537V104.537ZM38.5183 99.9514C38.5183 97.4378 36.5126 95.3657 34.0004 95.3657V97.3657C35.3722 97.3657 36.5183 98.5062 36.5183 99.9514H38.5183ZM34.0004 102.022C32.904 102.022 31.9845 101.112 31.9845 99.9479H29.9845C29.9845 102.181 31.7636 104.022 34.0004 104.022V102.022ZM31.9845 99.9479C31.9845 98.7834 32.904 97.8739 34.0004 97.8739V95.8739C31.7636 95.8739 29.9845 97.715 29.9845 99.9479H31.9845ZM34.0004 97.8739C35.0968 97.8739 36.0163 98.7834 36.0163 99.9479H38.0163C38.0163 97.715 36.2371 95.8739 34.0004 95.8739V97.8739ZM36.0163 99.9479C36.0163 101.112 35.0968 102.022 34.0004 102.022V104.022C36.2371 104.022 38.0163 102.181 38.0163 99.9479H36.0163Z" fill="#D7702D" mask="url(#path-7-inside-3_54987_895)"/>
<path d="M25.2593 81.3618H42.3993C43.8358 81.3618 45.0003 82.5488 45.0003 84.0129V119.853C45.0003 121.391 43.7765 122.639 42.2668 122.639H25.329C24.0425 122.639 23 121.576 23 120.265V83.6646C23 82.3924 24.0111 81.3618 25.2593 81.3618Z" stroke="white" stroke-miterlimit="10"/>
<path d="M38.7128 81.3613C38.7128 81.3613 39.7797 85.7076 33.9955 85.7076C28.2113 85.7076 28.8319 81.3613 28.8319 81.3613" stroke="white" stroke-miterlimit="10"/>
</g>
<path d="M34 136L34 150L34 164" stroke="url(#paint1_linear_54987_895)" stroke-width="2"/>
<defs>
<filter id="filter0_i_54987_895" x="0" y="68" width="69" height="68" filterUnits="userSpaceOnUse" color-interpolation-filters="sRGB">
<feFlood flood-opacity="0" result="BackgroundImageFix"/>
<feBlend mode="normal" in="SourceGraphic" in2="BackgroundImageFix" result="shape"/>
<feColorMatrix in="SourceAlpha" type="matrix" values="0 0 0 0 0 0 0 0 0 0 0 0 0 0 0 0 0 0 127 0" result="hardAlpha"/>
<feOffset dx="1"/>
<feGaussianBlur stdDeviation="2"/>
<feComposite in2="hardAlpha" operator="arithmetic" k2="-1" k3="1"/>
<feColorMatrix type="matrix" values="0 0 0 0 0.270588 0 0 0 0 0.0941176 0 0 0 0 0.490196 0 0 0 0.2 0"/>
<feBlend mode="normal" in2="shape" result="effect1_innerShadow_54987_895"/>
</filter>
<linearGradient id="paint0_linear_54987_895" x1="33" y1="64.6" x2="30.0965" y2="0.130767" gradientUnits="userSpaceOnUse">
<stop stop-color="#D7702D"/>
<stop offset="0.383055" stop-color="#EEA575"/>
<stop offset="0.702605" stop-color="#45187D" stop-opacity="0.44"/>
</linearGradient>
<linearGradient id="paint1_linear_54987_895" x1="34" y1="168.667" x2="33.3944" y2="136.011" gradientUnits="userSpaceOnUse">
<stop offset="0.292271" stop-color="#D7702D" stop-opacity="0"/>
<stop offset="0.717294" stop-color="#EEA575"/>
<stop offset="1" stop-color="#D7702D"/>
</linearGradient>
</defs>
</svg>
