<svg width="45" height="60" viewBox="0 0 45 60" fill="none" xmlns="http://www.w3.org/2000/svg">
<path d="M23 0.5H22C10.1259 0.5 0.5 10.1259 0.5 22C0.5 33.8741 10.1259 43.5 22 43.5H23C34.8741 43.5 44.5 33.8741 44.5 22C44.5 10.1259 34.8741 0.5 23 0.5Z" stroke="#6E2C95" stroke-opacity="0.5"/>
<path d="M22.5 16.6382C20.3219 16.6382 18.5544 18.4374 18.5544 20.6597C18.5544 21.6105 18.965 22.4473 19.4211 23.1726L22.2309 27.2197C22.2924 27.3081 22.3928 27.3615 22.5 27.3615C22.6072 27.3615 22.7075 27.3081 22.7691 27.2197L25.5788 23.1726C26.0145 22.5752 26.4455 21.6105 26.4455 20.6597C26.4455 18.4397 24.6803 16.6382 22.5 16.6382ZM19.8179 23.1168C19.4188 22.5217 18.8829 21.6012 18.8829 20.6597C18.8829 18.6234 20.5021 16.9752 22.4977 16.9752C24.4933 16.9752 26.1125 18.6257 26.1125 20.6597C26.1125 21.6314 25.5013 22.6333 25.141 23.1726L22.4977 26.8571L19.8544 23.1726C19.843 23.154 19.8293 23.1354 19.8179 23.1168Z" fill="#6E2C95" stroke="#6E2C95" stroke-width="0.5" stroke-miterlimit="10"/>
<path d="M22.5001 18.9839C21.5924 18.9839 20.8557 19.7347 20.8557 20.6599C20.8557 21.5851 21.5924 22.336 22.5001 22.336C23.4078 22.336 24.1444 21.5851 24.1444 20.6599C24.1444 19.7347 23.4078 18.9839 22.5001 18.9839ZM22.5001 21.9989C21.7748 21.9989 21.1841 21.3991 21.1841 20.6576C21.1841 19.9161 21.7725 19.3163 22.5001 19.3163C23.2276 19.3163 23.816 19.9161 23.816 20.6576C23.816 21.3991 23.2276 21.9989 22.5001 21.9989Z" fill="#6E2C95"/>
<path d="M22.5002 18.3145C21.2298 18.3145 20.199 19.3652 20.199 20.66C20.199 21.9548 21.2298 23.0055 22.5002 23.0055C23.7705 23.0055 24.8013 21.9548 24.8013 20.66C24.8013 19.3652 23.7705 18.3145 22.5002 18.3145ZM22.5002 22.6685C21.41 22.6685 20.5274 21.7688 20.5274 20.6577C20.5274 19.5465 21.41 18.6469 22.5002 18.6469C23.5903 18.6469 24.4729 19.5465 24.4729 20.6577C24.4729 21.7688 23.5903 22.6685 22.5002 22.6685Z" fill="#6E2C95"/>
<path d="M16.7823 8.49982H27.994C28.9336 8.49982 29.6953 9.27623 29.6953 10.234V33.6775C29.6953 34.6841 28.8948 35.5 27.9073 35.5H16.8279C15.9864 35.5 15.3044 34.805 15.3044 33.9472V10.0062C15.3044 9.17395 15.9658 8.49982 16.7823 8.49982Z" stroke="#6E2C95" stroke-width="0.5" stroke-miterlimit="10"/>
<path d="M25.5827 8.49963C25.5827 8.49963 26.2806 11.3426 22.497 11.3426C18.7134 11.3426 19.1194 8.49963 19.1194 8.49963" stroke="#6E2C95" stroke-width="0.5" stroke-miterlimit="10"/>
<line opacity="0.5" x1="23" y1="44" x2="23" y2="60" stroke="#6E2C95"/>
</svg>
