<svg width="45" height="46" viewBox="0 0 45 46" fill="none" xmlns="http://www.w3.org/2000/svg">
<path d="M30 0.5H15C6.99188 0.5 0.5 6.99188 0.5 15C0.500006 23.0081 6.99188 29.5 15 29.5H30C38.0081 29.5 44.5 23.0081 44.5 15C44.5 7.11692 38.2093 0.703267 30.374 0.504883L30 0.5Z" stroke="#6E2C95" stroke-opacity="0.5"/>
<path d="M34.9026 16.7565H19.0868V8H20.5899L21.5606 11.07H36.5V11.781H35.7485V13.4291L34.9026 16.7565Z" stroke="#6E2C95" stroke-width="0.5" stroke-miterlimit="10"/>
<path d="M18.2408 8.93701H12.7595L9.9724 14.8495V17.3373C9.9724 17.3373 8.49978 17.1427 8.49978 18.21C8.49978 19.2772 9.40802 19.1799 10.0653 19.1799C10.7225 19.1799 12.0703 19.1829 12.0703 19.1829C12.0703 19.1829 12.7276 17.6292 14.4512 17.6292C16.1748 17.6292 16.581 19.1829 16.581 19.1829H28.2009C28.2009 19.1829 28.7653 17.5978 30.4556 17.5978C32.1458 17.5978 32.5854 19.1829 32.5854 19.1829H35.0591C35.8643 18.5887 35.9238 17.975 35.0591 17.3388H18.3032L18.2408 8.93851V8.93701Z" stroke="#6E2C95" stroke-width="0.5" stroke-miterlimit="10"/>
<path d="M30.4351 22C29.4512 22 28.6535 21.177 28.6535 20.1619C28.6535 19.1467 29.4512 18.3237 30.4351 18.3237C31.4191 18.3237 32.2168 19.1467 32.2168 20.1619C32.2168 21.177 31.4191 22 30.4351 22Z" stroke="#6E2C95" stroke-width="0.5" stroke-miterlimit="10"/>
<path d="M14.36 22C13.376 22 12.5783 21.177 12.5783 20.1619C12.5783 19.1467 13.376 18.3237 14.36 18.3237C15.3439 18.3237 16.1416 19.1467 16.1416 20.1619C16.1416 21.177 15.3439 22 14.36 22Z" stroke="#6E2C95" stroke-width="0.5" stroke-miterlimit="10"/>
<path d="M11.6961 13.4606L13.3631 9.729H17.4502V13.4606H11.6961Z" stroke="#6E2C95" stroke-width="0.5" stroke-miterlimit="10"/>
<path d="M22.066 12.7734L24.3555 15.137" stroke="#6E2C95" stroke-width="0.5" stroke-miterlimit="10"/>
<path d="M25.8497 12.7734L28.1406 15.137" stroke="#6E2C95" stroke-width="0.5" stroke-miterlimit="10"/>
<path d="M29.9273 12.7734L32.2168 15.137" stroke="#6E2C95" stroke-width="0.5" stroke-miterlimit="10"/>
<line opacity="0.5" x1="23" y1="30" x2="23" y2="46" stroke="#6E2C95"/>
</svg>
