<svg width="68" height="164" viewBox="0 0 68 164" fill="none" xmlns="http://www.w3.org/2000/svg">
<path d="M34 0L34 68" stroke="url(#paint0_linear_54987_1174)" stroke-width="2"/>
<g filter="url(#filter0_i_54987_1174)">
<mask id="path-2-inside-1_54987_1174" fill="white">
<path d="M68 102C68 83.2223 52.7777 68 34 68C15.2223 68 0 83.2223 0 102C0 120.778 15.2223 136 34 136C52.7777 136 68 120.778 68 102Z"/>
</mask>
<path d="M68 102C68 83.2223 52.7777 68 34 68C15.2223 68 0 83.2223 0 102C0 120.778 15.2223 136 34 136C52.7777 136 68 120.778 68 102Z" fill="#A8A2E6" fill-opacity="0.2"/>
<path d="M34 134C51.6731 134 66 119.673 66 102H70C70 121.882 53.8823 138 34 138V134ZM2 102C2 119.673 16.3269 134 34 134V138C14.1177 138 -2 121.882 -2 102H2ZM34 70C16.3269 70 2 84.3269 2 102H-2C-2 82.1177 14.1177 66 34 66V70ZM34 66C53.8823 66 70 82.1177 70 102H66C66 84.3269 51.6731 70 34 70V66Z" fill="#D06026" mask="url(#path-2-inside-1_54987_1174)"/>
<path d="M53.6803 104.054H28.5854V93.816H30.9703L32.5104 97.4054H56.2148V98.2366H55.0224V100.163L53.6803 104.054Z" stroke="#D7702D" stroke-miterlimit="10"/>
<path d="M27.2423 94.9118H18.5451L14.1228 101.824V104.733C14.1228 104.733 11.7862 104.505 11.7862 105.753C11.7862 107.001 13.2273 106.887 14.2701 106.887C15.313 106.887 17.4516 106.891 17.4516 106.891C17.4516 106.891 18.4944 105.074 21.2293 105.074C23.9642 105.074 24.6088 106.891 24.6088 106.891H43.046C43.046 106.891 43.9415 105.037 46.6235 105.037C49.3054 105.037 50.0029 106.891 50.0029 106.891H53.9279C55.2056 106.196 55.3 105.478 53.9279 104.735H27.3413L27.2423 94.9135V94.9118Z" stroke="white" stroke-width="0.7" stroke-miterlimit="10"/>
<path d="M46.593 110.184C45.0317 110.184 43.766 109.222 43.766 108.035C43.766 106.848 45.0317 105.886 46.593 105.886C48.1543 105.886 49.4199 106.848 49.4199 108.035C49.4199 109.222 48.1543 110.184 46.593 110.184Z" stroke="white" stroke-width="0.7" stroke-miterlimit="10"/>
<path d="M21.0852 110.184C19.5239 110.184 18.2582 109.222 18.2582 108.035C18.2582 106.848 19.5239 105.886 21.0852 105.886C22.6464 105.886 23.9121 106.848 23.9121 108.035C23.9121 109.222 22.6464 110.184 21.0852 110.184Z" stroke="white" stroke-width="0.7" stroke-miterlimit="10"/>
<path d="M16.8583 100.2L19.5033 95.8375H25.9883V100.2H16.8583Z" stroke="white" stroke-width="0.7" stroke-miterlimit="10"/>
<path d="M33.3126 99.3971L36.9453 102.16" stroke="white" stroke-miterlimit="10"/>
<path d="M39.3162 99.3971L42.9512 102.16" stroke="white" stroke-miterlimit="10"/>
<path d="M45.7873 99.3971L49.4199 102.16" stroke="white" stroke-miterlimit="10"/>
</g>
<path d="M34 136L34 150L34 164" stroke="url(#paint1_linear_54987_1174)" stroke-width="2"/>
<defs>
<filter id="filter0_i_54987_1174" x="0" y="68" width="69" height="68" filterUnits="userSpaceOnUse" color-interpolation-filters="sRGB">
<feFlood flood-opacity="0" result="BackgroundImageFix"/>
<feBlend mode="normal" in="SourceGraphic" in2="BackgroundImageFix" result="shape"/>
<feColorMatrix in="SourceAlpha" type="matrix" values="0 0 0 0 0 0 0 0 0 0 0 0 0 0 0 0 0 0 127 0" result="hardAlpha"/>
<feOffset dx="1"/>
<feGaussianBlur stdDeviation="2"/>
<feComposite in2="hardAlpha" operator="arithmetic" k2="-1" k3="1"/>
<feColorMatrix type="matrix" values="0 0 0 0 0.270588 0 0 0 0 0.0941176 0 0 0 0 0.490196 0 0 0 0.2 0"/>
<feBlend mode="normal" in2="shape" result="effect1_innerShadow_54987_1174"/>
</filter>
<linearGradient id="paint0_linear_54987_1174" x1="33" y1="64.6" x2="30.0965" y2="0.130767" gradientUnits="userSpaceOnUse">
<stop stop-color="#D7702D"/>
<stop offset="0.383055" stop-color="#EEA575"/>
<stop offset="0.702605" stop-color="#45187D" stop-opacity="0.44"/>
</linearGradient>
<linearGradient id="paint1_linear_54987_1174" x1="34" y1="168.667" x2="33.3944" y2="136.011" gradientUnits="userSpaceOnUse">
<stop offset="0.292271" stop-color="#D7702D" stop-opacity="0"/>
<stop offset="0.717294" stop-color="#EEA575"/>
<stop offset="1" stop-color="#D7702D"/>
</linearGradient>
</defs>
</svg>
