<svg width="68" height="164" viewBox="0 0 68 164" fill="none" xmlns="http://www.w3.org/2000/svg">
<path d="M34 0L34 68" stroke="url(#paint0_linear_54987_1191)" stroke-width="2"/>
<g filter="url(#filter0_i_54987_1191)">
<mask id="path-2-inside-1_54987_1191" fill="white">
<path d="M68 102C68 83.2223 52.7777 68 34 68C15.2223 68 0 83.2223 0 102C0 120.778 15.2223 136 34 136C52.7777 136 68 120.778 68 102Z"/>
</mask>
<path d="M68 102C68 83.2223 52.7777 68 34 68C15.2223 68 0 83.2223 0 102C0 120.778 15.2223 136 34 136C52.7777 136 68 120.778 68 102Z" fill="#A8A2E6" fill-opacity="0.2"/>
<path d="M34 134C51.6731 134 66 119.673 66 102H70C70 121.882 53.8823 138 34 138V134ZM2 102C2 119.673 16.3269 134 34 134V138C14.1177 138 -2 121.882 -2 102H2ZM34 70C16.3269 70 2 84.3269 2 102H-2C-2 82.1177 14.1177 66 34 66V70ZM34 66C53.8823 66 70 82.1177 70 102H66C66 84.3269 51.6731 70 34 70V66Z" fill="#D06026" mask="url(#path-2-inside-1_54987_1191)"/>
<path d="M48.7911 88.9336H28.3398V102.934" stroke="#FAFAFA" stroke-miterlimit="10"/>
<path d="M48.1797 102.943H48.6661V88.7114" stroke="#FAFAFA" stroke-miterlimit="10"/>
<path d="M35.3918 90.1094H32.5893C30.931 90.3583 30.5413 91.2748 30.1848 92.9655L29.0599 102.951C27.9793 102.943 27.1833 103.479 26.6692 104.557V109.558H25.6328V112.95H27.9323L27.8411 115.163C27.8411 115.625 32.1692 115.625 32.1692 115.163V112.994H44.9767V115.163C46.3973 115.623 47.84 115.625 49.3048 115.163V112.772H51.8309V109.47H50.4324V104.204C49.8492 103.364 49.0781 102.989 48.1771 102.954L47.3093 93.1898C46.9611 91.6386 46.4221 90.6647 44.9352 90.1094H34.3609" stroke="#FAFAFA" stroke-miterlimit="10"/>
<path d="M35.8438 106.233H41.7666C42.4296 106.233 43.0096 106.431 43.4121 106.726C43.815 107.021 44.0127 107.387 44.0127 107.744V108.39C44.0126 108.747 43.8149 109.112 43.4121 109.407C43.0096 109.702 42.4297 109.9 41.7666 109.9H35.8438C35.1804 109.9 34.5998 109.702 34.1973 109.407C33.7947 109.112 33.5978 108.747 33.5977 108.39V107.744L33.6064 107.61C33.6495 107.297 33.8445 106.984 34.1973 106.726C34.5998 106.431 35.1804 106.233 35.8438 106.233Z" stroke="#FAFAFA" stroke-miterlimit="10"/>
<path d="M29.793 108.627V106.573C29.793 106.39 29.9443 106.233 30.1396 106.233H30.3486C30.5439 106.233 30.6953 106.39 30.6953 106.573V108.627C30.6953 108.811 30.5439 108.967 30.3486 108.967H30.1396C29.9443 108.967 29.793 108.811 29.793 108.627Z" stroke="#FAFAFA" stroke-miterlimit="10"/>
<path d="M46.9141 108.627V106.573C46.9141 106.39 47.0654 106.233 47.2607 106.233H47.4697C47.665 106.233 47.8164 106.39 47.8164 106.573V108.627C47.8164 108.811 47.665 108.967 47.4697 108.967H47.2607L47.1895 108.96C47.0297 108.928 46.9141 108.788 46.9141 108.627Z" stroke="#FAFAFA" stroke-miterlimit="10"/>
<path d="M24.8405 103.602C25.0699 103.755 25.3436 103.845 25.6393 103.845H42.2221C43.0098 103.845 43.6537 103.208 43.6537 102.428C43.6537 101.649 43.0098 101.011 42.2221 101.011H25.6393C25.2993 101.011 24.9843 101.132 24.7383 101.329" stroke="#D7702D" stroke-miterlimit="10"/>
<path d="M23.4685 104.313C24.45 104.313 25.2457 103.525 25.2457 102.554C25.2457 101.582 24.45 100.795 23.4685 100.795C22.4871 100.795 21.6914 101.582 21.6914 102.554C21.6914 103.525 22.4871 104.313 23.4685 104.313Z" stroke="#D7702D" stroke-miterlimit="10"/>
<path d="M52.3841 115.727H23.168" stroke="#D7702D" stroke-miterlimit="10"/>
<path d="M23.675 100.746V98.3794H18.2109V113.516H23.675V104.179" stroke="#D7702D" stroke-miterlimit="10"/>
<path d="M25.3638 113.612H16.3897L15.8535 115.727H25.8778L25.3638 113.612Z" stroke="#D7702D" stroke-miterlimit="10"/>
<path d="M34.666 93.167H42.9395C44.1555 93.167 44.9619 93.9552 44.9619 94.7266V97.1406C44.9619 97.912 44.1555 98.7002 42.9395 98.7002H34.666C33.4501 98.7001 32.6445 97.9119 32.6445 97.1406V94.7266C32.6445 93.9553 33.4501 93.1671 34.666 93.167Z" stroke="#FAFAFA" stroke-miterlimit="10"/>
</g>
<path d="M34 136L34 150L34 164" stroke="url(#paint1_linear_54987_1191)" stroke-width="2"/>
<defs>
<filter id="filter0_i_54987_1191" x="0" y="68" width="69" height="68" filterUnits="userSpaceOnUse" color-interpolation-filters="sRGB">
<feFlood flood-opacity="0" result="BackgroundImageFix"/>
<feBlend mode="normal" in="SourceGraphic" in2="BackgroundImageFix" result="shape"/>
<feColorMatrix in="SourceAlpha" type="matrix" values="0 0 0 0 0 0 0 0 0 0 0 0 0 0 0 0 0 0 127 0" result="hardAlpha"/>
<feOffset dx="1"/>
<feGaussianBlur stdDeviation="2"/>
<feComposite in2="hardAlpha" operator="arithmetic" k2="-1" k3="1"/>
<feColorMatrix type="matrix" values="0 0 0 0 0.270588 0 0 0 0 0.0941176 0 0 0 0 0.490196 0 0 0 0.2 0"/>
<feBlend mode="normal" in2="shape" result="effect1_innerShadow_54987_1191"/>
</filter>
<linearGradient id="paint0_linear_54987_1191" x1="33" y1="64.6" x2="30.0965" y2="0.130767" gradientUnits="userSpaceOnUse">
<stop stop-color="#D7702D"/>
<stop offset="0.383055" stop-color="#EEA575"/>
<stop offset="0.702605" stop-color="#45187D" stop-opacity="0.44"/>
</linearGradient>
<linearGradient id="paint1_linear_54987_1191" x1="34" y1="168.667" x2="33.3944" y2="136.011" gradientUnits="userSpaceOnUse">
<stop offset="0.292271" stop-color="#D7702D" stop-opacity="0"/>
<stop offset="0.717294" stop-color="#EEA575"/>
<stop offset="1" stop-color="#D7702D"/>
</linearGradient>
</defs>
</svg>
