<svg width="45" height="60" viewBox="0 0 45 60" fill="none" xmlns="http://www.w3.org/2000/svg">
<path d="M23 0.5H22C10.1259 0.5 0.5 10.1259 0.5 22C0.5 33.8741 10.1259 43.5 22 43.5H23C34.8741 43.5 44.5 33.8741 44.5 22C44.5 10.1259 34.8741 0.5 23 0.5Z" stroke="#6E2C95" stroke-opacity="0.5"/>
<path d="M34.539 10.6124H17.7585V22.6124" stroke="#6E2C95" stroke-width="0.6" stroke-miterlimit="10"/>
<path d="M34.0359 22.6202H34.435V10.4221" stroke="#6E2C95" stroke-width="0.6" stroke-miterlimit="10"/>
<path d="M23.543 11.6203H21.2435C19.8829 11.8337 19.5631 12.6192 19.2706 14.0684L18.3476 22.6272C17.461 22.6202 16.8078 23.0798 16.386 24.0037V28.2902H15.5356V31.1978H17.4224L17.3476 33.0949C17.3476 33.4911 20.8988 33.4911 20.8988 33.0949V31.2353H31.4075V33.0949C32.5731 33.4888 33.7569 33.4911 34.9588 33.0949V31.0454H37.0315V28.2151H35.884V23.7012C35.4055 22.9813 34.7728 22.6601 34.0336 22.6296L33.3215 14.2607C33.0357 12.9311 32.5935 12.0963 31.3735 11.6203H22.6971" stroke="#6E2C95" stroke-width="0.6" stroke-miterlimit="10"/>
<path d="M23.9141 25.3122H28.7734C29.3356 25.3122 29.8336 25.4871 30.1846 25.7556C30.5352 26.0238 30.7266 26.3732 30.7266 26.736V27.2888C30.7266 27.6516 30.5352 28.001 30.1846 28.2692C29.8336 28.5376 29.3356 28.7126 28.7734 28.7126H23.9141C23.352 28.7125 22.8538 28.5376 22.5029 28.2692C22.1524 28.001 21.9609 27.6515 21.9609 27.2888V26.736C21.9609 26.3733 22.1524 26.0238 22.5029 25.7556C22.8538 25.4871 23.352 25.3123 23.9141 25.3122Z" stroke="#6E2C95" stroke-width="0.6" stroke-miterlimit="10"/>
<path d="M18.8389 27.4927V25.7319C18.8389 25.4902 19.0255 25.3122 19.2334 25.312H19.4053C19.6133 25.312 19.7997 25.4901 19.7998 25.7319V27.4927C19.7998 27.7346 19.6133 27.9126 19.4053 27.9126H19.2334C19.0255 27.9124 18.8389 27.7344 18.8389 27.4927Z" stroke="#6E2C95" stroke-width="0.6" stroke-miterlimit="10"/>
<path d="M32.8877 27.4927V25.7319C32.8878 25.4902 33.0744 25.3122 33.2822 25.312H33.4541C33.6621 25.312 33.8486 25.4901 33.8486 25.7319V27.4927C33.8486 27.7346 33.6621 27.9126 33.4541 27.9126H33.2822C33.0743 27.9124 32.8877 27.7344 32.8877 27.4927Z" stroke="#6E2C95" stroke-width="0.6" stroke-miterlimit="10"/>
<path d="M14.8871 23.1853C15.0754 23.3167 15.2999 23.394 15.5425 23.394H29.1489C29.7952 23.394 30.3236 22.8477 30.3236 22.1794C30.3236 21.5111 29.7952 20.9647 29.1489 20.9647H15.5425C15.2636 20.9647 15.0051 21.0679 14.8032 21.2367" stroke="#6E2C95" stroke-width="0.7" stroke-miterlimit="10"/>
<path d="M13.7602 23.795C14.5655 23.795 15.2183 23.12 15.2183 22.2872C15.2183 21.4545 14.5655 20.7795 13.7602 20.7795C12.9548 20.7795 12.302 21.4545 12.302 22.2872C12.302 23.12 12.9548 23.795 13.7602 23.795Z" stroke="#6E2C95" stroke-width="0.7" stroke-miterlimit="10"/>
<path d="M37.4874 33.5779H13.5151" stroke="#6E2C95" stroke-width="0.6" stroke-miterlimit="10"/>
<path d="M13.9301 20.7373V18.7089H9.44678V31.6832H13.9301V23.6801" stroke="#6E2C95" stroke-width="0.7" stroke-miterlimit="10"/>
<path d="M15.3157 31.7653H7.95239L7.51245 33.5779H15.7375L15.3157 31.7653Z" stroke="#6E2C95" stroke-width="0.7" stroke-miterlimit="10"/>
<path d="M22.95 14.1122H29.738C30.7616 14.1122 31.5076 14.8117 31.5076 15.578V17.6473C31.5075 18.4136 30.7615 19.1122 29.738 19.1122H22.95C21.9265 19.1122 21.1805 18.4136 21.1804 17.6473V15.578C21.1804 14.8117 21.9264 14.1122 22.95 14.1122Z" stroke="#6E2C95" stroke-width="0.6" stroke-miterlimit="10"/>
<line opacity="0.5" x1="23" y1="44" x2="23" y2="60" stroke="#6E2C95"/>
</svg>
