<svg width="45" height="60" viewBox="0 0 45 60" fill="none" xmlns="http://www.w3.org/2000/svg">
<path d="M23 0.5H22C10.1259 0.5 0.5 10.1259 0.5 22C0.5 33.8741 10.1259 43.5 22 43.5H23C34.8741 43.5 44.5 33.8741 44.5 22C44.5 10.1259 34.8741 0.5 23 0.5Z" stroke="#6E2C95" stroke-opacity="0.5"/>
<path d="M20.1846 9.13567H24.5899C28.4118 9.13567 31.5164 12.2177 31.5164 16.017V27.4151C31.5164 28.2305 30.8485 28.8941 30.0276 28.8941H14.9538C14.0177 28.8941 13.2581 28.1394 13.2581 27.2094V16.017C13.2581 12.2177 16.3627 9.13567 20.1846 9.13567Z" stroke="#6E2C95" stroke-width="0.5" stroke-miterlimit="10"/>
<path d="M31.5164 15.1782C31.5164 14.6259 31.0687 14.1782 30.5164 14.1782H22.3861H14.2581C13.7058 14.1782 13.2581 14.6259 13.2581 15.1782V18.6763C13.2581 19.2286 13.7058 19.6763 14.2581 19.6763H30.5164C31.0687 19.6763 31.5164 19.2286 31.5164 18.6763V15.1782Z" stroke="#6E2C95" stroke-width="0.5" stroke-miterlimit="10"/>
<path d="M22.3855 19.6763V14.1782" stroke="#6E2C95" stroke-width="0.5" stroke-miterlimit="10"/>
<path d="M13.2581 22.1132H16.4097C17.2588 22.1132 17.9479 22.7978 17.9479 23.6414C17.9479 24.4849 17.2588 25.1695 16.4097 25.1695H13.2581V22.1132Z" stroke="#6E2C95" stroke-width="0.5" stroke-miterlimit="10"/>
<path d="M31.5139 25.1671H28.3623C27.5132 25.1671 26.8241 24.4825 26.8241 23.639C26.8241 22.7954 27.5132 22.1108 28.3623 22.1108H31.5139V25.1671Z" stroke="#6E2C95" stroke-width="0.5" stroke-miterlimit="10"/>
<path d="M35.3992 34.8643L29.3076 28.9387" stroke="#6E2C95" stroke-width="0.5" stroke-miterlimit="10"/>
<path d="M9.60059 34.8643L15.6922 28.9387" stroke="#6E2C95" stroke-width="0.5" stroke-miterlimit="10"/>
<path d="M31.5162 31.086H13.4836" stroke="#6E2C95" stroke-width="0.5" stroke-miterlimit="10"/>
<path d="M33.4377 32.955H11.562" stroke="#6E2C95" stroke-width="0.5" stroke-miterlimit="10"/>
<line opacity="0.5" x1="23" y1="44" x2="23" y2="60" stroke="#6E2C95"/>
</svg>
