<svg width="45" height="60" viewBox="0 0 45 60" fill="none" xmlns="http://www.w3.org/2000/svg">
<path d="M23 0.5H22C10.1259 0.5 0.5 10.1259 0.5 22C0.5 33.8741 10.1259 43.5 22 43.5H23C34.8741 43.5 44.5 33.8741 44.5 22C44.5 10.1259 34.8741 0.5 23 0.5Z" stroke="#6E2C95" stroke-opacity="0.5"/>
<path d="M29.4171 29.2638V25.8199L32.6092 22.6054L29.4171 21.0735V15.3679H27.7462V13.5454H25.1226V10.1408L24.4477 9.46118H21.0061L20.2899 10.1823V13.6044H17.6056V15.287H15.479V21.4341L13.5107 22.5944L16.3144 25.4178L16.3266 29.2265" stroke="#6E2C95" stroke-width="0.5" stroke-miterlimit="10"/>
<path d="M8.5 34.5388C8.5 34.5388 10.3771 32.2268 12.0762 32.2268C13.7754 32.2268 15.3877 34.128 17.2952 34.128C19.2026 34.128 21.3813 32.2268 22.8418 32.2268C24.3022 32.2268 26.2422 34.2788 28.0607 34.2788C29.8792 34.2788 32.1773 32.2268 33.488 32.2268C34.7987 32.2268 36.5 34.2984 36.5 34.2984" stroke="#6E2C95" stroke-width="0.5" stroke-miterlimit="10"/>
<path d="M8.5 29.8625C8.5 29.8625 10.3771 27.5506 12.0762 27.5506C13.7754 27.5506 15.3877 29.5522 17.2952 29.5522C19.2026 29.5522 21.3813 29.2157 22.8418 29.2157C24.3022 29.2157 26.2422 29.6724 28.0607 29.6724C29.8792 29.6724 32.1773 27.5506 33.488 27.5506C34.7987 27.5506 36.5 29.6222 36.5 29.6222" stroke="#6E2C95" stroke-width="0.5" stroke-miterlimit="10"/>
<path d="M29.4167 21.0736L22.6961 17.6493L15.4785 21.4342" stroke="#6E2C95" stroke-width="0.5" stroke-miterlimit="10"/>
<line opacity="0.5" x1="23" y1="44" x2="23" y2="60" stroke="#6E2C95"/>
</svg>
