<svg width="71" height="164" viewBox="0 0 71 164" fill="none" xmlns="http://www.w3.org/2000/svg">
<path d="M37 0L37 68" stroke="url(#paint0_linear_54987_545)" stroke-width="2"/>
<g filter="url(#filter0_i_54987_545)">
<mask id="path-2-inside-1_54987_545" fill="white">
<path d="M71 102C71 83.2223 55.7777 68 37 68C18.2223 68 3 83.2223 3 102C3 120.778 18.2223 136 37 136C55.7777 136 71 120.778 71 102Z"/>
</mask>
<path d="M71 102C71 83.2223 55.7777 68 37 68C18.2223 68 3 83.2223 3 102C3 120.778 18.2223 136 37 136C55.7777 136 71 120.778 71 102Z" fill="#A8A2E6" fill-opacity="0.2"/>
<path d="M37 134C54.6731 134 69 119.673 69 102H73C73 121.882 56.8823 138 37 138V134ZM5 102C5 119.673 19.3269 134 37 134V138C17.1177 138 1 121.882 1 102H5ZM37 70C19.3269 70 5 84.3269 5 102H1C1 82.1177 17.1177 66 37 66V70ZM37 66C56.8823 66 73 82.1177 73 102H69C69 84.3269 54.6731 70 37 70V66Z" fill="#D06026" mask="url(#path-2-inside-1_54987_545)"/>
<path d="M44.1553 106.248H41.0605V110.974H44.1553V106.248Z" stroke="white" stroke-width="0.5" stroke-miterlimit="10"/>
<path d="M44.1553 87.6166H41.0605V102.519H44.1553V87.6166Z" stroke="white" stroke-width="0.5" stroke-miterlimit="10"/>
<path d="M54.0857 102.416H39.0844C38.0605 102.416 37.2305 103.217 37.2305 104.205V104.46C37.2305 105.448 38.0605 106.248 39.0844 106.248H54.0857C55.1096 106.248 55.9397 105.448 55.9397 104.46V104.205C55.9397 103.217 55.1096 102.416 54.0857 102.416Z" stroke="white" stroke-width="0.5" stroke-miterlimit="10"/>
<path d="M46.9918 91.0048H34.0311C33.3618 91.0048 32.8193 91.5282 32.8193 92.1739V92.6439C32.8193 93.2896 33.3618 93.8131 34.0311 93.8131H46.9918C47.661 93.8131 48.2035 93.2896 48.2035 92.6439V92.1739C48.2035 91.5282 47.661 91.0048 46.9918 91.0048Z" stroke="#D7702D" stroke-width="0.5" stroke-miterlimit="10"/>
<path d="M44.0136 90.3475H41.8834C41.0174 90.3475 40.3154 91.0249 40.3154 91.8604V93.0694C40.3154 93.9049 41.0174 94.5823 41.8834 94.5823H44.0136C44.8796 94.5823 45.5816 93.9049 45.5816 93.0694V91.8604C45.5816 91.0249 44.8796 90.3475 44.0136 90.3475Z" stroke="#D7702D" stroke-width="0.5" stroke-miterlimit="10"/>
<path d="M49.149 99.2499H48.3492C47.4833 99.2499 46.7812 99.9272 46.7812 100.763V100.901C46.7812 101.736 47.4833 102.414 48.3492 102.414H49.149C50.015 102.414 50.717 101.736 50.717 100.901V100.763C50.717 99.9272 50.015 99.2499 49.149 99.2499Z" stroke="#D7702D" stroke-width="0.5" stroke-miterlimit="10"/>
<path d="M53.0845 99.2499H52.2848C51.4188 99.2499 50.7168 99.9272 50.7168 100.763V100.901C50.7168 101.736 51.4188 102.414 52.2848 102.414H53.0845C53.9505 102.414 54.6525 101.736 54.6525 100.901V100.763C54.6525 99.9272 53.9505 99.2499 53.0845 99.2499Z" stroke="#D7702D" stroke-width="0.5" stroke-miterlimit="10"/>
<path d="M51.1168 96.0858H50.317C49.451 96.0858 48.749 96.7632 48.749 97.5987V97.7367C48.749 98.5722 49.451 99.2496 50.317 99.2496H51.1168C51.9827 99.2496 52.6847 98.5722 52.6847 97.7367V97.5987C52.6847 96.7632 51.9827 96.0858 51.1168 96.0858Z" stroke="#D7702D" stroke-width="0.5" stroke-miterlimit="10"/>
<path d="M32.8196 111.231L34.9668 106.026L27.4831 101.703L20.1836 106.204L22.5828 111.257L24.7567 111.554L32.8196 111.231Z" stroke="white" stroke-width="0.6" stroke-miterlimit="10"/>
<path d="M33.9516 108.236L27.5755 104.733L21.1484 108.236" stroke="white" stroke-width="0.6" stroke-miterlimit="10"/>
<path d="M27.5752 111.257V104.733" stroke="white" stroke-width="0.6" stroke-miterlimit="10"/>
<path d="M33.7428 105.32C33.2023 103.22 32.6595 101.12 32.1263 99.0206C32.1166 98.9855 32.1069 98.9481 32.0778 98.927C32.0488 98.9037 32.01 98.9013 31.9712 98.899C30.5438 98.8382 29.1188 98.9411 27.6914 98.9411C26.1815 98.9411 24.6717 98.9411 23.1643 98.9411C23.1304 98.9411 23.0916 98.9411 23.065 98.9621C23.0383 98.9832 23.0262 99.0182 23.0189 99.051C22.4639 101.198 21.9065 103.344 21.3516 105.488" stroke="#D7702D" stroke-miterlimit="10"/>
<path d="M28.5715 96.3524H26.6255C26.149 96.3524 25.7627 96.7251 25.7627 97.1849V98.1062C25.7627 98.5659 26.149 98.9386 26.6255 98.9386H28.5715C29.048 98.9386 29.4343 98.5659 29.4343 98.1062V97.1849C29.4343 96.7251 29.048 96.3524 28.5715 96.3524Z" stroke="white" stroke-width="0.5" stroke-miterlimit="10"/>
<path d="M18.0605 115.777C18.0605 115.777 23.3922 115.866 25.1468 116.268C26.9014 116.67 28.8886 115.644 31.2903 115.777C33.6919 115.91 35.8634 116.5 37.4798 116.362C39.0963 116.224 41.6845 115.333 43.6936 115.511C45.7026 115.688 48.429 116.408 49.7692 116.383C51.1094 116.357 54.9894 115.553 55.9369 115.487" stroke="white" stroke-width="0.6" stroke-miterlimit="10"/>
<path d="M18.0605 113.362C18.0605 113.362 23.3922 113.45 25.1468 113.853C26.9014 114.255 28.8886 113.228 31.2903 113.362C33.6919 113.495 35.8634 114.084 37.4798 113.946C39.0963 113.808 41.6845 112.917 43.6936 113.095C45.7026 113.273 48.429 113.993 49.7692 113.967C51.1094 113.942 54.9894 113.137 55.9369 113.072" stroke="#D7702D" stroke-miterlimit="10"/>
<path d="M18.0605 111.1C18.0605 111.1 23.3922 111.189 25.1468 111.591C26.9014 111.994 28.8886 110.967 31.2903 111.1C33.6919 111.234 35.8634 111.823 37.4798 111.685C39.0963 111.547 41.6845 110.656 43.6936 110.834C45.7026 111.012 48.429 111.732 49.7692 111.706C51.1094 111.68 54.9894 110.876 55.9369 110.81" stroke="white" stroke-width="0.6" stroke-miterlimit="10"/>
</g>
<path d="M37 136L37 150L37 164" stroke="url(#paint1_linear_54987_545)" stroke-width="2"/>
<defs>
<filter id="filter0_i_54987_545" x="3" y="68" width="69" height="68" filterUnits="userSpaceOnUse" color-interpolation-filters="sRGB">
<feFlood flood-opacity="0" result="BackgroundImageFix"/>
<feBlend mode="normal" in="SourceGraphic" in2="BackgroundImageFix" result="shape"/>
<feColorMatrix in="SourceAlpha" type="matrix" values="0 0 0 0 0 0 0 0 0 0 0 0 0 0 0 0 0 0 127 0" result="hardAlpha"/>
<feOffset dx="1"/>
<feGaussianBlur stdDeviation="2"/>
<feComposite in2="hardAlpha" operator="arithmetic" k2="-1" k3="1"/>
<feColorMatrix type="matrix" values="0 0 0 0 0.270588 0 0 0 0 0.0941176 0 0 0 0 0.490196 0 0 0 0.2 0"/>
<feBlend mode="normal" in2="shape" result="effect1_innerShadow_54987_545"/>
</filter>
<linearGradient id="paint0_linear_54987_545" x1="36" y1="64.6" x2="33.0965" y2="0.130767" gradientUnits="userSpaceOnUse">
<stop stop-color="#D7702D"/>
<stop offset="0.383055" stop-color="#EEA575"/>
<stop offset="0.702605" stop-color="#45187D" stop-opacity="0.44"/>
</linearGradient>
<linearGradient id="paint1_linear_54987_545" x1="37" y1="168.667" x2="36.3944" y2="136.011" gradientUnits="userSpaceOnUse">
<stop offset="0.292271" stop-color="#D7702D" stop-opacity="0"/>
<stop offset="0.717294" stop-color="#EEA575"/>
<stop offset="1" stop-color="#D7702D"/>
</linearGradient>
</defs>
</svg>
