<svg width="45" height="60" viewBox="0 0 45 60" fill="none" xmlns="http://www.w3.org/2000/svg">
<path d="M23 0.5H22C10.1259 0.5 0.5 10.1259 0.5 22C0.5 33.8741 10.1259 43.5 22 43.5H23C34.8741 43.5 44.5 33.8741 44.5 22C44.5 10.1259 34.8741 0.5 23 0.5Z" stroke="#6E2C95" stroke-opacity="0.5"/>
<path d="M28.1408 25.6624H25.5347V29.7364H28.1408V25.6624Z" stroke="#6E2C95" stroke-width="0.5" stroke-miterlimit="10"/>
<path d="M28.7633 9.60049H26.1572V22.4472H28.7633V9.60049Z" stroke="#6E2C95" stroke-width="0.5" stroke-miterlimit="10"/>
<path d="M36.8877 22.3585H24.2551C23.3928 22.3585 22.6938 23.0489 22.6938 23.9006V24.1203C22.6938 24.972 23.3928 25.6624 24.2551 25.6624H36.8877C37.75 25.6624 38.449 24.972 38.449 24.1203V23.9006C38.449 23.0489 37.75 22.3585 36.8877 22.3585Z" stroke="#6E2C95" stroke-width="0.5" stroke-miterlimit="10"/>
<path d="M30.9142 12.5214H19.9999C19.4363 12.5214 18.9795 12.9726 18.9795 13.5293V13.9345C18.9795 14.4911 19.4363 14.9424 19.9999 14.9424H30.9142C31.4777 14.9424 31.9346 14.4911 31.9346 13.9345V13.5293C31.9346 12.9726 31.4777 12.5214 30.9142 12.5214Z" stroke="#6E2C95" stroke-width="0.5" stroke-miterlimit="10"/>
<path d="M28.406 11.955H26.6122C25.8829 11.955 25.2917 12.5389 25.2917 13.2592V14.3014C25.2917 15.0217 25.8829 15.6056 26.6122 15.6056H28.406C29.1353 15.6056 29.7264 15.0217 29.7264 14.3014V13.2592C29.7264 12.5389 29.1353 11.955 28.406 11.955Z" stroke="#6E2C95" stroke-width="0.5" stroke-miterlimit="10"/>
<path d="M32.7307 19.6291H32.0572C31.328 19.6291 30.7368 20.213 30.7368 20.9333V21.0522C30.7368 21.7726 31.328 22.3565 32.0572 22.3565H32.7307C33.4599 22.3565 34.0511 21.7726 34.0511 21.0522V20.9333C34.0511 20.213 33.4599 19.6291 32.7307 19.6291Z" stroke="#6E2C95" stroke-width="0.5" stroke-miterlimit="10"/>
<path d="M36.0449 19.6291H35.3714C34.6422 19.6291 34.051 20.213 34.051 20.9333V21.0522C34.051 21.7726 34.6422 22.3565 35.3714 22.3565H36.0449C36.7741 22.3565 37.3653 21.7726 37.3653 21.0522V20.9333C37.3653 20.213 36.7741 19.6291 36.0449 19.6291Z" stroke="#6E2C95" stroke-width="0.5" stroke-miterlimit="10"/>
<path d="M34.3877 16.9017H33.7142C32.985 16.9017 32.3938 17.4857 32.3938 18.206V18.3249C32.3938 19.0452 32.985 19.6291 33.7142 19.6291H34.3877C35.1169 19.6291 35.7081 19.0452 35.7081 18.3249V18.206C35.7081 17.4857 35.1169 16.9017 34.3877 16.9017Z" stroke="#6E2C95" stroke-width="0.5" stroke-miterlimit="10"/>
<path d="M18.9797 29.9581L20.7878 25.4709L14.4858 21.7437L8.33887 25.6241L10.3593 29.9803L12.1899 30.2363L18.9797 29.9581Z" stroke="#6E2C95" stroke-width="0.5" stroke-miterlimit="10"/>
<path d="M19.9328 27.3759L14.5634 24.3562L9.15112 27.3759" stroke="#6E2C95" stroke-width="0.5" stroke-miterlimit="10"/>
<path d="M14.5632 29.9803V24.3562" stroke="#6E2C95" stroke-width="0.5" stroke-miterlimit="10"/>
<path d="M19.7572 24.8621C19.3021 23.052 18.845 21.2418 18.396 19.4316C18.3878 19.4013 18.3797 19.3691 18.3552 19.3509C18.3307 19.3308 18.298 19.3288 18.2654 19.3267C17.0633 19.2743 15.8633 19.363 14.6613 19.363C13.3899 19.363 12.1184 19.363 10.849 19.363C10.8205 19.363 10.7878 19.363 10.7654 19.3812C10.7429 19.3993 10.7327 19.4296 10.7266 19.4578C10.2592 21.3083 9.78986 23.1588 9.32251 25.0073" stroke="#6E2C95" stroke-width="0.5" stroke-miterlimit="10"/>
<path d="M15.4019 17.1315H13.7632C13.3619 17.1315 13.0366 17.4528 13.0366 17.8492V18.6434C13.0366 19.0397 13.3619 19.361 13.7632 19.361H15.4019C15.8032 19.361 16.1285 19.0397 16.1285 18.6434V17.8492C16.1285 17.4528 15.8032 17.1315 15.4019 17.1315Z" stroke="#6E2C95" stroke-width="0.5" stroke-miterlimit="10"/>
<path d="M6.55103 33.8769C6.55103 33.8769 11.0408 33.9535 12.5184 34.3002C13.9959 34.6469 15.6694 33.762 17.6918 33.8769C19.7143 33.9918 21.5429 34.4997 22.9041 34.3808C24.2653 34.2619 26.4449 33.4938 28.1367 33.647C29.8286 33.8003 32.1245 34.4211 33.2531 34.3989C34.3816 34.3768 37.649 33.6833 38.4469 33.6269" stroke="#6E2C95" stroke-width="0.5" stroke-miterlimit="10"/>
<path d="M6.55103 31.7945C6.55103 31.7945 11.0408 31.8711 12.5184 32.2178C13.9959 32.5646 15.6694 31.6796 17.6918 31.7945C19.7143 31.9094 21.5429 32.4174 22.9041 32.2985C24.2653 32.1795 26.4449 31.4115 28.1367 31.5647C29.8286 31.7179 32.1245 32.3388 33.2531 32.3166C34.3816 32.2944 37.649 31.601 38.4469 31.5446" stroke="#6E2C95" stroke-width="0.5" stroke-miterlimit="10"/>
<path d="M6.55103 29.8452C6.55103 29.8452 11.0408 29.9218 12.5184 30.2686C13.9959 30.6153 15.6694 29.7303 17.6918 29.8452C19.7143 29.9601 21.5429 30.4681 22.9041 30.3492C24.2653 30.2303 26.4449 29.4622 28.1367 29.6154C29.8286 29.7686 32.1245 30.3895 33.2531 30.3673C34.3816 30.3452 37.649 29.6517 38.4469 29.5953" stroke="#6E2C95" stroke-width="0.5" stroke-miterlimit="10"/>
<line opacity="0.5" x1="23" y1="44" x2="23" y2="60" stroke="#6E2C95"/>
</svg>
