<svg width="45" height="60" viewBox="0 0 45 60" fill="none" xmlns="http://www.w3.org/2000/svg">
<path d="M23 0.5H22C10.1259 0.5 0.5 10.1259 0.5 22C0.5 33.8741 10.1259 43.5 22 43.5H23C34.8741 43.5 44.5 33.8741 44.5 22C44.5 10.1259 34.8741 0.5 23 0.5Z" stroke="#6E2C95" stroke-opacity="0.5"/>
<path d="M26.181 18.818H10.5C9.94772 18.818 9.5 19.2657 9.5 19.818V34.5427C9.5 35.095 9.94772 35.5427 10.5 35.5427H34.5001C35.0524 35.5427 35.5001 35.095 35.5001 34.5427V19.818C35.5001 19.2657 35.0524 18.818 34.5001 18.818H31.6255H26.181Z" stroke="#6E2C95" stroke-width="0.5" stroke-miterlimit="10"/>
<path d="M31.6256 18.8181C31.6256 18.8181 23.023 13.9176 22.433 13.9176C21.843 13.9176 12.8479 18.8181 12.8479 18.8181" stroke="#6E2C95" stroke-width="0.5" stroke-miterlimit="10"/>
<path d="M15.0789 22.526C15.0789 21.9162 14.5795 21.4219 13.9634 21.4219C13.3473 21.4219 12.8479 21.9162 12.8479 22.526V32.1447C12.8479 32.7545 13.3473 33.2488 13.9634 33.2488C14.5795 33.2488 15.0789 32.7545 15.0789 32.1447V22.526Z" stroke="#6E2C95" stroke-width="0.5" stroke-miterlimit="10"/>
<path d="M19.3194 22.526C19.3194 21.9162 18.8199 21.4219 18.2039 21.4219C17.5878 21.4219 17.0884 21.9162 17.0884 22.526V32.1447C17.0884 32.7545 17.5878 33.2488 18.2039 33.2488C18.8199 33.2488 19.3194 32.7545 19.3194 32.1447V22.526Z" stroke="#6E2C95" stroke-width="0.5" stroke-miterlimit="10"/>
<path d="M23.5498 22.526C23.5498 21.9162 23.0504 21.4219 22.4343 21.4219C21.8183 21.4219 21.3188 21.9162 21.3188 22.526V32.1447C21.3188 32.7545 21.8183 33.2488 22.4343 33.2488C23.0504 33.2488 23.5498 32.7545 23.5498 32.1447V22.526Z" stroke="#6E2C95" stroke-width="0.5" stroke-miterlimit="10"/>
<path d="M27.7827 22.526C27.7827 21.9162 27.2833 21.4219 26.6673 21.4219C26.0512 21.4219 25.5518 21.9162 25.5518 22.526V32.1447C25.5518 32.7545 26.0512 33.2488 26.6673 33.2488C27.2833 33.2488 27.7827 32.7545 27.7827 32.1447V22.526Z" stroke="#6E2C95" stroke-width="0.5" stroke-miterlimit="10"/>
<path d="M32.0467 22.526C32.0467 21.9162 31.5472 21.4219 30.9312 21.4219C30.3151 21.4219 29.8157 21.9162 29.8157 22.526V32.1447C29.8157 32.7545 30.3151 33.2488 30.9312 33.2488C31.5472 33.2488 32.0467 32.7545 32.0467 32.1447V22.526Z" stroke="#6E2C95" stroke-width="0.5" stroke-miterlimit="10"/>
<path d="M22.4332 8.45724C22.4332 8.45724 22.0038 10.1029 22.794 10.7252C23.5842 11.3476 25.2542 13.665 22.5543 14.4358C20.6684 14.5243 20.5156 12.4698 20.5156 12.4698" stroke="#6E2C95" stroke-width="0.5" stroke-miterlimit="10"/>
<line opacity="0.5" x1="23" y1="44" x2="23" y2="60" stroke="#6E2C95"/>
</svg>
